<svg xmlns="http://www.w3.org/2000/svg" width="512" height="512.001" viewBox="0 0 512 512.001">
  <g id="_x32_4h" transform="translate(0 0.001)">
    <g id="Group_1" data-name="Group 1">
      <path id="Path_1" data-name="Path 1" d="M360.542,445.537A219.884,219.884,0,0,1,256,472C134.878,472,40,377.122,40,256S134.878,40,256,40a218.507,218.507,0,0,1,155.487,64.513A20,20,0,0,0,445.629,90.4l.077-56.646a20,20,0,0,0-19.973-20.027h-.027a20,20,0,0,0-20,19.973l-.019,13.749A257.815,257.815,0,0,0,256,0C112.449,0,0,112.449,0,256S112.449,512,256,512a260.011,260.011,0,0,0,123.615-31.3,20,20,0,1,0-19.073-35.16Z" fill="#B8113C"/>
      <circle id="Ellipse_1" data-name="Ellipse 1" cx="20" cy="20" r="20" transform="matrix(0.863, -0.506, 0.506, 0.863, 450.357, 166.791)" fill="#B8113C"/>
      <path id="Path_2" data-name="Path 2" d="M484.367,319.291a20,20,0,1,0,11.953,25.634,20,20,0,0,0-11.953-25.634Z" fill="#B8113C"/>
      <path id="Path_3" data-name="Path 3" d="M448.706,394.948a20,20,0,1,0,2.465,28.177,20,20,0,0,0-2.465-28.177Z" fill="#B8113C"/>
      <circle id="Ellipse_2" data-name="Ellipse 2" cx="20" cy="20" r="20" transform="translate(472 236)" fill="#B8113C"/>
      <path id="Path_4" data-name="Path 4" d="M256,156a20,20,0,0,0,20-20V96a20,20,0,0,0-20-20C156.748,76,76,156.748,76,256s80.748,180,180,180,180-80.748,180-180a179.937,179.937,0,0,0-89.985-155.908,20,20,0,0,0-20.03,34.624A140.657,140.657,0,0,1,394.535,236H376a20,20,0,0,0,0,40h18.565A140.307,140.307,0,0,1,276,394.565V376a20,20,0,0,0-40,0v18.565A140.307,140.307,0,0,1,117.435,276H136a20,20,0,0,0,0-40H117.435A140.307,140.307,0,0,1,236,117.435V136A20,20,0,0,0,256,156Z" fill="#B8113C"/>
    </g>
    <g id="Group_2" data-name="Group 2">
      <path id="Path_5" data-name="Path 5" d="M296,276H256a20,20,0,0,1-20-20V216a20,20,0,0,1,40,0v20h20a20,20,0,0,1,0,40Z" fill="#B8113C"/>
    </g>
  </g>
</svg>
