<svg xmlns="http://www.w3.org/2000/svg" width="512" height="511.995" viewBox="0 0 512 511.995">
  <g id="bank-account" transform="translate(0 -0.005)">
    <g id="Group_3" data-name="Group 3">
      <path id="Path_6" data-name="Path 6" d="M467,211a15,15,0,0,0,10.605-4.393C481.127,203.086,512,171.2,512,136a15.06,15.06,0,0,0-8.27-13.4l-241-121a15,15,0,0,0-13.461,0l-241,121A15.085,15.085,0,0,0,0,136c0,35.19,30.859,67.072,34.391,70.6A15.184,15.184,0,0,0,45,211H60V422H45a15,15,0,0,0-10.605,4.393C30.873,429.913,0,461.8,0,497a15,15,0,0,0,15,15H497a15,15,0,0,0,15-15c0-35.2-30.873-67.086-34.394-70.606A14.992,14.992,0,0,0,467,422H452V211ZM256,31.785,433.693,121H78.307ZM460.408,452c5.89,6.872,14.142,18.2,18.543,30H33.048c4.4-11.8,12.661-23.139,18.543-30ZM90,422V211h30V422Zm60,0V211h61V422Zm91,0V211h30V422Zm60,0V211h61V422Zm91,0V211h30V422ZM51.593,181c-5.89-6.871-14.14-18.2-18.542-30.01h445.9c-4.4,11.812-12.654,23.149-18.537,30.01Z" fill="#e44499"/>
    </g>
  </g>
</svg>
