<svg xmlns="http://www.w3.org/2000/svg" width="388.003" height="512" viewBox="0 0 388.003 512">
  <g id="bookmarks" transform="translate(-61.998)">
    <g id="Group_2" data-name="Group 2">
      <g id="Group_1" data-name="Group 1">
        <path id="Path_1" data-name="Path 1" d="M430,432a20,20,0,0,0-20,20,18.867,18.867,0,0,1-5.615,13.947A21.7,21.7,0,0,1,389.251,472a18.376,18.376,0,0,1-13.587-5.7L270.333,358.048a20,20,0,0,0-28.666,0L136.335,466.292A18.617,18.617,0,0,1,122.649,472a21.351,21.351,0,0,1-15.14-5.936A18.5,18.5,0,0,1,102,452.344V80a40.045,40.045,0,0,1,40-40H370a40.045,40.045,0,0,1,40,40V353a20,20,0,0,0,40,0V80A80.091,80.091,0,0,0,370,0H142A80.09,80.09,0,0,0,62,80V452.344a58.678,58.678,0,0,0,17.474,42.25A61.392,61.392,0,0,0,122.288,512c.355,0,.711,0,1.066-.009A58.318,58.318,0,0,0,165,494.187l91-93.514,91,93.514a58.064,58.064,0,0,0,41.747,17.806,61.735,61.735,0,0,0,43.74-17.593A59.07,59.07,0,0,0,450,452,20,20,0,0,0,430,432Z" fill="#B8113C"/>
      </g>
    </g>
  </g>
</svg>
