<svg xmlns="http://www.w3.org/2000/svg" width="21.5" height="21.5" viewBox="0 0 21.5 21.5">
  <g id="delete-account" transform="translate(-1.25 -1.25)">
    <g id="Icon">
      <path id="Path_1" data-name="Path 1" d="M11.5,20.263H2.95a.2.2,0,0,1-.2-.2v-1.45a2.836,2.836,0,0,1,1.507-2.185A13.348,13.348,0,0,1,11.5,14.612a.75.75,0,1,0,0-1.5,14.882,14.882,0,0,0-8.089,2.076A4.281,4.281,0,0,0,1.25,18.612v1.451a1.7,1.7,0,0,0,1.7,1.7H11.5a.75.75,0,0,0,0-1.5Z" fill="#e44499"/>
      <path id="Path_2" data-name="Path 2" d="M11.5,1.25A5.5,5.5,0,1,0,17,6.75a5.5,5.5,0,0,0-5.5-5.5Zm0,1.5a4,4,0,1,1-4,4,4,4,0,0,1,4-4Z" fill="#e44499"/>
      <path id="Path_3" data-name="Path 3" d="M15.732,16.793l2.475,2.475a.75.75,0,1,0,1.061-1.061l-2.475-2.475a.75.75,0,1,0-1.061,1.061Z" fill="#e44499"/>
      <path id="Path_4" data-name="Path 4" d="M16.793,19.268l2.475-2.475a.75.75,0,1,0-1.061-1.061l-2.475,2.475a.75.75,0,1,0,1.061,1.061Z" fill="#e44499"/>
      <path id="Path_5" data-name="Path 5" d="M17.5,12.25a5.25,5.25,0,1,0,5.25,5.25,5.25,5.25,0,0,0-5.25-5.25Zm0,1.5a3.75,3.75,0,1,1-3.75,3.75A3.75,3.75,0,0,1,17.5,13.75Z" fill="#e44499"/>
    </g>
  </g>
</svg>
