<svg xmlns="http://www.w3.org/2000/svg" width="390" height="512" viewBox="0 0 390 512">
  <g id="documents" transform="translate(-61 0)">
    <path id="Path_6" data-name="Path 6" d="M433.8,106.268,337.375,15.046A54.785,54.785,0,0,0,299.577,0H116A55.062,55.062,0,0,0,61,55V457a55.062,55.062,0,0,0,55,55H396a55.062,55.062,0,0,0,55-55V146.222a55.225,55.225,0,0,0-17.2-39.954ZM404.661,120H330a5.006,5.006,0,0,1-5-5V44.636ZM396,482H116a25.028,25.028,0,0,1-25-25V55a25.028,25.028,0,0,1,25-25H295v85a35.04,35.04,0,0,0,35,35h91V457a25.028,25.028,0,0,1-25,25Z" fill="#B8113C"/>
    <path id="Path_7" data-name="Path 7" d="M363,200H143a15,15,0,0,0,0,30H363a15,15,0,1,0,0-30Z" fill="#B8113C"/>
    <path id="Path_8" data-name="Path 8" d="M363,280H143a15,15,0,0,0,0,30H363a15,15,0,1,0,0-30Z" fill="#B8113C"/>
    <path id="Path_9" data-name="Path 9" d="M215.72,360H143a15,15,0,0,0,0,30h72.72a15,15,0,1,0,0-30Z" fill="#B8113C"/>
  </g>
</svg>
