<svg xmlns="http://www.w3.org/2000/svg" width="21.172" height="21.013" viewBox="0 0 21.172 21.013">
  <g id="edit-profile" transform="translate(-1.25 -1.737)">
    <g id="Icon">
      <path id="Path_3" data-name="Path 3" d="M22.257,15.989a1.749,1.749,0,0,0-.846-2.326l-2.143-1a1.75,1.75,0,0,0-2.325.847L14.76,18.192a1.753,1.753,0,0,0-.091,1.24c.248.829.831,2.783.831,2.783a.749.749,0,0,0,1.016.473l2.666-1.151a1.749,1.749,0,0,0,.892-.867ZM20.9,15.355l-2.183,4.681a.25.25,0,0,1-.128.124l-1.891.817L16.106,19a.257.257,0,0,1,.013-.177L18.3,14.144a.252.252,0,0,1,.141-.129.246.246,0,0,1,.192.009l2.142,1a.251.251,0,0,1,.121.333Z" fill="#B8113C"/>
      <path id="Path_4" data-name="Path 4" d="M13.5,20.75H2.95a.2.2,0,0,1-.2-.2V19.1a2.838,2.838,0,0,1,1.507-2.185A13.357,13.357,0,0,1,11.5,15.1a17.678,17.678,0,0,1,2.4.16.75.75,0,1,0,.2-1.487,19.3,19.3,0,0,0-2.6-.173,14.882,14.882,0,0,0-8.089,2.076A4.281,4.281,0,0,0,1.25,19.1v1.45a1.7,1.7,0,0,0,1.7,1.7H13.5a.75.75,0,1,0,0-1.5Z" fill="#B8113C"/>
      <path id="Path_5" data-name="Path 5" d="M11.5,1.737a5.5,5.5,0,1,0,5.5,5.5,5.5,5.5,0,0,0-5.5-5.5Zm0,1.5a4,4,0,1,1-4,4,4,4,0,0,1,4-4Z" fill="#B8113C"/>
    </g>
  </g>
</svg>
