<svg id="Group_1" data-name="Group 1" xmlns="http://www.w3.org/2000/svg" width="512" height="511.997" viewBox="0 0 512 511.997">
  <path id="Path_1" data-name="Path 1" d="M512,0H0V454.9H138.812a148.809,148.809,0,0,0,234.376,0H512ZM482,120.229H362.1L428.614,30H482Zm-194.07,0L354.445,30h36.9l-66.514,90.229ZM317.174,30,250.66,120.229H30V30ZM89.13,346.918V244.067h77.319a148.985,148.985,0,0,0-58.541,102.851ZM256,482A118.967,118.967,0,1,1,374.967,363.033,118.967,118.967,0,0,1,256,482Zm135.5-57.1a148.071,148.071,0,0,0,13.457-60.836h46.47v-30h-49.3a147.682,147.682,0,0,0-9.343-30h58.637v-30H375.411a150.258,150.258,0,0,0-29.86-30H451.424v-30H59.13V376.918h48.556A147.807,147.807,0,0,0,120.5,424.9H30V150.229H482V424.9Z" fill="#e44499"/>
  <path id="Path_2" data-name="Path 2" d="M60.13,59.844h30v30h-30Z" fill="#e44499"/>
  <path id="Path_3" data-name="Path 3" d="M120.13,59.844h30v30h-30Z" fill="#e44499"/>
  <path id="Path_4" data-name="Path 4" d="M180.13,59.844h30v30h-30Z" fill="#e44499"/>
  <path id="Path_5" data-name="Path 5" d="M256,325.6a11.275,11.275,0,0,1,11.262,11.262h30A41.319,41.319,0,0,0,271,298.431V274.09H241v24.341a41.255,41.255,0,0,0,15,79.689h1.964a11.262,11.262,0,1,1-13.226,11.09h-30A41.319,41.319,0,0,0,241,427.637v24.342h30V427.637a41.255,41.255,0,0,0-15-79.689h-1.964A11.262,11.262,0,0,1,256,325.6Z" fill="#e44499"/>
</svg>
