<svg xmlns="http://www.w3.org/2000/svg" width="485.284" height="512" viewBox="0 0 485.284 512">
  <g id="incoming-video-call" transform="translate(-13.358)">
    <path id="Path_1" data-name="Path 1" d="M387.528,121.642a20,20,0,0,0-18.72-1.908l-42.9,17.549c-1.09-18.3-15.7-32.848-33.5-32.848H149.29c-18.515,0-33.577,15.719-33.577,35.042V262.22c0,19.322,15.062,35.042,33.577,35.042H292.4c17.808,0,32.416-14.545,33.5-32.849l42.9,17.549a20,20,0,0,0,27.572-18.511V138.246a20,20,0,0,0-8.852-16.61ZM285.979,257.262H155.713V144.435H285.979Zm70.4-23.6-30.4-12.435V180.471l30.4-12.436ZM450.812,0H61.188a47.884,47.884,0,0,0-47.83,47.83V353.866a47.884,47.884,0,0,0,47.83,47.83h63.493V492A20,20,0,0,0,158.9,506.059L262.052,401.7h188.76a47.884,47.884,0,0,0,47.83-47.83V47.83A47.884,47.884,0,0,0,450.812,0Zm7.83,353.866a7.839,7.839,0,0,1-7.83,7.83H253.7a20,20,0,0,0-14.222,5.94l-74.8,75.677V381.7a20,20,0,0,0-20-20H61.188a7.839,7.839,0,0,1-7.83-7.83V47.83A7.839,7.839,0,0,1,61.188,40H450.812a7.839,7.839,0,0,1,7.83,7.83Z" fill="#B8113C"/>
  </g>
</svg>
