<svg xmlns="http://www.w3.org/2000/svg" width="389.997" height="512" viewBox="0 0 389.997 512">
  <g id="lists" transform="translate(-61)">
    <path id="Path_1" data-name="Path 1" d="M434.929,46.131A54.551,54.551,0,0,0,396.058,30H371.25V25a25.028,25.028,0,0,0-25-25h-180a25.028,25.028,0,0,0-25,25v5h-24.9A55.047,55.047,0,0,0,61.411,84.939l-.411,372A54.971,54.971,0,0,0,115.942,512h279.7a55.046,55.046,0,0,0,54.942-54.939l.412-372a54.659,54.659,0,0,0-16.071-38.93ZM171.25,30h170V60h-170ZM420.62,457.027A25.022,25.022,0,0,1,395.646,482h-279.7a24.987,24.987,0,0,1-24.974-25.027l.411-372A25.02,25.02,0,0,1,116.353,60h24.9v5a25.028,25.028,0,0,0,25,25h180a25.028,25.028,0,0,0,25-25V60h24.808a24.987,24.987,0,0,1,24.974,25.027Z" fill="#e44499"/>
    <path id="Path_2" data-name="Path 2" d="M261.1,200H367.67a15,15,0,1,0,0-30H261.1a15,15,0,0,0,0,30Z" fill="#e44499"/>
    <path id="Path_3" data-name="Path 3" d="M261.1,300H367.67a15,15,0,1,0,0-30H261.1a15,15,0,0,0,0,30Z" fill="#e44499"/>
    <path id="Path_4" data-name="Path 4" d="M368.1,370h-107a15,15,0,0,0,0,30h107a15,15,0,1,0,0-30Z" fill="#e44499"/>
    <path id="Path_5" data-name="Path 5" d="M197.256,144.157l-34.592,34.592-8.156-8.157A15,15,0,1,0,133.294,191.8l18.764,18.763a15,15,0,0,0,21.213,0l45.2-45.2a15,15,0,1,0-21.214-21.214Z" fill="#e44499"/>
    <path id="Path_6" data-name="Path 6" d="M197.256,251.794l-34.592,34.592-8.156-8.156a15,15,0,1,0-21.213,21.213l18.763,18.764a15,15,0,0,0,21.213,0l45.2-45.2a15,15,0,1,0-21.214-21.214Z" fill="#e44499"/>
    <path id="Path_7" data-name="Path 7" d="M197.256,351.794l-34.592,34.592-8.156-8.156a15,15,0,1,0-21.213,21.213l18.763,18.764a15,15,0,0,0,21.213,0l45.2-45.2a15,15,0,1,0-21.214-21.214Z" fill="#e44499"/>
  </g>
</svg>
