<svg xmlns="http://www.w3.org/2000/svg" width="512.024" height="512.028" viewBox="0 0 512.024 512.028">
  <g id="outgoing-video-call" transform="translate(-0.023 0.047)">
    <path id="Path_1" data-name="Path 1" d="M485.5,336.44l-80.719-46.6a52.988,52.988,0,0,0-72.3,19.372c-4.2,7.277-11.571,16.436-22.821,18.736a32.8,32.8,0,0,1-27.631-6.208c-30.378-22.8-68.97-61.388-91.764-91.763a32.793,32.793,0,0,1-6.209-27.631c2.3-11.252,11.459-18.622,18.736-22.823a52.99,52.99,0,0,0,19.373-72.3L175.56,26.5A52.612,52.612,0,0,0,110.381,3.7l-1,.39C70.9,19.2,42.755,30.794,31.176,42.374.949,72.6-7.49,116.712,6.772,169.94c16.77,62.588,64.735,136.831,131.6,203.692s141.1,114.825,203.692,131.6a184.508,184.508,0,0,0,47.6,6.749c32.132,0,59.3-10.483,79.968-31.153C481.208,469.242,492.8,441.1,507.915,402.6l.385-.981a52.611,52.611,0,0,0-22.8-65.179ZM471.067,387l-.385.982c-7.337,18.687-22.6,57.571-29.34,64.559-19.823,19.823-49.745,24.549-88.929,14.051-117.669-31.529-275.475-189.335-307-307-10.5-39.186-5.772-69.106,14.04-88.919,7-6.747,45.872-22.009,64.555-29.344l1-.391A13.314,13.314,0,0,1,129.886,40a12.682,12.682,0,0,1,11.041,6.51l46.6,80.719a12.991,12.991,0,0,1-4.731,17.658c-20.336,11.741-33.8,29.3-37.926,49.45a72.624,72.624,0,0,0,13.4,59.653c25.177,33.551,66.2,74.57,99.749,99.748a72.627,72.627,0,0,0,59.654,13.4c20.148-4.122,37.709-17.591,49.449-37.926a12.941,12.941,0,0,1,17.658-4.731l80.719,46.6A12.7,12.7,0,0,1,471.067,387ZM286.455,232.419H414.561c16.544,0,30.243-12.935,32.263-29.606l37.6,15.382A20,20,0,0,0,512,199.684V84.229a20,20,0,0,0-27.572-18.511L446.824,81.1C444.8,64.43,431.1,51.494,414.561,51.494H286.455c-17.932,0-32.52,15.194-32.52,33.87V198.549c0,18.676,14.588,33.87,32.52,33.87ZM472,169.9l-24.919-10.2V124.211L472,114.018ZM293.935,91.5H407.08V192.419H293.935Z" fill="#B8113C"/>
  </g>
</svg>
