<svg xmlns="http://www.w3.org/2000/svg" width="56" height="56.042" viewBox="0 0 56 56.042">
  <g id="past-live-video" transform="translate(-4 -3.958)">
    <g id="Live_TV" data-name="Live TV">
      <path id="Path_1" data-name="Path 1" d="M22.01,45.05V30.95a5,5,0,0,1,7.536-4.31l11.979,7.05a5,5,0,0,1,0,8.619l-11.979,7.05a5,5,0,0,1-7.536-4.31Zm6-12.351V43.3L37.018,38Z" fill="#e44499"/>
      <path id="Path_2" data-name="Path 2" d="M50,16H41.635l7.4-6.79c2.918-2.682-1.132-7.1-4.059-4.42L32.763,16H30.745L21.029,7.078C18.108,4.4,14.049,8.812,16.971,11.5l4.9,4.5H14A10.012,10.012,0,0,0,4,26V50A10.012,10.012,0,0,0,14,60H50A10.012,10.012,0,0,0,60,50V26A10.012,10.012,0,0,0,50,16Zm4,34a4,4,0,0,1-4,4H14a4,4,0,0,1-4-4V26a4,4,0,0,1,4-4H50a4,4,0,0,1,4,4Z" fill="#e44499"/>
    </g>
  </g>
</svg>
