<svg xmlns="http://www.w3.org/2000/svg" width="511.997" height="512" viewBox="0 0 511.997 512">
  <g id="payments" transform="translate(0.001)">
    <g id="Group_1" data-name="Group 1">
      <path id="Path_1" data-name="Path 1" d="M305.409,125.647,340.491,151.6a5.235,5.235,0,0,1-3.04,9.416l-11.009.067h-.032a5.165,5.165,0,0,1-5.162-5.124,15,15,0,1,0-30,.185,35.213,35.213,0,0,0,25.623,33.615v.726a15,15,0,0,0,30,0v-.757A35.173,35.173,0,0,0,372.579,155.6v-.094a35.324,35.324,0,0,0-14.247-28.022l-35.081-25.953a5.161,5.161,0,0,1,3.072-9.3h11.026a5.165,5.165,0,0,1,5.163,5.156,15,15,0,1,0,30,0,35.213,35.213,0,0,0-25.641-33.835V62.83a15,15,0,1,0-30,0v.7a35.147,35.147,0,0,0-11.462,62.115Z" fill="#e44499"/>
      <path id="Path_2" data-name="Path 2" d="M331.871,253.315c69.858,0,126.69-56.818,126.69-126.658S401.728,0,331.871,0s-126.69,56.818-126.69,126.658S262.014,253.315,331.871,253.315Zm0-223.315a96.658,96.658,0,1,1-96.691,96.669A96.658,96.658,0,0,1,331.871,30Z" fill="#e44499"/>
      <path id="Path_3" data-name="Path 3" d="M501.685,287.186A48.931,48.931,0,0,0,435.092,277l-57.071,38.181a47.035,47.035,0,0,0-41.43-24.833H295.88a111.427,111.427,0,0,0-174.3,28.176l-7.642,4.673-1.98-5.791a15,15,0,0,0-19.042-9.342L10.153,336.34A15,15,0,0,0,.81,355.387L50.883,501.849a15,15,0,0,0,19.042,9.342l82.759-28.277c7.391-2.526,12.233-10.593,9.177-19.532l131.321-4.065a170.526,170.526,0,0,0,99.191-31.766l99.032-70.442a48.919,48.919,0,0,0,10.28-69.923ZM74.417,477.953,34.049,359.878,88.42,341.3c5.857,17.132,34.323,100.393,40.368,118.076Zm399.6-145.289-99.032,70.442a140.7,140.7,0,0,1-82.038,26.21c-.154,0-.31,0-.464.007L151.707,433.68l-27.83-81.4,16.915-10.344.011-.008a15.151,15.151,0,0,0,5.625-6.182,81.469,81.469,0,0,1,132.374-20.1,15.25,15.25,0,0,0,10.9,4.7h46.884a16.987,16.987,0,0,1,0,33.974H251.962a15,15,0,0,0,0,30h84.629a47.038,47.038,0,0,0,45.674-35.886l69.621-46.577c.084-.056.167-.113.25-.171a18.964,18.964,0,1,1,21.878,30.982Z" fill="#e44499"/>
    </g>
  </g>
</svg>
