<svg xmlns="http://www.w3.org/2000/svg" width="96" height="93.804" viewBox="0 0 96 93.804">
  <g id="social-link-old" transform="translate(0 -0.001)">
    <path id="Path_1" data-name="Path 1" d="M91.944,16.18,79.669,4.033a14.123,14.123,0,0,0-19.7-.06L46.345,17.26a13.5,13.5,0,0,0-.06,19.338l7.785-7.477a7,7,0,0,1,2.11-7l8.667-8.45a7.062,7.062,0,0,1,9.859.03l7.372,7.285a6.755,6.755,0,0,1-.03,9.672l-8.668,8.46a8.063,8.063,0,0,1-7.179,2.14l-7.625,7.484a14.112,14.112,0,0,0,19.7.06L91.884,35.526a13.493,13.493,0,0,0,.06-19.346Z" fill="#e44499"/>
    <path id="Path_2" data-name="Path 2" d="M42.07,64.81a7.844,7.844,0,0,1-2.264,7.167l-8.1,7.908a7.185,7.185,0,0,1-10.03-.036l-7.52-7.408a6.893,6.893,0,0,1,.036-9.859l8.1-7.908A7.422,7.422,0,0,1,29.583,52.6l7.809-7.736a14.393,14.393,0,0,0-20.073-.06L4.185,57.628a13.769,13.769,0,0,0-.06,19.714L16.625,89.7a14.4,14.4,0,0,0,20.072.054L49.836,76.936a13.775,13.775,0,0,0,.06-19.708Z" fill="#e44499"/>
    <path id="Path_3" data-name="Path 3" d="M33.532,61.276a4.76,4.76,0,0,0,6.725.024L62.7,38.976a4.749,4.749,0,1,0-6.689-6.743L33.562,54.551a4.755,4.755,0,0,0-.03,6.725Z" fill="#e44499"/>
  </g>
</svg>
