<svg xmlns="http://www.w3.org/2000/svg" width="31.989" height="32.001" viewBox="0 0 31.989 32.001">
  <g id="stories" transform="translate(-0.016 0.001)">
    <path id="Path_1" data-name="Path 1" d="M25.47,5.53a1.06,1.06,0,0,1-.69-.25,12.49,12.49,0,0,0-2.25-1.5,1.07,1.07,0,0,1,1-1.89,14.62,14.62,0,0,1,2.64,1.76,1.07,1.07,0,0,1-.69,1.88Z" fill="#e44499"/>
    <path id="Path_2" data-name="Path 2" d="M16,32A16,16,0,1,1,20.1.53a1.07,1.07,0,0,1-.55,2.06A13.87,13.87,0,1,0,29.87,16,1.07,1.07,0,1,1,32,16,16,16,0,0,1,16,32Z" fill="#e44499"/>
    <path id="Path_3" data-name="Path 3" d="M30.5,13.47a1.07,1.07,0,0,1-1-.81q-.16-.65-.38-1.27a1.07,1.07,0,1,1,2-.71c.17.48.32,1,.44,1.47a1.07,1.07,0,0,1-.78,1.29A1,1,0,0,1,30.5,13.47Z" fill="#e44499"/>
    <path id="Path_4" data-name="Path 4" d="M28.7,9.21a1.07,1.07,0,0,1-.91-.5,14.13,14.13,0,0,0-1-1.42,1.07,1.07,0,1,1,1.66-1.34,16.06,16.06,0,0,1,1.16,1.64,1.07,1.07,0,0,1-.91,1.63Z" fill="#e44499"/>
    <path id="Path_5" data-name="Path 5" d="M16,27.73a11.66,11.66,0,0,1-6.35-1.87,1.07,1.07,0,0,1,1.16-1.79A9.6,9.6,0,0,0,24.08,10.81a9.78,9.78,0,0,0-2.89-2.88A9.6,9.6,0,0,0,7.93,21.19a1.07,1.07,0,1,1-1.79,1.16A11.73,11.73,0,0,1,22.35,6.13a11.92,11.92,0,0,1,3.52,3.51A11.73,11.73,0,0,1,16,27.73Z" fill="#e44499"/>
    <path id="Path_6" data-name="Path 6" d="M19.2,14.93H17.07V12.8a1.07,1.07,0,0,0-2.13,0v2.13H12.8a1.07,1.07,0,0,0,0,2.13h2.13V19.2a1.07,1.07,0,0,0,2.13,0V17.06H19.2a1.07,1.07,0,0,0,0-2.13Z" fill="#e44499"/>
  </g>
</svg>
