<svg xmlns="http://www.w3.org/2000/svg" xmlns:xlink="http://www.w3.org/1999/xlink" width="20" height="20" viewBox="0 0 20 20">
  <defs>
    <clipPath id="clip-path">
      <rect id="Rectangle_1" data-name="Rectangle 1" width="20" height="20" fill="#e44499"/>
    </clipPath>
  </defs>
  <g id="subscription-audio" clip-path="url(#clip-path)">
    <path id="Path_1" data-name="Path 1" d="M19.455,14.678l-2.791-2.791a1.856,1.856,0,0,0-3.09.7,1.9,1.9,0,0,1-2.193,1.2A8.607,8.607,0,0,1,6.2,8.6,1.807,1.807,0,0,1,7.394,6.4a1.856,1.856,0,0,0,.7-3.09L5.3.523a1.991,1.991,0,0,0-2.691,0L.715,2.417C-1.179,4.411.915,9.694,5.6,14.379s9.968,6.878,11.962,4.884l1.894-1.894A1.991,1.991,0,0,0,19.455,14.678Z" fill="#e44499"/>
  </g>
</svg>
