<svg id="subscription-plans" xmlns="http://www.w3.org/2000/svg" width="96" height="105.6" viewBox="0 0 96 105.6">
  <path id="Path_1" data-name="Path 1" d="M21.815,64.809a2.807,2.807,0,0,0,1.947,2.8v-5.23a2.288,2.288,0,0,0-1.947,2.43Z" fill="#B8113C"/>
  <path id="Path_2" data-name="Path 2" d="M91.2,38.4H4.8A4.8,4.8,0,0,0,0,43.2v57.6a4.8,4.8,0,0,0,4.8,4.8H91.2a4.8,4.8,0,0,0,4.8-4.8V43.2A4.8,4.8,0,0,0,91.2,38.4ZM27.96,86.206v1.086a2.12,2.12,0,0,1-2.137,1.986,2.068,2.068,0,0,1-2.137-1.986v-.835c-4.585-.478-7.446-3.272-7.446-5.23a2.681,2.681,0,0,1,2.4-2.658,2.579,2.579,0,0,1,1.841,1.062,5.481,5.481,0,0,0,3.208,1.859V72.972c-3.168-1.134-6.777-2.728-6.777-7.943,0-4.164,2.451-6.866,6.777-7.549v-.713a2.069,2.069,0,0,1,2.137-1.989,2.121,2.121,0,0,1,2.137,1.989v.607c2.435.3,5.66,1.262,5.66,3.446a2.613,2.613,0,0,1-2.36,2.659A3.234,3.234,0,0,1,29.788,63a7.718,7.718,0,0,0-1.828-.714v6.877c2.583,1,6.331,2.946,6.331,8.674C34.291,82.274,32,85.27,27.96,86.206ZM72,86.4H46.4a4.8,4.8,0,1,1,0-9.6H72a4.8,4.8,0,0,1,0,9.6Zm0-19.2H46.4a4.8,4.8,0,0,1,0-9.6H72a4.8,4.8,0,1,1,0,9.6Z" fill="#B8113C"/>
  <path id="Path_3" data-name="Path 3" d="M27.849,74.785v6.308a3.122,3.122,0,0,0,1.5-3.03,3.644,3.644,0,0,0-1.5-3.278Z" fill="#B8113C"/>
  <path id="Path_4" data-name="Path 4" d="M91.2,0H14.4a4.8,4.8,0,0,0-3.394,1.406l-9.6,9.6a4.8,4.8,0,0,0,0,6.788l9.6,9.6A4.8,4.8,0,0,0,14.4,28.8H91.2A4.8,4.8,0,0,0,96,24V4.8A4.8,4.8,0,0,0,91.2,0Z" fill="#B8113C"/>
</svg>
