<svg id="subscription-video" xmlns="http://www.w3.org/2000/svg" width="20" height="11.75" viewBox="0 0 20 11.75">
  <path id="Path_1" data-name="Path 1" d="M11.313,0H2.188A2.195,2.195,0,0,0,0,2.188V9.562A2.195,2.195,0,0,0,2.188,11.75h9.125A2.195,2.195,0,0,0,13.5,9.562V2.188A2.181,2.181,0,0,0,11.313,0Z" fill="#B8113C"/>
  <path id="Path_2" data-name="Path 2" d="M18.381,1.2a1.115,1.115,0,0,0-.372.153L14.6,3.326V8.4l3.436,1.969a1.3,1.3,0,0,0,1.794-.481A1.337,1.337,0,0,0,20,9.234V2.472A1.317,1.317,0,0,0,18.381,1.2Z" fill="#B8113C"/>
</svg>
