<svg xmlns="http://www.w3.org/2000/svg" width="432" height="512" viewBox="0 0 432 512">
  <g id="two-factor-auth" transform="translate(-40 0)">
    <g id="Group_1" data-name="Group 1">
      <path id="Path_1" data-name="Path 1" d="M459.669,82.906l-196-81.377a20,20,0,0,0-15.338,0l-196,81.377A20,20,0,0,0,40,101.377V200.3A334.933,334.933,0,0,0,248.442,510.517a20,20,0,0,0,15.116,0A334.934,334.934,0,0,0,472,200.3V101.377a20,20,0,0,0-12.331-18.471ZM432,200.3A295.015,295.015,0,0,1,255.961,470.293,295.009,295.009,0,0,1,80,200.3V114.729L256,41.655l176,73.074ZM233.894,267.716l85.964-85.963a20,20,0,1,1,28.283,28.284l-100.105,100.1a20,20,0,0,1-28.284,0l-55.894-55.894a20,20,0,1,1,28.284-28.284Z" fill="#e44499"/>
    </g>
  </g>
</svg>
