<svg id="view-featured-icon" xmlns="http://www.w3.org/2000/svg" width="20" height="19.998" viewBox="0 0 20 19.998">
  <path id="Path_1" data-name="Path 1" d="M18.555,17H16a2.317,2.317,0,0,0-4.449,0H.667a.667.667,0,0,0,0,1.333H11.553a2.317,2.317,0,0,0,4.447,0h2.553a.667.667,0,1,0,0-1.333Zm-4.777,1.667a1,1,0,1,1,.707-.293,1,1,0,0,1-.707.293Z" fill="#e44499"/>
  <path id="Path_2" data-name="Path 2" d="M17.907,0H2.093A2.1,2.1,0,0,0,0,2.093v10.48a2.1,2.1,0,0,0,2.093,2.093H17.907A2.1,2.1,0,0,0,20,12.573V2.093A2.1,2.1,0,0,0,17.907,0Zm.76,12.573a.761.761,0,0,1-.76.76H2.093a.761.761,0,0,1-.76-.76V2.093a.761.761,0,0,1,.76-.76H17.907a.761.761,0,0,1,.76.76Z" fill="#e44499"/>
  <path id="Path_3" data-name="Path 3" d="M13.686,6.767,8.353,3.433A.667.667,0,0,0,7.333,4v6.667a.667.667,0,0,0,1.02.565L13.686,7.9a.667.667,0,0,0,0-1.133Zm-5.02,2.7V5.2l3.409,2.133Z" fill="#e44499"/>
</svg>
