<svg xmlns="http://www.w3.org/2000/svg" width="962.606" height="543.619" viewBox="0 0 962.606 543.619">
  <g id="become-a-content-creator" transform="translate(-0.032 -0.003)">
    <path id="Path_1" data-name="Path 1" d="M940.042,523.326a6.126,6.126,0,0,0,4.134-8.435l15.9-14.87-11-2.643L935.664,511.9a6.159,6.159,0,0,0,4.378,11.422Z" transform="translate(-118.662 -178.189)" fill="#ffb6b6"/>
    <path id="Path_2" data-name="Path 2" d="M948.255,511.348l-7.415-10.455,27.852-28.806,6.467-45.407a15.445,15.445,0,0,1,20.223-12.458h0a15.461,15.461,0,0,1,9.7,19.569l-16.5,48.954Z" transform="translate(-118.662 -178.189)" fill="#e4e4e4"/>
    <path id="Path_3" data-name="Path 3" d="M881.887,526.632h-8.231l-3.916-31.75h12.149Z" fill="#ffb6b6"/>
    <path id="Path_4" data-name="Path 4" d="M1004.98,720.451h-5.843l-1.043-5.514-2.67,5.514H979.933a3.482,3.482,0,0,1-1.979-6.348l12.371-8.544v-5.575l13.012.777Z" transform="translate(-118.662 -178.189)" fill="#2f2e41"/>
    <path id="Path_5" data-name="Path 5" d="M932.67,518.256l-7.23,3.934-18.615-26.016,10.671-5.807Z" fill="#ffb6b6"/>
    <path id="Path_6" data-name="Path 6" d="M1062.69,708.057l-5.13,2.792-3.552-4.345.29,6.12-13.607,7.4a3.482,3.482,0,0,1-4.772-4.63l6.783-13.417-2.665-4.9,11.8-5.537Z" transform="translate(-118.662 -178.189)" fill="#2f2e41"/>
    <path id="Path_7" data-name="Path 7" d="M1004.02,693.516H987.007V632.941l-10.531-39.492a226.076,226.076,0,0,1-5.915-86.689l.015-.119.091-.077c.27-.227,27.224-22.514,44.273-5.465,11.492,11.492.694,52.815.089,55.083v71.236Z" transform="translate(-118.662 -178.189)" fill="#2f2e41"/>
    <path id="Path_8" data-name="Path 8" d="M1003.98,407.9l-.09-.09-21.69.33-11.58,27.18c-10.72,16.65-.47,26.12.25,27.62l-2.05,20.43-1.32,13.18-2.12,21.22,49.71-16.24-5.53-22.15,6.39-31.95a43.7,43.7,0,0,0-11.97-39.53Z" transform="translate(-118.662 -178.189)" fill="#e4e4e4"/>
    <path id="Path_9" data-name="Path 9" d="M875.207,455.064l34.946,49.154,13.4-9.531-29.185-59.976Z" fill="#2f2e41"/>
    <circle id="Ellipse_1" data-name="Ellipse 1" cx="20.024" cy="20.024" r="20.024" transform="translate(852.328 184.376)" fill="#ffb6b6"/>
    <path id="Path_10" data-name="Path 10" d="M891.664,281.866l-21.84,25.2-20.99,11.29,1.32-13.18,12.36-6.94Z" opacity="0.1"/>
    <path id="Path_11" data-name="Path 11" d="M976.989,420.115l-1.879-8.233a21.161,21.161,0,0,1,2.92-16.179,14.709,14.709,0,0,0,.452-15.007,11.542,11.542,0,0,0-10.056-6.335h-.5v-.5c0-7.18,5.6-12.248,10.8-12.539.188-1.494,1.247-2.833,3.091-3.9,4.4-2.54,12.921-3.09,19.356.294a6.1,6.1,0,0,1,3.766-4.992,6.018,6.018,0,0,1,3.289-.189,7.447,7.447,0,0,1,2.092-4.8c1.776-1.722,4.626-2.376,7.82-1.8,4.386.8,8.708,3.59,12.172,7.868,3.071,3.793,5.2,8.263,7.265,12.586,2.027,4.251,4.124,8.647,7.163,12.37,3.329,4.078,7.454,6.72,11.615,7.439,4.853.84,9.833-1.158,12.113-4.857l.453-.734.412.758c2.561,4.7,1.513,11.17-2.491,15.373-3.591,3.769-9.226,5.689-15.069,5.131-4.947-.47-9.937-2.573-14.831-6.248-4.861-3.65-7.868-7.686-8.936-11.994a32.5,32.5,0,0,1-.642-4.043c-.331-2.849-.643-5.54-2.4-7.52-1.575-1.781-4.012-2.552-6.173-3.135l-.424-.114a5.542,5.542,0,0,1-2.362,4.025,4,4,0,0,1-1.291.5c2.506,10.086,1.476,17.807-3.065,22.955-7.665,8.691-22.392,6.9-23.016,6.824l-.415-.054-.021-.417a23.244,23.244,0,0,0-.41-3.336c-2.109,5.082-9.206,18.522-10.155,19.878Z" transform="translate(-118.662 -178.189)" fill="#2f2e41"/>
    <path id="Path_12" data-name="Path 12" d="M269.844,452.448a6.618,6.618,0,0,1-10.136.478L238.142,462.3l2.1-12.039L260.4,443.2a6.653,6.653,0,0,1,9.444,9.243Z" transform="translate(-118.662 -178.189)" fill="#a0616a"/>
    <path id="Path_13" data-name="Path 13" d="M255.453,456.207l-50.089,22.312-.107-.038-57.089-20.344a18.8,18.8,0,0,1-8.433-24.393h0a18.784,18.784,0,0,1,26.807-8.35l42.485,25.593,41.2-5.339Z" transform="translate(-118.662 -178.189)" fill="#3f3d56"/>
    <path id="Path_14" data-name="Path 14" d="M276.438,309.3c-18.936-41.884-18.237-94.975,11.15-130.319a211.783,211.783,0,0,0,75.8,124.082c15.13,11.947,33.2,23.659,37.335,42.488,2.572,11.716-1.073,24.109-7.376,34.314s-15.088,18.6-23.773,26.875l-.974,2.831C330.809,383.411,295.374,351.188,276.438,309.3Z" transform="translate(-118.662 -178.189)" fill="#f0f0f0"/>
    <path id="Path_15" data-name="Path 15" d="M288.406,179.5c-6.763,37.034-1.739,76.468,14.7,110.4,3.554,7.336,7.8,14.468,13.479,20.367a44.709,44.709,0,0,0,20.3,11.9c7.147,2.087,14.7,3.394,21.216,7.182,6.868,3.993,11.13,10.692,12.79,18.375,2.032,9.4.564,18.97-1.2,28.278-1.954,10.335-4.148,21.039-1.316,31.428.343,1.259-1.63,1.718-1.973.461-4.927-18.076,4.652-35.9,3.313-54.077-.625-8.48-3.809-16.823-11.08-21.736-6.358-4.3-14.146-5.651-21.4-7.7-7.618-2.153-14.46-5.442-20.281-10.9C311,307.9,306.467,300.916,302.741,293.7a175.619,175.619,0,0,1-16.873-52.231,184.228,184.228,0,0,1,.6-62.572c.234-1.279,2.168-.673,1.936.6Z" transform="translate(-118.662 -178.189)" fill="#fff"/>
    <path id="Path_16" data-name="Path 16" d="M297.181,279.148a27.158,27.158,0,0,1-32.472-13.5c-.589-1.163,1.19-2.133,1.78-.969a25.148,25.148,0,0,0,30.231,12.5c1.24-.4,1.693,1.571.461,1.973Z" transform="translate(-118.662 -178.189)" fill="#fff"/>
    <path id="Path_17" data-name="Path 17" d="M333.121,321.582a52.346,52.346,0,0,0,4.234-37.912c-.339-1.26,1.635-1.719,1.973-.461a54.447,54.447,0,0,1-4.486,39.442C334.231,323.8,332.513,322.73,333.121,321.582Z" transform="translate(-118.662 -178.189)" fill="#fff"/>
    <path id="Path_18" data-name="Path 18" d="M285.106,221.389a15.373,15.373,0,0,0,12.047-8.225c.6-1.161,2.313-.085,1.721,1.069a17.227,17.227,0,0,1-13.307,9.128,1.047,1.047,0,0,1-1.217-.756,1.018,1.018,0,0,1,.756-1.217Z" transform="translate(-118.662 -178.189)" fill="#fff"/>
    <path id="Path_19" data-name="Path 19" d="M443.219,179.4c-.352.736-.7,1.472-1.047,2.222a202.463,202.463,0,0,0-11.557,30.74c-.246.811-.483,1.637-.7,2.454a213.432,213.432,0,0,0-6.483,78.311,207.261,207.261,0,0,0,5.623,30.986c3.671,14.047,8.768,28.985,7.618,43.011a35.564,35.564,0,0,1-.582,4.362L372.131,410.55c-.19.016-.372.047-.562.063l-2.482,1.676c-.174-.515-.343-1.053-.516-1.568-.1-.3-.19-.605-.292-.9-.063-.2-.126-.4-.2-.582-.021-.067-.042-.135-.055-.187-.069-.178-.114-.351-.174-.515q-1.43-4.506-2.8-9.048c-.009-.015-.009-.015,0-.038-6.909-23.088-11.951-46.956-13.21-70.83-.038-.718-.085-1.451-.093-2.187a197.773,197.773,0,0,1,1.115-32.257,174.865,174.865,0,0,1,2.994-17.436A145.4,145.4,0,0,1,372.7,234.51c15.541-26.121,39.263-46.982,68.3-54.557C441.738,179.759,442.467,179.574,443.219,179.4Z" transform="translate(-118.662 -178.189)" fill="#f0f0f0"/>
    <path id="Path_20" data-name="Path 20" d="M443.571,180.295c-27.7,25.5-47.428,60.009-54.73,97-1.579,8-2.484,16.246-1.5,24.378a44.708,44.708,0,0,0,9.042,21.723c4.45,5.97,9.694,11.56,12.616,18.508,3.08,7.323,2.449,15.238-.85,22.372-4.037,8.729-10.97,15.486-17.98,21.858-7.783,7.075-15.979,14.3-19.973,24.3-.484,1.212-2.336.39-1.853-.82,6.949-17.4,25.331-25.866,35.2-41.182,4.607-7.147,7.087-15.725,4.24-24.026-2.49-7.259-7.892-13.028-12.451-19.034-4.786-6.306-8.269-13.051-9.633-20.911-1.4-8.041-.81-16.343.557-24.346a175.618,175.618,0,0,1,17.975-51.862,184.229,184.229,0,0,1,38.15-49.6c.957-.881,2.136.768,1.186,1.643Z" transform="translate(-118.662 -178.189)" fill="#fff"/>
    <path id="Path_21" data-name="Path 21" d="M390.58,265.144a27.158,27.158,0,0,1-17.8-30.331c.23-1.283,2.234-.987,2,.3a25.148,25.148,0,0,0,16.62,28.178c1.233.424.406,2.274-.82,1.853Z" transform="translate(-118.662 -178.189)" fill="#fff"/>
    <path id="Path_22" data-name="Path 22" d="M393.728,320.664a52.346,52.346,0,0,0,26.207-27.721c.488-1.21,2.34-.388,1.853.82a54.447,54.447,0,0,1-27.329,28.791c-1.183.554-1.907-1.339-.73-1.89Z" transform="translate(-118.662 -178.189)" fill="#fff"/>
    <path id="Path_23" data-name="Path 23" d="M415.714,211.757a15.373,15.373,0,0,0,14.571.686c1.175-.568,1.9,1.325.73,1.89a17.227,17.227,0,0,1-16.121-.723,1.047,1.047,0,0,1-.516-1.336,1.018,1.018,0,0,1,1.336-.516Z" transform="translate(-118.662 -178.189)" fill="#fff"/>
    <path id="Path_24" data-name="Path 24" d="M688.438,331.3c-18.936-41.884-18.237-94.975,11.15-130.319a211.784,211.784,0,0,0,75.8,124.082c15.13,11.947,33.2,23.659,37.335,42.488,2.572,11.716-1.073,24.109-7.376,34.314s-15.088,18.6-23.773,26.875l-.974,2.831C742.809,405.411,707.374,373.188,688.438,331.3Z" transform="translate(-118.662 -178.189)" fill="#f0f0f0"/>
    <path id="Path_25" data-name="Path 25" d="M700.406,201.5c-6.763,37.034-1.739,76.468,14.7,110.4,3.554,7.336,7.8,14.468,13.479,20.367a44.708,44.708,0,0,0,20.3,11.9c7.148,2.087,14.7,3.394,21.216,7.182,6.868,3.993,11.13,10.692,12.791,18.375,2.031,9.4.564,18.97-1.2,28.278-1.954,10.335-4.148,21.039-1.316,31.428.343,1.259-1.63,1.718-1.973.461-4.927-18.076,4.652-35.9,3.313-54.077-.625-8.48-3.809-16.823-11.08-21.736-6.358-4.3-14.146-5.651-21.4-7.7-7.618-2.153-14.46-5.442-20.281-10.9C723,329.9,718.468,322.916,714.742,315.7a175.62,175.62,0,0,1-16.873-52.231,184.228,184.228,0,0,1,.6-62.572c.234-1.279,2.168-.673,1.936.6Z" transform="translate(-118.662 -178.189)" fill="#fff"/>
    <path id="Path_26" data-name="Path 26" d="M709.181,301.148a27.158,27.158,0,0,1-32.472-13.5c-.589-1.163,1.19-2.133,1.78-.969a25.148,25.148,0,0,0,30.231,12.5c1.24-.4,1.693,1.571.461,1.973Z" transform="translate(-118.662 -178.189)" fill="#fff"/>
    <path id="Path_27" data-name="Path 27" d="M745.121,343.582a52.346,52.346,0,0,0,4.234-37.912c-.339-1.26,1.635-1.719,1.973-.461a54.447,54.447,0,0,1-4.486,39.442C746.231,345.8,744.513,344.73,745.121,343.582Z" transform="translate(-118.662 -178.189)" fill="#fff"/>
    <path id="Path_28" data-name="Path 28" d="M697.106,243.389a15.373,15.373,0,0,0,12.047-8.225c.6-1.161,2.313-.085,1.721,1.069a17.227,17.227,0,0,1-13.307,9.129,1.047,1.047,0,0,1-1.217-.756,1.018,1.018,0,0,1,.756-1.217Z" transform="translate(-118.662 -178.189)" fill="#fff"/>
    <path id="Path_29" data-name="Path 29" d="M855.219,201.4c-.352.736-.7,1.472-1.047,2.222a202.47,202.47,0,0,0-11.557,30.74c-.246.811-.483,1.637-.705,2.454a213.427,213.427,0,0,0-6.483,78.311,207.284,207.284,0,0,0,5.623,30.986c3.671,14.047,8.768,28.985,7.618,43.011a35.568,35.568,0,0,1-.581,4.362L784.132,432.55c-.19.016-.372.047-.562.063l-2.482,1.676c-.174-.515-.343-1.053-.516-1.568-.1-.3-.19-.605-.292-.9-.063-.2-.126-.4-.2-.582-.021-.067-.042-.135-.055-.187-.069-.178-.114-.351-.174-.515q-1.43-4.506-2.8-9.048c-.009-.015-.009-.015,0-.038-6.909-23.088-11.951-46.956-13.21-70.83-.038-.718-.085-1.451-.093-2.187a197.774,197.774,0,0,1,1.115-32.257,174.845,174.845,0,0,1,2.994-17.436A145.4,145.4,0,0,1,784.7,256.51c15.541-26.122,39.263-46.982,68.3-54.557C853.738,201.759,854.467,201.574,855.219,201.4Z" transform="translate(-118.662 -178.189)" fill="#f0f0f0"/>
    <path id="Path_30" data-name="Path 30" d="M855.571,202.295c-27.7,25.5-47.428,60.009-54.73,97-1.579,8-2.484,16.246-1.5,24.378a44.711,44.711,0,0,0,9.042,21.723c4.45,5.97,9.694,11.56,12.616,18.508,3.08,7.323,2.449,15.238-.851,22.372-4.037,8.729-10.97,15.486-17.98,21.858-7.783,7.075-15.979,14.3-19.973,24.3-.484,1.212-2.336.39-1.853-.82,6.949-17.4,25.331-25.866,35.2-41.182,4.607-7.147,7.087-15.725,4.24-24.026-2.49-7.259-7.892-13.028-12.451-19.034-4.786-6.306-8.269-13.051-9.633-20.911-1.4-8.041-.81-16.343.557-24.346a175.617,175.617,0,0,1,17.975-51.862,184.227,184.227,0,0,1,38.15-49.6c.957-.881,2.136.768,1.186,1.643Z" transform="translate(-118.662 -178.189)" fill="#fff"/>
    <path id="Path_31" data-name="Path 31" d="M802.58,287.144a27.158,27.158,0,0,1-17.8-30.332c.229-1.283,2.234-.987,2,.3a25.148,25.148,0,0,0,16.62,28.179c1.233.424.406,2.274-.82,1.853Z" transform="translate(-118.662 -178.189)" fill="#fff"/>
    <path id="Path_32" data-name="Path 32" d="M805.728,342.664a52.345,52.345,0,0,0,26.207-27.721c.488-1.21,2.34-.389,1.853.82a54.447,54.447,0,0,1-27.329,28.791c-1.183.553-1.907-1.339-.73-1.89Z" transform="translate(-118.662 -178.189)" fill="#fff"/>
    <path id="Path_33" data-name="Path 33" d="M827.714,233.757a15.373,15.373,0,0,0,14.571.686c1.175-.568,1.9,1.325.73,1.89a17.227,17.227,0,0,1-16.121-.723,1.047,1.047,0,0,1-.516-1.336,1.018,1.018,0,0,1,1.336-.517Z" transform="translate(-118.662 -178.189)" fill="#fff"/>
    <path id="Path_34" data-name="Path 34" d="M305.468,606.529H792.649V324.481a7.98,7.98,0,0,0-7.971-7.971H313.439a7.98,7.98,0,0,0-7.971,7.971Z" transform="translate(-118.662 -178.189)" fill="#cacaca"/>
    <rect id="Rectangle_1" data-name="Rectangle 1" width="457.077" height="259.491" transform="translate(201.858 149.345)" fill="#fff"/>
    <path id="Path_35" data-name="Path 35" d="M305.044,598.9v34.8a10.987,10.987,0,0,0,10.987,10.987H495.846v68.689h-2.389a1.427,1.427,0,0,0-1.427,1.427v4.778a1.427,1.427,0,0,0,1.427,1.427H605.084a1.427,1.427,0,0,0,1.427-1.427V714.8a1.427,1.427,0,0,0-1.427-1.427H602.7V644.69H782.51A10.987,10.987,0,0,0,793.5,633.7V598.9Z" transform="translate(-118.662 -178.189)" fill="#3f3d56"/>
    <path id="Path_36" data-name="Path 36" d="M462.649,455.862H351.262a2.931,2.931,0,0,1-2.928-2.928v-45.2a2.931,2.931,0,0,1,2.928-2.928H462.648a2.931,2.931,0,0,1,2.928,2.928v45.2a2.931,2.931,0,0,1-2.927,2.927Z" transform="translate(-118.662 -178.189)" fill="#B8113C"/>
    <path id="Path_37" data-name="Path 37" d="M452.043,477.543H361.868a3.514,3.514,0,0,1,0-7.027h90.174C456.573,470.453,456.619,477.607,452.043,477.543Z" transform="translate(-118.662 -178.189)" fill="#e4e4e4"/>
    <path id="Path_38" data-name="Path 38" d="M452.043,493.645H361.868a3.514,3.514,0,0,1,0-7.027h90.174C456.573,486.556,456.619,493.709,452.043,493.645Z" transform="translate(-118.662 -178.189)" fill="#e4e4e4"/>
    <path id="Path_39" data-name="Path 39" d="M452.043,509.748H361.868a3.514,3.514,0,0,1,0-7.027h90.174C456.573,502.658,456.619,509.812,452.043,509.748Z" transform="translate(-118.662 -178.189)" fill="#e4e4e4"/>
    <path id="Path_40" data-name="Path 40" d="M604.752,455.862H493.365a2.931,2.931,0,0,1-2.928-2.928v-45.2a2.931,2.931,0,0,1,2.928-2.928H604.751a2.931,2.931,0,0,1,2.928,2.928v45.2a2.931,2.931,0,0,1-2.927,2.927Z" transform="translate(-118.662 -178.189)" fill="#B8113C"/>
    <path id="Path_41" data-name="Path 41" d="M594.146,477.543H503.971a3.514,3.514,0,0,1,0-7.027h90.174C598.676,470.453,598.722,477.607,594.146,477.543Z" transform="translate(-118.662 -178.189)" fill="#e4e4e4"/>
    <path id="Path_42" data-name="Path 42" d="M594.146,493.645H503.971a3.514,3.514,0,0,1,0-7.027h90.174C598.676,486.556,598.722,493.709,594.146,493.645Z" transform="translate(-118.662 -178.189)" fill="#e4e4e4"/>
    <path id="Path_43" data-name="Path 43" d="M594.146,509.748H503.971a3.514,3.514,0,1,1,0-7.027h90.174C598.676,502.658,598.722,509.812,594.146,509.748Z" transform="translate(-118.662 -178.189)" fill="#e4e4e4"/>
    <path id="Path_44" data-name="Path 44" d="M746.854,455.862H635.468a2.931,2.931,0,0,1-2.928-2.928v-45.2a2.931,2.931,0,0,1,2.928-2.928H746.854a2.931,2.931,0,0,1,2.928,2.928v45.2a2.931,2.931,0,0,1-2.928,2.927Z" transform="translate(-118.662 -178.189)" fill="#B8113C"/>
    <path id="Path_45" data-name="Path 45" d="M736.248,477.543H646.074a3.514,3.514,0,0,1,0-7.027h90.174C740.779,470.453,740.825,477.607,736.248,477.543Z" transform="translate(-118.662 -178.189)" fill="#e4e4e4"/>
    <path id="Path_46" data-name="Path 46" d="M736.248,493.645H646.074a3.514,3.514,0,0,1,0-7.027h90.174C740.779,486.556,740.825,493.709,736.248,493.645Z" transform="translate(-118.662 -178.189)" fill="#e4e4e4"/>
    <path id="Path_47" data-name="Path 47" d="M736.248,509.748H646.074a3.514,3.514,0,0,1,0-7.027h90.174C740.779,502.658,740.825,509.812,736.248,509.748Z" transform="translate(-118.662 -178.189)" fill="#e4e4e4"/>
    <path id="Path_48" data-name="Path 48" d="M937.189,405.421l.3,56.649,1.242-.07,1.18,20.973-2.3.126.064,12.6,1.845-.036.374,20.991-2.1.038,1,184.856A18.274,18.274,0,0,1,920.636,719.9l-204.2,1.106a18.272,18.272,0,0,1-18.355-18.156l-1.6-296.127a18.274,18.274,0,0,1,18.156-18.356l204.2-1.107A18.28,18.28,0,0,1,937.189,405.421Z" transform="translate(-118.662 -178.189)" fill="#3f3d56"/>
    <path id="Path_49" data-name="Path 49" d="M920.932,708.258l-204.918,1.111a5.634,5.634,0,0,1-5.658-5.6l-1.617-298.1a5.634,5.634,0,0,1,5.6-5.658L919.257,398.9a5.634,5.634,0,0,1,5.658,5.6l1.617,298.1a5.634,5.634,0,0,1-5.6,5.658Z" transform="translate(-118.662 -178.189)" fill="#fff"/>
    <circle id="Ellipse_2" data-name="Ellipse 2" cx="1.553" cy="1.553" r="1.553" transform="translate(695.771 213.668)" fill="#fff"/>
    <path id="Path_50" data-name="Path 50" d="M876.934,482.811h-118.6a3.121,3.121,0,0,1-3.117-3.117V431.571a3.121,3.121,0,0,1,3.117-3.117h118.6a3.121,3.121,0,0,1,3.117,3.117v48.123a3.121,3.121,0,0,1-3.117,3.117Z" transform="translate(-118.662 -178.189)" fill="#B8113C"/>
    <path id="Path_51" data-name="Path 51" d="M865.641,505.9H769.627a3.741,3.741,0,1,1,0-7.482h96.014C870.466,498.347,870.514,505.964,865.641,505.9Z" transform="translate(-118.662 -178.189)" fill="#e4e4e4"/>
    <path id="Path_52" data-name="Path 52" d="M865.641,523.042H769.627a3.741,3.741,0,0,1,0-7.482h96.014C870.466,515.493,870.514,523.11,865.641,523.042Z" transform="translate(-118.662 -178.189)" fill="#e4e4e4"/>
    <path id="Path_53" data-name="Path 53" d="M865.641,540.187H769.627a3.741,3.741,0,0,1,0-7.482h96.014C870.466,532.638,870.514,540.255,865.641,540.187Z" transform="translate(-118.662 -178.189)" fill="#e4e4e4"/>
    <path id="Path_54" data-name="Path 54" d="M876.934,622.446h-118.6a3.121,3.121,0,0,1-3.117-3.117V571.206a3.121,3.121,0,0,1,3.117-3.117h118.6a3.121,3.121,0,0,1,3.117,3.117v48.123a3.121,3.121,0,0,1-3.117,3.117Z" transform="translate(-118.662 -178.189)" fill="#B8113C"/>
    <path id="Path_55" data-name="Path 55" d="M865.641,645.531H769.627a3.741,3.741,0,1,1,0-7.482h96.014C870.466,637.982,870.514,645.6,865.641,645.531Z" transform="translate(-118.662 -178.189)" fill="#e4e4e4"/>
    <path id="Path_56" data-name="Path 56" d="M865.641,662.676H769.627a3.741,3.741,0,0,1,0-7.482h96.014C870.466,655.127,870.514,662.744,865.641,662.676Z" transform="translate(-118.662 -178.189)" fill="#e4e4e4"/>
    <path id="Path_57" data-name="Path 57" d="M865.641,679.822H769.627a3.741,3.741,0,0,1,0-7.482h96.014C870.466,672.273,870.514,679.89,865.641,679.822Z" transform="translate(-118.662 -178.189)" fill="#e4e4e4"/>
    <path id="Path_58" data-name="Path 58" d="M349.98,706.464l-.394-163.254h1.488L351,513.18h-1.488l-.122-50.124a14.256,14.256,0,0,0-14.29-14.222l-106.086.256a14.256,14.256,0,0,0-14.222,14.29l.084,34.949-2.37.059.524,20.993,1.9-.047.011,4.632-2.019.05.524,20.993,1.547-.039.391,161.812A14.23,14.23,0,0,0,229.674,721l106.085-.256a14.273,14.273,0,0,0,14.222-14.29Z" transform="translate(-118.662 -178.189)" fill="#3f3d56"/>
    <path id="Path_59" data-name="Path 59" d="M226.429,714.477a6.845,6.845,0,0,1-4.531-6.42l-.6-245.973a6.831,6.831,0,0,1,6.814-6.847l22.572-.055-.28.689a7.874,7.874,0,0,0,7.316,10.83l50.093-.121a7.975,7.975,0,0,0,6.121-3.8,7.808,7.808,0,0,0,.544-7.063l-.283-.688,23.315-.057a6.84,6.84,0,0,1,6.848,6.815l.567,234.679a18.147,18.147,0,0,1-18.082,18.169l-98.1.237a6.842,6.842,0,0,1-2.316-.4Z" transform="translate(-118.662 -178.189)" fill="#fff"/>
    <circle id="Ellipse_3" data-name="Ellipse 3" cx="1.553" cy="1.553" r="1.553" transform="translate(144.86 279.717)" fill="#fff"/>
    <path id="Path_60" data-name="Path 60" d="M325.108,536.607h-80.6a2.121,2.121,0,0,1-2.118-2.118v-32.7a2.121,2.121,0,0,1,2.118-2.118h80.6a2.121,2.121,0,0,1,2.118,2.118v32.7a2.121,2.121,0,0,1-2.118,2.118Z" transform="translate(-118.662 -178.189)" fill="#B8113C"/>
    <path id="Path_61" data-name="Path 61" d="M317.433,552.295H252.184a2.542,2.542,0,1,1,0-5.084h65.249C320.712,547.165,320.744,552.341,317.433,552.295Z" transform="translate(-118.662 -178.189)" fill="#e4e4e4"/>
    <path id="Path_62" data-name="Path 62" d="M317.433,563.947H252.184a2.542,2.542,0,0,1,0-5.084h65.249C320.712,558.817,320.744,563.993,317.433,563.947Z" transform="translate(-118.662 -178.189)" fill="#e4e4e4"/>
    <path id="Path_63" data-name="Path 63" d="M317.433,575.6H252.184a2.542,2.542,0,0,1,0-5.084h65.249C320.712,570.468,320.744,575.645,317.433,575.6Z" transform="translate(-118.662 -178.189)" fill="#e4e4e4"/>
    <path id="Path_64" data-name="Path 64" d="M325.108,634.607h-80.6a2.121,2.121,0,0,1-2.118-2.118v-32.7a2.121,2.121,0,0,1,2.118-2.118h80.6a2.121,2.121,0,0,1,2.118,2.118v32.7a2.121,2.121,0,0,1-2.118,2.118Z" transform="translate(-118.662 -178.189)" fill="#B8113C"/>
    <path id="Path_65" data-name="Path 65" d="M317.433,650.295H252.184a2.542,2.542,0,1,1,0-5.084h65.249C320.712,645.165,320.744,650.341,317.433,650.295Z" transform="translate(-118.662 -178.189)" fill="#e4e4e4"/>
    <path id="Path_66" data-name="Path 66" d="M317.433,661.947H252.184a2.542,2.542,0,1,1,0-5.084h65.249C320.712,656.817,320.744,661.993,317.433,661.947Z" transform="translate(-118.662 -178.189)" fill="#e4e4e4"/>
    <path id="Path_67" data-name="Path 67" d="M317.433,673.6H252.184a2.542,2.542,0,1,1,0-5.084h65.249C320.712,668.468,320.744,673.645,317.433,673.6Z" transform="translate(-118.662 -178.189)" fill="#e4e4e4"/>
    <path id="Path_68" data-name="Path 68" d="M26.276,533.887h8.758l4.166-33.78H26.274Z" fill="#a0616a"/>
    <path id="Path_69" data-name="Path 69" d="M142.7,709.217h2.465l9.624-3.914,5.158,3.913h0a10.992,10.992,0,0,1,10.991,10.989v.359H142.7Z" transform="translate(-118.662 -178.189)" fill="#2f2e41"/>
    <path id="Path_70" data-name="Path 70" d="M60.214,528.368l8.542,1.929,11.5-32.032-12.608-2.847Z" fill="#a0616a"/>
    <path id="Path_71" data-name="Path 71" d="M177.327,703.276l2.4.543,10.25-1.7,4.169,4.953h0a10.992,10.992,0,0,1,8.3,13.142l-.079.348-27.545-6.219Z" transform="translate(-118.662 -178.189)" fill="#2f2e41"/>
    <path id="Path_72" data-name="Path 72" d="M133.846,505.566c-4.106,12.384-3.672,25.826.987,40.253l1.992,81.228s-2.967,53.268,6.608,72.012h13.886l6.875-76.877.863-51.6,29.771,43.533L175.866,697.8l17.091,1.528,30.77-90.82L185.763,520.4Z" transform="translate(-118.662 -178.189)" fill="#2f2e41"/>
    <path id="Path_73" data-name="Path 73" d="M188.239,523l-50.493-8.077a9.638,9.638,0,0,1-5.68-13.49l2.29-4.58-.889-48.121a35.646,35.646,0,0,1,17.307-31.181l4.924-2.944,2.488-6.319,22.946.56.067,8.288,8.218,13.1v.054l-.516,71.322-2.265,7.36,3.424,8.561Z" transform="translate(-118.662 -178.189)" fill="#3f3d56"/>
    <circle id="Ellipse_4" data-name="Ellipse 4" cx="20.849" cy="20.849" r="20.849" transform="translate(32.249 180.544)" fill="#a0616a"/>
    <path id="Path_74" data-name="Path 74" d="M150.05,384.127a27.58,27.58,0,0,1,.015-8.944,25.035,25.035,0,0,1,10.6-17.384,7.633,7.633,0,0,1,3.8-1.511,3.282,3.282,0,0,1,3.3,2,6.842,6.842,0,0,1,3.86-3.828,12.058,12.058,0,0,1,5.494-.74A20.08,20.08,0,0,1,193.871,365.7c.557,1.323,2.112-3.564,2.818-2.314a5.557,5.557,0,0,0,3.151,2.769c1.383.386,1.944,6.082,2.488,4.754a6.332,6.332,0,0,1-6.053,8.829,34.865,34.865,0,0,1-4.143-.793,10.329,10.329,0,0,0-11.309,7.731,13.685,13.685,0,0,0-1.8-4.005,4.632,4.632,0,0,0-3.716-2.042,5.2,5.2,0,0,0-3.576,2.056c-.918,1.078-1.607,2.335-2.532,3.407-2.713,3.145-6.383,10.48-10.249,9.945C155.9,395.606,150.9,387.7,150.05,384.127Z" transform="translate(-118.662 -178.189)" fill="#2f2e41"/>
    <path id="Path_75" data-name="Path 75" d="M249.482,507.783a6.618,6.618,0,0,1-9.075-4.54l-23.4-2.364,7.719-9.474,21.035,3.7a6.653,6.653,0,0,1,3.718,12.68Z" transform="translate(-118.662 -178.189)" fill="#a0616a"/>
    <path id="Path_76" data-name="Path 76" d="M235.091,504.024l-54.6-5.031-.075-.086-39.85-45.662a18.8,18.8,0,0,1,4.572-25.4h0a18.783,18.783,0,0,1,27.466,5.824l24.545,43.1L235.7,492.257Z" transform="translate(-118.662 -178.189)" fill="#3f3d56"/>
    <path id="Path_77" data-name="Path 77" d="M1080.15,721.811H119.85a1.191,1.191,0,0,1,0-2.381h960.294a1.191,1.191,0,0,1,0,2.381Z" transform="translate(-118.662 -178.189)" fill="#ccc"/>
    <path id="Path_78" data-name="Path 78" d="M913.146,508.986a6.126,6.126,0,0,0,6.692-6.592l19.924-8.771-9.505-6.134-17.463,9.27a6.159,6.159,0,0,0,.352,12.227Z" transform="translate(-118.662 -178.189)" fill="#ffb6b6"/>
    <path id="Path_79" data-name="Path 79" d="M924.861,500.4l-3.538-12.319,35.814-17.969L978.264,429.4a15.445,15.445,0,0,1,23.206-5.065h0a15.461,15.461,0,0,1,2.681,21.677l-31.768,40.737Z" transform="translate(-118.662 -178.189)" fill="#e4e4e4"/>
  </g>
</svg>
