<svg width="24" height="24" viewBox="0 0 24 24" fill="none" xmlns="http://www.w3.org/2000/svg">
<path d="M16.5 12C16.5 11.8011 16.421 11.6103 16.2803 11.4697C16.1397 11.329 15.9489 11.25 15.75 11.25C15.5511 11.25 15.3603 11.329 15.2197 11.4697C15.079 11.6103 15 11.8011 15 12H16.5ZM12 15C11.8011 15 11.6103 15.079 11.4697 15.2197C11.329 15.3603 11.25 15.5511 11.25 15.75C11.25 15.9489 11.329 16.1397 11.4697 16.2803C11.6103 16.421 11.8011 16.5 12 16.5V15ZM7.5 12C7.5 12.1989 7.57902 12.3897 7.71967 12.5303C7.86032 12.671 8.05109 12.75 8.25 12.75C8.44891 12.75 8.63968 12.671 8.78033 12.5303C8.92098 12.3897 9 12.1989 9 12H7.5ZM12 9C12.1989 9 12.3897 8.92098 12.5303 8.78033C12.671 8.63968 12.75 8.44891 12.75 8.25C12.75 8.05109 12.671 7.86032 12.5303 7.71967C12.3897 7.57902 12.1989 7.5 12 7.5V9ZM9.918 17.76C9.72406 17.7154 9.52036 17.7498 9.35172 17.8554C9.18308 17.961 9.06331 18.1293 9.01875 18.3232C8.97419 18.5172 9.0085 18.7209 9.11413 18.8895C9.21976 19.0582 9.38806 19.1779 9.582 19.2225L9.918 17.76ZM3.993 16.2548C4.1397 16.3891 4.33376 16.4597 4.53251 16.451C4.73125 16.4423 4.91838 16.3549 5.05275 16.2083C5.18712 16.0616 5.2577 15.8675 5.24898 15.6687C5.24026 15.47 5.15295 15.2829 5.00625 15.1485L3.993 16.2548ZM14.4315 6.327C14.6236 6.37852 14.8284 6.3516 15.0007 6.25215C15.173 6.15271 15.2987 5.9889 15.3502 5.79675C15.4018 5.6046 15.3748 5.39986 15.2754 5.22756C15.176 5.05526 15.0121 4.92952 14.82 4.878L14.4315 6.327ZM19.95 7.6935C19.8774 7.62481 19.7918 7.57134 19.6982 7.53621C19.6046 7.50108 19.505 7.48501 19.4051 7.48894C19.3052 7.49288 19.2071 7.51674 19.1166 7.55912C19.0261 7.6015 18.945 7.66154 18.878 7.73573C18.811 7.80991 18.7595 7.89674 18.7265 7.9911C18.6936 8.08547 18.6798 8.18547 18.6861 8.28523C18.6923 8.38498 18.7184 8.48249 18.7629 8.572C18.8074 8.66152 18.8693 8.74125 18.945 8.8065L19.95 7.6935ZM21 12C21 12.348 20.8177 12.9022 20.3602 13.587C19.9155 14.253 19.257 14.9707 18.4268 15.6322C16.7633 16.9583 14.4855 18 12 18V19.5C14.8995 19.5 17.4967 18.2917 19.362 16.8053C20.2965 16.0605 21.0653 15.231 21.6075 14.4202C22.1362 13.629 22.5 12.7778 22.5 12H21ZM3 12C3 11.652 3.18225 11.0977 3.63975 10.413C4.0845 9.747 4.743 9.02925 5.57325 8.36775C7.23675 7.04175 9.5145 6 12 6V4.5C9.1005 4.5 6.50325 5.70825 4.638 7.19475C3.7035 7.9395 2.93475 8.76825 2.3925 9.57975C1.86375 10.371 1.5 11.2222 1.5 12H3ZM15 12C15 12.7956 14.6839 13.5587 14.1213 14.1213C13.5587 14.6839 12.7956 15 12 15V16.5C13.1935 16.5 14.3381 16.0259 15.182 15.182C16.0259 14.3381 16.5 13.1935 16.5 12H15ZM9 12C9 11.2044 9.31607 10.4413 9.87868 9.87868C10.4413 9.31607 11.2044 9 12 9V7.5C10.8065 7.5 9.66193 7.97411 8.81802 8.81802C7.97411 9.66193 7.5 10.8065 7.5 12H9ZM12 18C11.286 18 10.5892 17.9145 9.918 17.76L9.582 19.2225C10.3553 19.3995 11.1652 19.5 12 19.5V18ZM12 6C12.8385 6 13.6537 6.1185 14.43 6.327L14.82 4.878C13.9006 4.62895 12.9525 4.50186 12 4.5V6ZM18.9435 8.8065C19.6178 9.4155 20.1435 10.0477 20.4967 10.6267C20.8582 11.2192 21 11.694 21 12H22.5C22.5 11.304 22.2083 10.5525 21.7778 9.846C21.3383 9.1245 20.7135 8.3835 19.95 7.6935L18.945 8.8065H18.9435ZM5.00625 15.1485C4.34775 14.5455 3.834 13.9215 3.4905 13.3522C3.138 12.768 3 12.3022 3 12H1.5C1.5 12.6877 1.785 13.4295 2.20575 14.127C2.6355 14.8395 3.24675 15.5715 3.993 16.2548L5.00625 15.1485Z" fill="white"/>
<path d="M5.25 18.75L18.75 5.25" stroke="white" stroke-width="1.5" stroke-linecap="round" stroke-linejoin="round"/>
</svg>
