<svg xmlns="http://www.w3.org/2000/svg" xmlns:xlink="http://www.w3.org/1999/xlink" width="100" height="96.615" viewBox="0 0 100 96.615">
  <defs>
    <clipPath id="clip-path">
      <rect id="Rectangle_1" data-name="Rectangle 1" width="100" height="96.615" fill="#B8113C"/>
    </clipPath>
  </defs>
  <g id="audio-call" clip-path="url(#clip-path)">
    <path id="Path_1" data-name="Path 1" d="M23.779,46.011a71.693,71.693,0,0,0,10.6,14.844A60.271,60.271,0,0,0,51.156,73.241a1.754,1.754,0,0,0,1.449.081,6.238,6.238,0,0,0,2.018-1.473,22.923,22.923,0,0,0,1.839-2.254c2.694-3.548,6.038-7.951,10.75-5.753.106.049.187.106.285.155l15.731,9.041c.049.024.106.081.155.106a7.1,7.1,0,0,1,2.954,6.12,16.557,16.557,0,0,1-2.3,7.8,15.954,15.954,0,0,1-7.56,6.681,34.414,34.414,0,0,1-9.326,2.539,31.6,31.6,0,0,1-14.242-1.188,62.966,62.966,0,0,1-14.323-6.917l-.374-.236c-2.327-1.449-4.842-3.011-7.308-4.842A91.533,91.533,0,0,1,6.682,55.605C1.652,46.507-1.09,36.693.407,27.334c.83-5.127,3.027-9.79,6.868-12.874,3.345-2.694,7.845-4.175,13.68-3.654a1.971,1.971,0,0,1,1.579,1.009L32.617,28.856a5.34,5.34,0,0,1,.854,5.7,11.084,11.084,0,0,1-3.857,4.321c-.545.464-1.188.936-1.864,1.424-2.254,1.636-4.818,3.524-3.939,5.754ZM59.693,6.142a3.058,3.058,0,0,1-1.156-.326,3.126,3.126,0,0,1-.944-.741A3.191,3.191,0,0,1,57,4.027a3.2,3.2,0,0,1-.13-1.188l.008-.057a2.956,2.956,0,0,1,.317-1.107l.033-.057a2.882,2.882,0,0,1,.708-.879,3.111,3.111,0,0,1,1.05-.594A3.055,3.055,0,0,1,60.14,0l.081.008a52.388,52.388,0,0,1,8.073,1.261A45.513,45.513,0,0,1,75.749,3.75a40.712,40.712,0,0,1,6.673,3.678,38.3,38.3,0,0,1,10.441,10.62,41.852,41.852,0,0,1,3.581,6.738,46.049,46.049,0,0,1,2.376,7.471A53.139,53.139,0,0,1,100,40.379l.008.138v.146a3.221,3.221,0,0,1-.187,1.082,2.955,2.955,0,0,1-.578.977,3.136,3.136,0,0,1-.9.7,3.075,3.075,0,0,1-1.066.326l-.163.016h-.155a2.876,2.876,0,0,1-1.09-.187,3.085,3.085,0,0,1-1.709-1.53,3.082,3.082,0,0,1-.309-1.156,46.539,46.539,0,0,0-1.025-7.161,39.326,39.326,0,0,0-2.051-6.519,34.382,34.382,0,0,0-3.027-5.745,32.681,32.681,0,0,0-3.971-4.94,32.248,32.248,0,0,0-4.858-4.053,34.1,34.1,0,0,0-5.7-3.125l-.033-.016a38.976,38.976,0,0,0-6.413-2.124A48.073,48.073,0,0,0,59.693,6.142Zm-6.771,29.02a3.148,3.148,0,0,1-1.147-.35,3,3,0,0,1-.92-.765,3.23,3.23,0,0,1-.545-1,3,3,0,0,1-.147-1.082c.008-.106.008-.187.024-.285a3.112,3.112,0,0,1,.366-1.074,3,3,0,0,1,.732-.863,3.084,3.084,0,0,1,2.091-.692l.285.024a25.1,25.1,0,0,1,3.5.627A21.954,21.954,0,0,1,60.4,30.809l.033.016a18.5,18.5,0,0,1,2.905,1.6,17.344,17.344,0,0,1,4.631,4.614,18.333,18.333,0,0,1,1.619,2.913A21.058,21.058,0,0,1,70.7,43.187a24.681,24.681,0,0,1,.618,3.556,3.243,3.243,0,0,1-.106,1.2l-.008.033A3.188,3.188,0,0,1,70.663,49l-.008.016a3.076,3.076,0,0,1-.92.757,3,3,0,0,1-1.147.35h-.041a3.217,3.217,0,0,1-1.156-.114,3.011,3.011,0,0,1-1.058-.562h-.008a3.077,3.077,0,0,1-1.115-2.067v-.033a17.558,17.558,0,0,0-.439-2.539A14.316,14.316,0,0,0,64,42.511a12.318,12.318,0,0,0-1.074-1.969,11.457,11.457,0,0,0-1.375-1.668,10.973,10.973,0,0,0-1.676-1.367,13.005,13.005,0,0,0-2-1.082l-.041-.016a14.688,14.688,0,0,0-2.279-.765A16.123,16.123,0,0,0,52.922,35.163Zm3.255-14.014H56.1l-.106-.016a3.021,3.021,0,0,1-1.058-.317,3.256,3.256,0,0,1-.9-.692,2.971,2.971,0,0,1-.594-1A3.185,3.185,0,0,1,53.264,18v-.138l.016-.13a3.034,3.034,0,0,1,.317-1.05,3.074,3.074,0,0,1,1.733-1.505,3.05,3.05,0,0,1,1.188-.163,41.491,41.491,0,0,1,6.169.822,32.543,32.543,0,0,1,5.518,1.676,27.735,27.735,0,0,1,4.85,2.555,24.578,24.578,0,0,1,7.332,7.585,27.322,27.322,0,0,1,2.393,4.923,33.128,33.128,0,0,1,1.5,5.566,42.2,42.2,0,0,1,.627,6.2l.008.114a2.907,2.907,0,0,1-.22,1.123,3.212,3.212,0,0,1-.618.977,2.881,2.881,0,0,1-.977.692,3.049,3.049,0,0,1-1.164.269H81.8a3.076,3.076,0,0,1-2.067-.838,3.05,3.05,0,0,1-.968-2.149,35.173,35.173,0,0,0-.513-5.16,27.187,27.187,0,0,0-1.2-4.557,21.45,21.45,0,0,0-1.839-3.865A18.316,18.316,0,0,0,69.6,25.128a21.48,21.48,0,0,0-3.8-1.978l-.032-.016a27.594,27.594,0,0,0-4.452-1.326,34.924,34.924,0,0,0-5.086-.667Z" fill="#B8113C"/>
  </g>
</svg>
