<svg xmlns="http://www.w3.org/2000/svg" xmlns:xlink="http://www.w3.org/1999/xlink" width="122.88" height="92.04" viewBox="0 0 122.88 92.04">
  <defs>
    <clipPath id="clip-path">
      <rect id="Rectangle_1" data-name="Rectangle 1" width="122.88" height="92.04" fill="#B8113C"/>
    </clipPath>
  </defs>
  <g id="audio-post" clip-path="url(#clip-path)">
    <path id="Path_4" data-name="Path 4" d="M90.14,23.409a5.14,5.14,0,0,1,8.78-3.63h0a5.125,5.125,0,0,1,1.51,3.63v45.28a5.145,5.145,0,0,1-10.29.01ZM0,18.219a5.12,5.12,0,0,1,1.51-3.63h0a5.15,5.15,0,0,1,8.78,3.64v55.6a5.16,5.16,0,0,1-1.51,3.64h0A5.15,5.15,0,0,1,0,73.829ZM22.59,5.139a5.13,5.13,0,0,1,1.5-3.63h0a5.14,5.14,0,0,1,8.77,3.63V86.9a5.14,5.14,0,0,1-8.77,3.64h0a5.11,5.11,0,0,1-1.5-3.63Zm45.05,28.79a5.129,5.129,0,0,1,1.5-3.63h0a5.14,5.14,0,0,1,7.26,0h0a5.14,5.14,0,0,1,1.5,3.63v24.23a5.15,5.15,0,0,1-1.5,3.64h0a5.128,5.128,0,0,1-8.76-3.63ZM45.13,18.249a5.14,5.14,0,0,1,1.51-3.64h0a5.15,5.15,0,0,1,8.78,3.64v55.61a5.145,5.145,0,0,1-10.29-.01ZM112.7,12a5.09,5.09,0,0,1,1.49-3.61l.11-.1a5,5,0,0,1,7.1.1A5.13,5.13,0,0,1,122.88,12V80a5.17,5.17,0,0,1-1.48,3.62l-.11.1a5,5,0,0,1-7.1-.1A5.14,5.14,0,0,1,112.7,80Z" fill="#B8113C"/>
  </g>
</svg>
