<svg xmlns="http://www.w3.org/2000/svg" width="511.999" height="511.998" viewBox="0 0 511.999 511.998">
  <g id="audio-call-1" transform="translate(0 -0.001)">
    <g id="Group_3" data-name="Group 3">
      <g id="Group_2" data-name="Group 2">
        <g id="Group_1" data-name="Group 1">
          <path id="Path_1" data-name="Path 1" d="M268,61.092l1,0A181.547,181.547,0,0,1,450.909,243.9a20,20,0,0,0,19.9,20.1h.1a20,20,0,0,0,20-19.9A221.545,221.545,0,0,0,269,21.09l-1.1,0a20,20,0,0,0,.093,40Z" fill="#B8113C"/>
          <path id="Path_2" data-name="Path 2" d="M511.949,412.553a75.736,75.736,0,0,0-23.229-52.042c-27.931-26.933-51.332-42.481-73.646-48.929-30.75-8.887-59.226-.8-84.641,24.016l-.115.113-27.066,26.865c-16.811-9.444-49.491-30.227-85.234-65.971l-2.632-2.63c-35.508-35.507-56.423-68.373-65.939-85.253l26.839-27.041.113-.115c24.821-25.414,32.9-53.892,24.016-84.64-6.448-22.313-21.995-45.715-48.929-73.646A76.1,76.1,0,0,0,45.865,19.472l-.574.516q-.4.359-.78.739C15.151,50.085-.239,91.187,0,139.588c.41,82.22,45.6,176.249,120.879,251.528l.188.186a488.072,488.072,0,0,0,47.762,41.567,20,20,0,1,0,24.339-31.743,447.22,447.22,0,0,1-44-38.3c-.062-.062-.124-.124-.187-.185C81.1,294.683,40.361,211.239,40,139.387,39.816,102.111,51.029,71,72.433,49.373l.153-.138a35.978,35.978,0,0,1,50.108,1.808c51.781,53.7,48.031,79.049,25.151,102.511l-37.074,37.353a20,20,0,0,0-4.075,22.226c.941,2.114,23.709,52.427,80.414,109.132l2.632,2.629c56.7,56.7,107.011,79.466,109.125,80.408a20,20,0,0,0,22.226-4.075l37.346-37.068c23.466-22.883,48.818-26.638,102.518,25.145a35.977,35.977,0,0,1,1.81,50.105l-.141.157C441.176,460.795,410.4,472,373.524,472c-.3,0-.608,0-.912,0-29.471-.147-63.6-8.226-98.689-23.362a20,20,0,1,0-15.843,36.729c40.562,17.5,79.029,26.456,114.332,26.633l1.122,0c47.914,0,88.608-15.379,117.738-44.51.254-.254.5-.513.739-.78l.519-.577A75.742,75.742,0,0,0,511.949,412.553Z" fill="#B8113C"/>
          <path id="Path_3" data-name="Path 3" d="M369.457,142.549C348,121.095,327.414,115.4,317.518,112.665a20,20,0,1,0-10.661,38.553c8.092,2.238,20.32,5.62,34.316,19.615,13.473,13.473,17.052,25.636,19.421,33.685l.289.979a20,20,0,1,0,38.355-11.353l-.271-.918C395.882,182.744,390.14,163.232,369.457,142.549Z" fill="#B8113C"/>
        </g>
      </g>
    </g>
  </g>
</svg>
