<svg xmlns="http://www.w3.org/2000/svg" width="99.999" height="99.999" viewBox="0 0 99.999 99.999">
  <path id="dashboard-theme" d="M50,0A50,50,0,1,1,0,50,50,50,0,0,1,50,0ZM37.367,32.782,53.641,62.442A8.394,8.394,0,1,1,39.56,67.185ZM91.676,52.808a6.637,6.637,0,1,1-6.636-6.636A6.638,6.638,0,0,1,91.676,52.808Zm-83.352,0a6.637,6.637,0,1,0,6.637-6.636A6.638,6.638,0,0,0,8.324,52.808ZM20.446,23.185a6.637,6.637,0,1,0,9.386,0A6.639,6.639,0,0,0,20.446,23.185ZM50.037,10.811A6.637,6.637,0,1,1,43.4,17.448,6.636,6.636,0,0,1,50.037,10.811ZM79.553,23.185a6.636,6.636,0,1,1-9.384,0A6.637,6.637,0,0,1,79.553,23.185Z" fill="#B8113C" fill-rule="evenodd"/>
</svg>
