<svg xmlns="http://www.w3.org/2000/svg" width="96" height="74.569" viewBox="0 0 96 74.569">
  <g id="gender" transform="translate(0 -10.715)">
    <path id="Path_1" data-name="Path 1" d="M76.258,36.08V29.643h3.878V21.5H76.258V15.684H66.564V21.5H62.3v8.143h4.265v6.368a24.762,24.762,0,1,0,9.694.069Zm-4.9,39.243A15.033,15.033,0,1,1,86.388,60.29,15.05,15.05,0,0,1,71.355,75.323Z" fill="#e44499"/>
    <path id="Path_2" data-name="Path 2" d="M49.47,35.441A24.735,24.735,0,1,0,20.034,59.724V70.577L16.86,67.841,11.637,74.06l13.3,11.223L38.636,74.1,33.426,67.8l-3.7,2.969V59.647A24.8,24.8,0,0,0,49.47,35.441Zm-39.7,0A15.033,15.033,0,1,1,24.808,50.474,15.05,15.05,0,0,1,9.774,35.441Z" fill="#e44499"/>
  </g>
</svg>
