<svg xmlns="http://www.w3.org/2000/svg" xmlns:xlink="http://www.w3.org/1999/xlink" width="100" height="51.148" viewBox="0 0 100 51.148">
  <defs>
    <clipPath id="clip-path">
      <rect id="Rectangle_1" data-name="Rectangle 1" width="100" height="51.147" fill="#e44499"/>
    </clipPath>
  </defs>
  <g id="live-video-theme" clip-path="url(#clip-path)">
    <path id="Path_1" data-name="Path 1" d="M5.819,0h65.7a5.838,5.838,0,0,1,5.819,5.819v7.259L100,4.98V42.407l-22.664-7.65V45.337a5.831,5.831,0,0,1-5.819,5.811H5.819A5.831,5.831,0,0,1,0,45.337V5.819A5.838,5.838,0,0,1,5.819,0ZM21.33,13.029V33.114H25.26v5.013H14.795v-25.1Zm12.345,0v25.1H27.14v-25.1Zm18.368,0-3.3,25.1h-9.88l-3.784-25.1H41.96q1.16,10.376,1.7,17.562.525-7.263,1.074-12.882l.431-4.679Zm1.408,0H64.331v5.013H59.985v4.793h4.061V27.6H59.985v5.518h4.793v5.013H53.451Z" fill="#e44499" fill-rule="evenodd"/>
  </g>
</svg>
