<svg xmlns="http://www.w3.org/2000/svg" width="416.46" height="416.209" viewBox="0 0 416.46 416.209">
  <path id="message-1" d="M416.053,12.67C414.021,3.662,404.181-2.29,395.221.846c0,0-384.48,135.7-384.72,135.808C4.165,139.326-.347,145.39.021,152.462a16.638,16.638,0,0,0,9.1,13.728l164.416,76.752s76.512,163.936,77.008,164.816c6.848,12.352,24,10.672,29.328-1.84,0,0,135.744-384.608,135.76-384.672a15.61,15.61,0,0,0,.416-8.576ZM262.709,358.35,204.8,234.3l48.656-48.656a16,16,0,0,0-22.624-22.624l-48.656,48.656L58.117,153.758l316.192-111.6Z" fill="#B8113C"/>
</svg>
