<svg id="scale" xmlns="http://www.w3.org/2000/svg" width="44.797" height="96" viewBox="0 0 44.797 96">
  <path id="Path_1" data-name="Path 1" d="M39.015,96H5.782A5.788,5.788,0,0,1,0,90.22V5.782A5.788,5.788,0,0,1,5.782,0H39.015A5.788,5.788,0,0,1,44.8,5.782V90.22A5.788,5.788,0,0,1,39.015,96ZM5.782,5.689,5.689,90.22l33.326.091.094-84.529a.093.093,0,0,0-.006-.036.092.092,0,0,0-.02-.031.092.092,0,0,0-.067-.027Z" fill="#B8113C"/>
  <path id="Path_2" data-name="Path 2" d="M19.2,16.54H2.85a2.844,2.844,0,0,1,0-5.689H19.2a2.844,2.844,0,0,1,0,5.689Z" fill="#B8113C"/>
  <path id="Path_3" data-name="Path 3" d="M13.687,27.915H2.844a2.844,2.844,0,0,1,0-5.688H13.687a2.844,2.844,0,0,1,0,5.688Z" fill="#B8113C"/>
  <path id="Path_4" data-name="Path 4" d="M13.687,39.47H2.844a2.844,2.844,0,0,1,0-5.689H13.687a2.844,2.844,0,0,1,0,5.689Z" fill="#B8113C"/>
  <path id="Path_5" data-name="Path 5" d="M19.2,50.669H2.85a2.844,2.844,0,0,1,0-5.688H19.2a2.844,2.844,0,0,1,0,5.688Z" fill="#B8113C"/>
  <path id="Path_6" data-name="Path 6" d="M13.687,61.693H2.844a2.844,2.844,0,0,1,0-5.689H13.687a2.844,2.844,0,0,1,0,5.689Z" fill="#B8113C"/>
  <path id="Path_7" data-name="Path 7" d="M13.687,73.247H2.844a2.844,2.844,0,0,1,0-5.688H13.687a2.844,2.844,0,0,1,0,5.688Z" fill="#B8113C"/>
  <path id="Path_8" data-name="Path 8" d="M19.2,84.8H2.85a2.844,2.844,0,0,1,0-5.689H19.2a2.844,2.844,0,0,1,0,5.689Z" fill="#B8113C"/>
</svg>
