<svg xmlns="http://www.w3.org/2000/svg" xmlns:xlink="http://www.w3.org/1999/xlink" width="100" height="97.494" viewBox="0 0 100 97.494">
  <defs>
    <clipPath id="clip-path">
      <rect id="Rectangle_1" data-name="Rectangle 1" width="100" height="97.493" fill="#e44499"/>
    </clipPath>
  </defs>
  <g id="search" clip-path="url(#clip-path)">
    <path id="Path_9" data-name="Path 9" d="M40.681,0h.013V.006A40.668,40.668,0,0,1,81.355,40.654h.006v.059h-.006a40.632,40.632,0,0,1-2.111,12.933q-.343,1.022-.714,1.96v.006A40.7,40.7,0,0,1,74.016,64L97.683,85.272l.015.013.128.119.009.009a7.028,7.028,0,0,1,.545,9.563l-.009.013-.142.165-.028.028-.119.13-.013.017a7.032,7.032,0,0,1-9.563.544l-.012-.009-.166-.142L88.3,95.7,64.1,73.947q-1.074.757-2.187,1.436c-1,.614-2.043,1.193-3.1,1.721a40.5,40.5,0,0,1-18.125,4.25v.006h-.013v-.006A40.668,40.668,0,0,1,.006,40.708H0v-.04H.006A40.666,40.666,0,0,1,40.654.006V0Zm.013,9.123v.006h-.04V9.123A31.564,31.564,0,0,0,9.123,40.668h.006v.04H9.123A31.564,31.564,0,0,0,40.668,72.237v-.006h.04v.006A31.563,31.563,0,0,0,72.236,40.694h0v-.04h0A31.564,31.564,0,0,0,40.694,9.123Z" fill="#e44499"/>
  </g>
</svg>
