<svg xmlns="http://www.w3.org/2000/svg" xmlns:xlink="http://www.w3.org/1999/xlink" width="100" height="102.322" viewBox="0 0 100 102.322">
  <defs>
    <clipPath id="clip-path">
      <rect id="Rectangle_1" data-name="Rectangle 1" width="100" height="102.322" fill="#e44499"/>
    </clipPath>
  </defs>
  <g id="share-theme" clip-path="url(#clip-path)">
    <path id="Path_1" data-name="Path 1" d="M53.192,72.644l3.1-20.254c-9.106.906-19.214,3.154-27.744,9.178C19,68.306,11.284,79.91,8.9,99.928a2.712,2.712,0,0,1-5.322.346A66.815,66.815,0,0,1,.05,81.806,53.854,53.854,0,0,1,14.086,43.084,72.751,72.751,0,0,1,44.75,23.018,57.324,57.324,0,0,1,56.3,20.346L53.216,3.18A2.7,2.7,0,0,1,57.6.622l41.42,34.26a2.712,2.712,0,0,1,.36,3.816l-.308.318L57.658,75.094a2.713,2.713,0,0,1-4.466-2.45Z" fill="#e44499"/>
  </g>
</svg>
