<svg xmlns="http://www.w3.org/2000/svg" xmlns:xlink="http://www.w3.org/1999/xlink" width="100" height="90.926" viewBox="0 0 100 90.926">
  <defs>
    <clipPath id="clip-path">
      <rect id="Rectangle_1" data-name="Rectangle 1" width="100" height="90.926" fill="#B8113C"/>
    </clipPath>
  </defs>
  <g id="video-call" clip-path="url(#clip-path)">
    <path id="Path_1" data-name="Path 1" d="M25.171,37.372A75.629,75.629,0,0,0,36.385,53.086,63.746,63.746,0,0,0,54.15,66.2a1.776,1.776,0,0,0,1.538.081,6.627,6.627,0,0,0,2.14-1.562,23.848,23.848,0,0,0,1.945-2.385c2.848-3.76,6.388-8.415,11.377-6.087l.3.163,16.642,9.57c.057.024.106.081.163.106a7.5,7.5,0,0,1,3.125,6.47A17.449,17.449,0,0,1,88.94,80.8a16.941,16.941,0,0,1-8.008,7.072,36.49,36.49,0,0,1-9.871,2.686A33.429,33.429,0,0,1,55.981,89.3,66.539,66.539,0,0,1,40.82,81.976l-.383-.244c-2.466-1.538-5.127-3.182-7.731-5.127A96.618,96.618,0,0,1,7.072,47.512C1.75,37.893-1.156,27.5.431,17.6,1.31,12.176,3.646,7.237,7.7,3.973,11.238,1.125,16.007-.438,22.176.108a2.076,2.076,0,0,1,1.668,1.066L34.513,19.216a5.631,5.631,0,0,1,.9,6.03,11.938,11.938,0,0,1-4.085,4.582c-.578.5-1.261.985-1.977,1.506-2.384,1.725-5.1,3.727-4.167,6.087Z" fill="#B8113C" fill-rule="evenodd"/>
    <path id="Path_2" data-name="Path 2" d="M57.723,1.359h24.04a4.369,4.369,0,0,1,4.354,4.354v4.639L99.992,2.01V28.337L86.116,20.85v6.038a4.369,4.369,0,0,1-4.354,4.354H57.723a4.371,4.371,0,0,1-4.362-4.354V5.713A4.371,4.371,0,0,1,57.723,1.359Z" fill="#B8113C" fill-rule="evenodd"/>
  </g>
</svg>
