<svg xmlns="http://www.w3.org/2000/svg" width="24" height="20.156" viewBox="0 0 24 20.156">
  <g id="video-post-1" transform="translate(0 -1.922)">
    <path id="Path_1" data-name="Path 1" d="M23.063,14.578A.937.937,0,0,0,24,13.641V5.672a3.754,3.754,0,0,0-3.75-3.75H3.75A3.754,3.754,0,0,0,0,5.672V18.328a3.754,3.754,0,0,0,3.75,3.75h16.5A3.754,3.754,0,0,0,24,18.328a.938.938,0,0,0-1.875,0A1.877,1.877,0,0,1,20.25,20.2H3.75a1.877,1.877,0,0,1-1.875-1.875V5.672A1.877,1.877,0,0,1,3.75,3.8h16.5a1.877,1.877,0,0,1,1.875,1.875v7.969a.937.937,0,0,0,.938.934Z" fill="#e44499"/>
    <path id="Path_2" data-name="Path 2" d="M4.547,7.547A.938.938,0,1,0,3.61,6.61a.938.938,0,0,0,.937.937Z" fill="#e44499"/>
    <path id="Path_3" data-name="Path 3" d="M8.3,7.547a.938.938,0,1,0-.937-.937A.938.938,0,0,0,8.3,7.547Z" fill="#e44499"/>
    <path id="Path_4" data-name="Path 4" d="M12.047,7.547a.938.938,0,1,0-.937-.937A.938.938,0,0,0,12.047,7.547Z" fill="#e44499"/>
    <path id="Path_5" data-name="Path 5" d="M15.8,7.547a.938.938,0,1,0-.937-.937.938.938,0,0,0,.937.937Z" fill="#e44499"/>
    <path id="Path_6" data-name="Path 6" d="M19.547,7.547a.938.938,0,1,0-.937-.937A.938.938,0,0,0,19.547,7.547Z" fill="#e44499"/>
    <path id="Path_7" data-name="Path 7" d="M4.547,18.328a.938.938,0,1,0-.937-.937.938.938,0,0,0,.937.937Z" fill="#e44499"/>
    <path id="Path_8" data-name="Path 8" d="M8.3,18.328a.938.938,0,1,0-.937-.937.938.938,0,0,0,.937.937Z" fill="#e44499"/>
    <path id="Path_9" data-name="Path 9" d="M12.047,18.328a.938.938,0,1,0-.937-.937.938.938,0,0,0,.937.937Z" fill="#e44499"/>
    <path id="Path_10" data-name="Path 10" d="M15.8,18.328a.938.938,0,1,0-.937-.937.938.938,0,0,0,.937.937Z" fill="#e44499"/>
    <path id="Path_11" data-name="Path 11" d="M19.547,18.328a.938.938,0,1,0-.937-.937.938.938,0,0,0,.937.937Z" fill="#e44499"/>
  </g>
</svg>
