<svg xmlns="http://www.w3.org/2000/svg" width="512" height="354" viewBox="0 0 512 354">
  <path id="video-call-1" d="M492,175a20,20,0,0,0,20-20V99.073a60,60,0,0,0-96.1-47.927l-.522.393L354,104.388V80A80.091,80.091,0,0,0,274,0H80A80.091,80.091,0,0,0,0,80V274a80.091,80.091,0,0,0,80,80H274a80.091,80.091,0,0,0,80-80V250.612l60.886,52.423,1.018.819A60,60,0,0,0,512,255.927a20,20,0,0,0-40,0,20,20,0,0,1-31.591,16.3L354,197.828V157.172l86.409-74.4A20,20,0,0,1,472,99.073V155A20,20,0,0,0,492,175ZM314,274a40.045,40.045,0,0,1-40,40H80a40.045,40.045,0,0,1-40-40V80A40.045,40.045,0,0,1,80,40H274a40.045,40.045,0,0,1,40,40Z" fill="#B8113C"/>
</svg>
