<svg xmlns="http://www.w3.org/2000/svg" width="448" height="512" viewBox="0 0 448 512">
  <g id="change-password" transform="translate(-32)">
    <g id="Group_3" data-name="Group 3">
      <g id="Group_2" data-name="Group 2">
        <g id="Group_1" data-name="Group 1">
          <circle id="Ellipse_1" data-name="Ellipse 1" cx="20" cy="20" r="20" transform="translate(350 326)" fill="#B8113C"/>
          <path id="Path_1" data-name="Path 1" d="M460,362a20,20,0,0,0,20-20V268a80.091,80.091,0,0,0-80-80H375.963V117.466C375.963,52.695,322.131,0,255.963,0s-120,52.695-120,117.466V188H112a80.091,80.091,0,0,0-80,80V432a80.091,80.091,0,0,0,80,80H400a80.091,80.091,0,0,0,80-80,20,20,0,1,0-40,0,40.045,40.045,0,0,1-40,40H112a40.045,40.045,0,0,1-40-40V268a40.045,40.045,0,0,1,40-40H400a40.045,40.045,0,0,1,40,40v74A20,20,0,0,0,460,362ZM335.963,188h-160V117.466c0-42.715,35.888-77.466,80-77.466s80,34.751,80,77.466Z" fill="#B8113C"/>
          <circle id="Ellipse_2" data-name="Ellipse 2" cx="20" cy="20" r="20" transform="translate(199 326)" fill="#B8113C"/>
          <circle id="Ellipse_3" data-name="Ellipse 3" cx="20" cy="20" r="20" transform="translate(124 326)" fill="#B8113C"/>
          <circle id="Ellipse_4" data-name="Ellipse 4" cx="20" cy="20" r="20" transform="translate(274 326)" fill="#B8113C"/>
        </g>
      </g>
    </g>
  </g>
</svg>
