<svg xmlns="http://www.w3.org/2000/svg" width="64.034" height="96.004" viewBox="0 0 64.034 96.004">
  <path id="map-marker-icon" d="M48,32a15.415,15.415,0,0,0-4.687-11.312A15.415,15.415,0,0,0,32,16a15.415,15.415,0,0,0-11.312,4.688A15.415,15.415,0,0,0,16,32a15.415,15.415,0,0,0,4.688,11.313A15.415,15.415,0,0,0,32,48a15.415,15.415,0,0,0,11.313-4.687A15.415,15.415,0,0,0,48,32Zm16,0a26.3,26.3,0,0,1-2.062,11.188L39.188,91.563a7.586,7.586,0,0,1-2.969,3.25,8.088,8.088,0,0,1-8.438,0,7.2,7.2,0,0,1-2.906-3.25L2.063,43.188A26.3,26.3,0,0,1,0,32,30.831,30.831,0,0,1,9.375,9.375,30.831,30.831,0,0,1,32,0,30.831,30.831,0,0,1,54.625,9.375,30.831,30.831,0,0,1,64,32Z" transform="translate(0.017 0.004)" fill="#B8113C"/>
</svg>
