<svg xmlns="http://www.w3.org/2000/svg" width="512.479" height="512.393" viewBox="0 0 512.479 512.393">
  <g id="social-link" transform="translate(0.003 -0.041)">
    <g id="Group_5" data-name="Group 5">
      <g id="object_13_">
        <g id="Group_2" data-name="Group 2">
          <path id="Path_3" data-name="Path 3" d="M366.315,309.7a17.778,17.778,0,0,1-12.57-30.349l97.8-97.8A85.262,85.262,0,0,0,330.968,60.97h0l-97.8,97.8a17.778,17.778,0,1,1-25.142-25.142l97.806-97.8A120.816,120.816,0,0,1,477.489,205.886l-.8.8-97.8,97.8a17.73,17.73,0,0,1-12.574,5.214Z" fill="#B8113C"/>
        </g>
        <g id="Group_3" data-name="Group 3">
          <path id="Path_4" data-name="Path 4" d="M120.836,512.434A120.76,120.76,0,0,1,35.41,306.244l97.8-97.8a17.779,17.779,0,1,1,25.143,25.144l-97.8,97.8A85.26,85.26,0,1,0,181.128,451.963l97.8-97.8A17.777,17.777,0,1,1,304.07,379.3l-97.8,97.8a120.444,120.444,0,0,1-85.433,35.334Z" fill="#B8113C"/>
        </g>
        <g id="Group_4" data-name="Group 4">
          <path id="Path_5" data-name="Path 5" d="M161.964,368.327a17.778,17.778,0,0,1-12.57-30.349L337.561,149.811a17.778,17.778,0,1,1,25.14,25.143L174.536,363.12a17.727,17.727,0,0,1-12.572,5.207Z" fill="#B8113C"/>
        </g>
      </g>
    </g>
  </g>
</svg>
