<svg xmlns="http://www.w3.org/2000/svg" width="512" height="511.978" viewBox="0 0 512 511.978">
  <g id="your-cards" transform="translate(0 -0.011)">
    <g id="Group_1" data-name="Group 1">
      <path id="Path_1" data-name="Path 1" d="M509.006,214.26a45.054,45.054,0,0,0-10.187-47.919L345.648,13.17a45.052,45.052,0,0,0-63.64,0l-172.2,172.2H45a45.051,45.051,0,0,0-45,45V466.989a45.051,45.051,0,0,0,45,45H467a45.051,45.051,0,0,0,45-45V230.372a44.749,44.749,0,0,0-2.994-16.112Zm-32.58-27.887a44.98,44.98,0,0,0-9.426-1H434.5l20.464-20.464ZM433.748,143.7l-41.677,41.677H349.643l62.891-62.891ZM303.222,34.383a15.015,15.015,0,0,1,21.213,0l66.886,66.886-84.1,84.1H152.232ZM482,466.989a15.017,15.017,0,0,1-15,15H45a15.017,15.017,0,0,1-15-15V230.372a15.017,15.017,0,0,1,15-15H467a15.017,15.017,0,0,1,15,15Z" fill="#B8113C"/>
      <path id="Path_2" data-name="Path 2" d="M59,406.585h69.9v30H59Z" fill="#B8113C"/>
      <path id="Path_3" data-name="Path 3" d="M167.032,406.585h69.9v30h-69.9Z" fill="#B8113C"/>
      <path id="Path_4" data-name="Path 4" d="M275.065,406.585h69.9v30h-69.9Z" fill="#B8113C"/>
      <path id="Path_5" data-name="Path 5" d="M383.1,406.585H453v30H383.1Z" fill="#B8113C"/>
      <path id="Path_6" data-name="Path 6" d="M136.267,255.372H85a25.028,25.028,0,0,0-25,25v40a25.028,25.028,0,0,0,25,25h51.267a25.028,25.028,0,0,0,25-25v-40a25.028,25.028,0,0,0-25-25Zm-5,60H90v-30h41.267Z" fill="#B8113C"/>
    </g>
  </g>
</svg>
