<svg width="48" height="48" viewBox="0 0 48 48" fill="none" xmlns="http://www.w3.org/2000/svg">
<path d="M16 20.5C20.6944 20.5 24.5 16.6944 24.5 12C24.5 7.30558 20.6944 3.5 16 3.5C11.3056 3.5 7.5 7.30558 7.5 12C7.5 16.6944 11.3056 20.5 16 20.5Z" fill="#B8113C"/>
<path d="M20 22.5H12C9.48142 22.5032 7.0669 23.5051 5.28599 25.286C3.50508 27.0669 2.50318 29.4814 2.5 32V40C2.5 40.3978 2.65804 40.7794 2.93934 41.0607C3.22064 41.342 3.60218 41.5 4 41.5H28C28.3978 41.5 28.7794 41.342 29.0607 41.0607C29.342 40.7794 29.5 40.3978 29.5 40V32C29.4968 29.4814 28.4949 27.0669 26.714 25.286C24.9331 23.5051 22.5186 22.5032 20 22.5Z" fill="#B8113C"/>
<path d="M33.598 22.988C37.7368 22.988 41.092 19.6328 41.092 15.494C41.092 11.3552 37.7368 8 33.598 8C29.4592 8 26.104 11.3552 26.104 15.494C26.104 19.6328 29.4592 22.988 33.598 22.988Z" fill="#B8113C"/>
<path d="M45.5 33.1199V40.1799C45.4969 40.529 45.3568 40.8629 45.1099 41.1098C44.863 41.3567 44.5291 41.4968 44.18 41.4999H31.5V31.9999C31.4969 29.393 30.6004 26.8659 28.96 24.8399C29.3305 24.7827 29.7051 24.756 30.08 24.7599H37.12C39.3395 24.7583 41.4689 25.6379 43.0402 27.2055C44.6116 28.7731 45.4963 30.9004 45.5 33.1199Z" fill="#B8113C"/>
</svg>
