<svg width="42" height="42" viewBox="0 0 42 42" fill="none" xmlns="http://www.w3.org/2000/svg">
<path d="M27.5625 22.3125H14.4375C12.0017 22.3153 9.66641 23.2841 7.94403 25.0065C6.22164 26.7289 5.25278 29.0642 5.25 31.5V36.75C5.25 37.7943 5.66484 38.7958 6.40327 39.5342C7.14169 40.2727 8.14321 40.6875 9.1875 40.6875H32.8125C33.8568 40.6875 34.8583 40.2727 35.5967 39.5342C36.3352 38.7958 36.75 37.7943 36.75 36.75V31.5C36.7472 29.0642 35.7784 26.7289 34.056 25.0065C32.3336 23.2841 29.9983 22.3153 27.5625 22.3125Z" fill="#B8113C"/>
<path d="M21 19.6875C26.0741 19.6875 30.1875 15.5741 30.1875 10.5C30.1875 5.42588 26.0741 1.3125 21 1.3125C15.9259 1.3125 11.8125 5.42588 11.8125 10.5C11.8125 15.5741 15.9259 19.6875 21 19.6875Z" fill="#B8113C"/>
</svg>
