<svg xmlns="http://www.w3.org/2000/svg" width="511.93" height="450" viewBox="0 0 511.93 450">
  <g id="session-management" transform="translate(0 -30.962)">
    <g id="Group_1" data-name="Group 1">
      <path id="Path_1" data-name="Path 1" d="M377,210.962a45,45,0,1,0-45-45,45,45,0,0,0,45,45Zm0-60a15,15,0,1,1-15,15,15,15,0,0,1,15-15Z" fill="#B8113C"/>
      <path id="Path_2" data-name="Path 2" d="M267.124,177.437l-6.106,3.525H75a45.051,45.051,0,0,0-45,45v165H15a15,15,0,0,0-15,15,75.085,75.085,0,0,0,75,75H377a75.085,75.085,0,0,0,75-75,15,15,0,0,0-15-15H422V268.524c0-11.466,13.626-17.331,23.127-11.845l14.3,8.254a15,15,0,0,0,20.491-5.49l30-51.962a15,15,0,0,0-5.49-20.49l-15.72-9.076c-9.069-5.234-8.743-18.859.434-24.157l15.286-8.825a15,15,0,0,0,5.49-20.49l-30-51.962a15,15,0,0,0-20.49-5.49l-14.2,8.2C435.682,80.7,422,74.91,422,63.5V45.962a15,15,0,0,0-15-15H347a15,15,0,0,0-15,15V63.038c0,10.87-12.236,17.919-21.619,12.5l-14.8-8.548a15,15,0,0,0-20.49,5.49l-30,51.962a15,15,0,0,0,5.49,20.49l14.432,8.333c9.092,5.249,11.076,19,2.115,24.171ZM377,450.962H75a45.074,45.074,0,0,1-42.43-30.01H419.43A45.074,45.074,0,0,1,377,450.962Zm-83.433-350.49,1.813,1.047C324.74,118.473,362,96.947,362,63.038V60.962h30V63.5c0,34.156,38.262,54.968,68.221,37.67l1.212-.7,15,25.98-2.3,1.325c-29.054,16.774-29.6,59.277-.434,76.119l2.729,1.576-15,25.98-1.3-.753c-29.779-17.194-67.939,3.431-68.121,37.6,0,.05-.007.1-.007.147v2.516H362v-3.014c0-33.267-37.8-54.186-65.818-38.006l-2.615,1.51-15-25.98,3.557-2.054c29.384-16.964,26.672-59.515-2.116-76.133l-1.441-.832ZM275.086,259.443a15,15,0,0,0,20.49,5.49l15.605-9.011c8.435-4.868,20.818,2.331,20.818,12.025v18.014a15,15,0,0,0,15,15h45v90H60v-165a15.017,15.017,0,0,1,15-15H247.1Z" fill="#B8113C"/>
    </g>
  </g>
</svg>
