<svg xmlns="http://www.w3.org/2000/svg" width="57.13" height="199.63" viewBox="0 0 57.13 199.63">
  <g id="_3-vertical-dots" data-name="3-vertical-dots" transform="translate(0.067 0.063)">
    <path id="Path_3" data-name="Path 3" d="M28.5,71.25a28.532,28.532,0,1,0,20.143,8.357A28.532,28.532,0,0,0,28.5,71.25Zm0,42.75a14.264,14.264,0,1,1,10.072-4.178A14.264,14.264,0,0,1,28.5,114Z" fill="#e44499"/>
    <path id="Path_4" data-name="Path 4" d="M28.5,57A28.53,28.53,0,1,0,8.356,48.644,28.53,28.53,0,0,0,28.5,57Zm0-42.75a14.266,14.266,0,1,1-10.072,4.178A14.266,14.266,0,0,1,28.5,14.25Z" fill="#e44499"/>
    <path id="Path_5" data-name="Path 5" d="M28.5,142.5a28.532,28.532,0,1,0,20.143,8.357A28.532,28.532,0,0,0,28.5,142.5Zm0,42.75a14.264,14.264,0,1,1,10.072-4.178A14.264,14.264,0,0,1,28.5,185.25Z" fill="#e44499"/>
  </g>
</svg>
