<svg xmlns="http://www.w3.org/2000/svg" xmlns:xlink="http://www.w3.org/1999/xlink" width="212.045" height="212.045" viewBox="0 0 212.045 212.045">
  <defs>
    <clipPath id="clip-path">
      <rect id="Rectangle_1" data-name="Rectangle 1" width="212.045" height="212.045" fill="#B8113C"/>
    </clipPath>
  </defs>
  <g id="bookmark-fill" clip-path="url(#clip-path)">
    <path id="Path_1" data-name="Path 1" d="M167.871,0H44.84C34.82,0,26.022,8.243,26.022,18V200a13.948,13.948,0,0,0,2.374,8.091,9.2,9.2,0,0,0,7.6,3.954,13.721,13.721,0,0,0,8.717-3.675l55.044-46.735a10.9,10.9,0,0,1,13.361,0l54.86,46.724c2.822,2.409,5.657,3.683,8.512,3.683,4.828,0,9.534-3.724,9.534-12.045V18A18.2,18.2,0,0,0,167.871,0Z" fill="#B8113C"/>
  </g>
</svg>
