<svg xmlns="http://www.w3.org/2000/svg" xmlns:xlink="http://www.w3.org/1999/xlink" width="212.04" height="212.04" viewBox="0 0 212.04 212.04">
  <defs>
    <clipPath id="clip-path">
      <rect id="Rectangle_1" data-name="Rectangle 1" width="212.04" height="212.04" fill="#B8113C"/>
    </clipPath>
  </defs>
  <g id="bookmark-outline" clip-path="url(#clip-path)">
    <path id="Path_1" data-name="Path 1" d="M172.282,0H39.757A13.252,13.252,0,0,0,26.5,13.252V198.787A13.251,13.251,0,0,0,39.8,212.04a13.115,13.115,0,0,0,7.289-2.246l54.587-47.047a6.629,6.629,0,0,1,8.654,0l54.587,47.047a13.114,13.114,0,0,0,7.289,2.246,13.252,13.252,0,0,0,13.332-13.253V13.252A13.253,13.253,0,0,0,172.283,0ZM159.03,169.718l-35.709-30.766-12.974-11.185a6.629,6.629,0,0,0-8.654,0L88.719,138.952,53.01,169.718V33.131A6.626,6.626,0,0,1,59.636,26.5H152.4a6.627,6.627,0,0,1,6.626,6.625Z" fill="#B8113C"/>
  </g>
</svg>
