<svg xmlns="http://www.w3.org/2000/svg" xmlns:xlink="http://www.w3.org/1999/xlink" width="122.88" height="107.68" viewBox="0 0 122.88 107.68">
  <defs>
    <clipPath id="clip-path">
      <rect id="Rectangle_1" data-name="Rectangle 1" width="122.88" height="107.68" fill="#B8113C"/>
    </clipPath>
  </defs>
  <g id="heart-outline" clip-path="url(#clip-path)">
    <path id="Path_1" data-name="Path 1" d="M61.43,13.531A39.891,39.891,0,0,1,78.96,1.692a34.154,34.154,0,0,1,34.83,8.43,31.256,31.256,0,0,1,9.09,22.02c0,13.7-6.6,26.75-17.42,39.37-10.14,11.83-24.05,23.35-39.61,34.73a7.458,7.458,0,0,1-8.5.22v.01l-.03-.02v.01l-.02-.01-.21-.15c-4.46-2.92-8.75-5.91-12.8-8.94s-8.01-6.22-11.83-9.56C12.58,70.422,0,51.4,0,32.132a31.293,31.293,0,0,1,8.93-22.08,33.333,33.333,0,0,1,15.79-9.03h0a34.58,34.58,0,0,1,19.05.69A40.166,40.166,0,0,1,61.43,13.531Zm22.08,2.34c-5.49,1.78-11,6.15-15.51,13.91a7.44,7.44,0,0,1-13,.19c-4.5-7.82-10.14-12.27-15.78-14.08a19.852,19.852,0,0,0-10.88-.4h-.02a18.3,18.3,0,0,0-8.7,4.95,16.566,16.566,0,0,0-4.67,11.7c0,14.53,10.59,29.82,27.3,44.43,3.28,2.87,6.95,5.82,10.95,8.81,2.61,1.96,5.35,3.92,8.04,5.74,13.03-9.76,24.53-19.53,32.9-29.3,8.58-10,13.8-19.92,13.8-29.68a16.451,16.451,0,0,0-4.76-11.57,18.953,18.953,0,0,0-8.8-5.06A19.438,19.438,0,0,0,83.51,15.872Z" fill="#B8113C"/>
  </g>
</svg>
