<svg xmlns="http://www.w3.org/2000/svg" width="527.972" height="527.972" viewBox="0 0 527.972 527.972">
  <g id="plus-circle" transform="translate(0 0)">
    <g id="Group_2" data-name="Group 2">
      <g id="Group_1" data-name="Group 1">
        <path id="Path_1" data-name="Path 1" d="M263.986,527.972a264,264,0,1,1,101.024-20.1,262.676,262.676,0,0,1-101.024,20.1Zm0-475.174a211.184,211.184,0,1,0,149.335,61.855A209.805,209.805,0,0,0,263.986,52.8Zm0,316.783a26.4,26.4,0,0,1-26.4-26.4v-52.8h-52.8a26.4,26.4,0,1,1,0-52.8h52.8v-52.8a26.4,26.4,0,1,1,52.8,0v52.8h52.8a26.4,26.4,0,0,1,0,52.8h-52.8v52.8A26.4,26.4,0,0,1,263.986,369.581Z" fill="#dc61e7"/>
      </g>
    </g>
  </g>
</svg>
