<svg xmlns="http://www.w3.org/2000/svg" width="375.369" height="512.073" viewBox="0 0 375.369 512.073">
  <path id="sent-tip-1" d="M160.29,330.1c0,10.9,12.544,20.128,27.392,20.128,26.859,0,48.7,18.592,48.7,41.461,0,19.733-16.309,36.224-38.037,40.373v12.576a10.667,10.667,0,0,1-21.334,0V432.063c-21.738-4.16-38.058-20.65-38.058-40.373a10.666,10.666,0,1,1,21.333,0c0,10.9,12.544,20.117,27.392,20.117s27.371-9.2,27.371-20.117-12.523-20.128-27.371-20.128c-26.869,0-48.725-18.592-48.725-41.461,0-19.734,16.32-36.224,38.058-40.374V278.7a10.667,10.667,0,0,1,21.334,0v11.029c21.728,4.16,38.037,20.651,38.037,40.374a10.667,10.667,0,1,1-21.334,0c0-10.432-11.487-19.211-25.461-19.968a4.937,4.937,0,0,1-3.818,0c-13.984.768-25.483,9.546-25.483,19.968Zm215.072,77.578c.5,54.176-40.587,102.966-87.925,104.395H86.775C27.49,512.074.237,458.037,0,407.829c-.469-99.915,78.827-220.811,137.824-260.438C106.647,121.29,69.719,68.853,70.21,42.367c.469-9.92,2.123-20.277,10.891-24.3,9.333-4.277,17.845,2.389,25.344,8.245,4.928,3.851,12.32,9.632,16.149,8.821,2.2-.491,5.067-3.9,7.68-9.109a10.585,10.585,0,0,1,1.013-1.621C144.7,6.559,155.063-.769,165.719.063c12.95.949,19.648,13.259,26.134,25.163,4.2,7.723,8.544,15.7,14.421,21.568a17.04,17.04,0,0,0,1.472,1.312,66.872,66.872,0,0,0,6.368-7.115c10.475-12.757,29.973-36.523,71.072-20.1A10.662,10.662,0,0,1,291.9,30.8c0,24.267-14.517,58.357-32.426,85.909,18.912-5.973,39.221-10.016,52.565-10.016,34.987,0,38.773,20.971,38.773,29.995,0,13.781-6.89,36.906-53.045,36.906a207.251,207.251,0,0,1-34.176-3.274C316.9,222.7,374.573,322.645,375.362,407.679ZM312.034,128.031c-20.928,0-49.077,9.078-66.475,16.64,14.379,3.68,34.55,7.6,52.214,7.6,31.712,0,31.712-11.723,31.712-15.573-.011-2.816-.011-8.662-17.451-8.662ZM161.4,138.357a7.154,7.154,0,0,1,.63.6c.213.107.448.075.65.192,14.72,8.224,29.451,7.915,49.611-.533a8.153,8.153,0,0,1,1.067-.214C235.31,121.517,265.6,70.52,270.03,38.242c-21.259-5.867-30.1,4.928-39.4,16.277-6,7.307-12.192,14.848-21.877,15.328-6.187.459-11.947-2.379-17.547-7.957-8.064-8.064-13.387-17.835-18.08-26.464-2.827-5.184-7.093-13.035-9.355-14.176.15.171-4.277,1.312-14.869,15.253-5.707,10.965-12.971,17.515-21.6,19.456-13.632,3.061-25.376-6.112-33.973-12.821-.523-.416-1.109-.864-1.707-1.333-.032.4-.053.832-.075,1.28C91.2,61.848,130.847,119.3,161.4,138.36ZM354.03,407.871c-.715-78.858-56.171-171.37-103.318-219.6a164.341,164.341,0,0,0,26.251,34.976,10.664,10.664,0,1,1-15.062,15.1c-18.069-18.038-30.293-38.8-38.111-55.542-4.086,10.506-9.835,22.058-17.814,32.224A10.663,10.663,0,1,1,189.2,201.865c9.707-12.362,15.542-27.743,18.849-39.092-18.816,5.589-35.062,4.778-50.635-2.4C108.557,186.911,20.866,308.554,21.335,407.722c.192,39.989,20.747,83.019,65.44,83.019H286.946c38.827-1.28,67.435-44.758,67.083-82.87Z" transform="translate(0.002 0)" fill="#B8113C"/>
</svg>
