<svg xmlns="http://www.w3.org/2000/svg" xmlns:xlink="http://www.w3.org/1999/xlink" width="94.56" height="122.88" viewBox="0 0 94.56 122.88">
  <defs>
    <clipPath id="clip-path">
      <rect id="Rectangle_1" data-name="Rectangle 1" width="94.56" height="122.88" fill="#B8113C"/>
    </clipPath>
  </defs>
  <g id="sent-tip" clip-path="url(#clip-path)">
    <path id="Path_1" data-name="Path 1" d="M38.14,21.152c-1.9-5.6-3.6-11.25-5.05-17,5.38-5.9,26.15-5.12,32.13-.09l-5.53,13.15c2.98-3.91,3.98-5.51,5.75-7.69a16.779,16.779,0,0,1,2.11,1.64c1.57,1.42,2.98,3,3.26,5.19a5.43,5.43,0,0,1-1.49,4.35L56.63,35.482a27.9,27.9,0,0,1-4.78-1.21c.72-1.69,1.59-3.56,2.31-5.25L49.54,34a17.258,17.258,0,0,0-12.29,1.5L24.37,20.052a4.3,4.3,0,0,1-1.11-2.76c.01-3.73,5.57-6.96,8.5-8.18Zm16.5,27.91-2.51-11.49c10.76,2,28.01,23.89,33.58,33.84a94.814,94.814,0,0,1,7.38,16.93c4.06,15.14.15,29.3-16.27,32.6-10.29,2.07-29.48,2.21-40.3,1.65-11.63-.6-29.64-.58-34.34-12.53-7.59-19.28,6.32-42.25,19-56.31a68.259,68.259,0,0,1,5.18-5.17c4.61-4.06,9.59-8.87,15.52-10.88l-5.74,10.68,8.33-11.04h4.39Zm-5.35,9.43v2.03a19.329,19.329,0,0,1,5.54,1.33,11.009,11.009,0,0,1,4.03,3.02,12.812,12.812,0,0,1,2.1,3.17,7.359,7.359,0,0,1,.74,2.99,3.568,3.568,0,0,1-1.1,2.61,3.676,3.676,0,0,1-2.68,1.1q-2.97,0-3.84-3.2a6.841,6.841,0,0,0-4.8-5.01v12.55c2.49.68,4.49,1.31,5.96,1.87a12.135,12.135,0,0,1,3.97,2.44,11.355,11.355,0,0,1,2.89,3.96,12.512,12.512,0,0,1,1.01,5.05,13.179,13.179,0,0,1-1.62,6.43,12.865,12.865,0,0,1-4.76,4.91,16.775,16.775,0,0,1-7.46,2.25v2.05a7.1,7.1,0,0,1-.35,2.59,1.463,1.463,0,0,1-1.52.81,1.686,1.686,0,0,1-1.52-.66,3.833,3.833,0,0,1-.43-2.06v-2.68a18.912,18.912,0,0,1-6.17-1.66,14.534,14.534,0,0,1-4.41-3.15,13.235,13.235,0,0,1-2.6-3.92,10.3,10.3,0,0,1-.84-4,3.608,3.608,0,0,1,1.13-2.6,3.771,3.771,0,0,1,2.81-1.16,4.037,4.037,0,0,1,2.3.63,3.336,3.336,0,0,1,1.3,1.78,38.925,38.925,0,0,0,1.41,3.79,7.493,7.493,0,0,0,1.83,2.4,8.117,8.117,0,0,0,3.24,1.66V85.792A36.753,36.753,0,0,1,38.7,83.3a11.339,11.339,0,0,1-4.4-3.9,11.569,11.569,0,0,1-1.69-6.51,11.515,11.515,0,0,1,3.3-8.5q3.3-3.315,9.54-3.86V58.56c0-1.69.64-2.53,1.9-2.53C48.65,56.022,49.29,56.842,49.29,58.492Zm-3.83,19.46V66.4a10.355,10.355,0,0,0-3.95,1.99,4.7,4.7,0,0,0-1.42,3.75,4.636,4.636,0,0,0,1.33,3.6,12.163,12.163,0,0,0,4.04,2.212Zm3.83,8.95v13.22a8.246,8.246,0,0,0,4.7-2.44,6.264,6.264,0,0,0,1.66-4.29,5.144,5.144,0,0,0-1.62-4.06A12.9,12.9,0,0,0,49.29,86.9Z" fill="#B8113C" fill-rule="evenodd"/>
  </g>
</svg>
