<svg xmlns="http://www.w3.org/2000/svg" width="447.998" height="448.265" viewBox="0 0 447.998 448.265">
  <g id="ppv_paid" transform="translate(-32 -32)">
    <path id="Path_1" data-name="Path 1" d="M208,32a176,176,0,1,0,0,352,169.71,169.71,0,0,0,48-6.72V376A120,120,0,0,1,376,256h1.28A169.712,169.712,0,0,0,384,208,176.112,176.112,0,0,0,208,32Zm0,160a47.888,47.888,0,0,1,16,93.056v8.272a16,16,0,0,1-32,0v-8.272A48,48,0,0,1,160,240a16,16,0,1,1,32,0,16,16,0,1,0,16-16,47.888,47.888,0,0,1-16-93.056v-8.272a16,16,0,0,1,32,0v8.272A48,48,0,0,1,256,176a16,16,0,1,1-32,0,16,16,0,1,0-16,16Z" fill="#B8113C"/>
    <path id="Path_2" data-name="Path 2" d="M376,272a104.127,104.127,0,1,0,73.5,30.5A104.127,104.127,0,0,0,376,272Zm43.312,93.984L376.64,408.656a16,16,0,0,1-22.624,0l-21.328-21.344a16,16,0,1,1,22.626-22.626L365.328,374.7l31.36-31.36a16,16,0,1,1,22.624,22.64Z" fill="#B8113C"/>
  </g>
</svg>
