<svg xmlns="http://www.w3.org/2000/svg" xmlns:xlink="http://www.w3.org/1999/xlink" width="100" height="150" viewBox="0 0 100 150">
  <defs>
    <clipPath id="clip-path">
      <rect id="Rectangle_1" data-name="Rectangle 1" width="100" height="150" fill="#B8113C"/>
    </clipPath>
  </defs>
  <g id="mic" clip-path="url(#clip-path)">
    <path id="Path_1" data-name="Path 1" d="M72.992,25.388V63.743c0,32.907-45.984,32.907-45.984,0V25.388C27.008-8.457,72.992-8.457,72.992,25.388ZM55.71,118.014v26.045a5.716,5.716,0,0,1-11.42,0V117.953a49.6,49.6,0,0,1-15.174-4.278A50.726,50.726,0,0,1,14.686,103.6l-.061-.109A50.354,50.354,0,0,1,3.8,87.362,49.64,49.64,0,0,1,0,68.252a5.692,5.692,0,0,1,9.75-4.034l.122.122a5.7,5.7,0,0,1,1.548,3.912,38.112,38.112,0,0,0,2.925,14.7,39,39,0,0,0,21,20.987,38.278,38.278,0,0,0,29.409,0,38.86,38.86,0,0,0,12.541-8.409l.1-.085A39,39,0,0,0,85.7,82.987,38.11,38.11,0,0,0,88.58,68.252a5.716,5.716,0,0,1,11.42,0,49.546,49.546,0,0,1-3.8,19.074A50.514,50.514,0,0,1,85.314,103.6l-.11.1a50.4,50.4,0,0,1-14.321,9.969A49.8,49.8,0,0,1,55.7,117.941Z" fill="#B8113C"/>
  </g>
</svg>
