<svg xmlns="http://www.w3.org/2000/svg" xmlns:xlink="http://www.w3.org/1999/xlink" width="96.916" height="96.916" viewBox="0 0 96.916 96.916">
  <defs>
    <clipPath id="clip-path">
      <rect id="Rectangle_1" data-name="Rectangle 1" width="96.916" height="96.916" fill="#B8113C"/>
    </clipPath>
  </defs>
  <g id="wallet-active" clip-path="url(#clip-path)">
    <path id="Path_1" data-name="Path 1" d="M96.884,26.89l-1.268-6.931a2,2,0,0,0-1.967-1.641h-.01a2,2,0,0,0-1.961,1.658L80.271,85.7l-58.135,0A4.863,4.863,0,0,1,18.5,84.077a6.213,6.213,0,0,1-1.551-4.527c.426-3.7,3.1-6.385,6.354-6.385H71.822A2,2,0,0,0,73.793,71.5L85.151,4.351A2,2,0,0,0,83.18,2.017H34.7c-11.059,0-21.855,8.994-24.068,20.042L.276,72.776A19.269,19.269,0,0,0,4.348,88.5a18.5,18.5,0,0,0,14.426,6.4l.926,0h.055c3.094,0,62.265.007,62.882.007a4.613,4.613,0,0,0,4.543-3.857L96.893,27.55A1.976,1.976,0,0,0,96.884,26.89Z" fill="#B8113C"/>
  </g>
</svg>
