<svg id="wallet-dollar" xmlns="http://www.w3.org/2000/svg" width="54.334" height="54.332" viewBox="0 0 54.334 54.332">
  <path id="Path_1" data-name="Path 1" d="M27.167,54.332A27.166,27.166,0,1,1,54.334,27.166,27.2,27.2,0,0,1,27.167,54.332ZM27.167,7A20.167,20.167,0,1,0,47.334,27.166,20.19,20.19,0,0,0,27.167,7Z" fill="#B8113C"/>
  <path id="Path_2" data-name="Path 2" d="M29.576,12.2v.274a5.478,5.478,0,0,0,1.959.671,15.71,15.71,0,0,1,3.721,1.483A2.639,2.639,0,0,1,34,19.607a2.856,2.856,0,0,1-1.37-.353c-.531-.284-1.061-.541-1.587-.761-.9-.376-1.665.324-1.665,1.429v1.954a2.936,2.936,0,0,0,1.913,2.586c4.591,1.6,6.587,3.951,6.587,7.835,0,3.776-2.495,6.391-6.337,7.4-1.069.28-1.966.824-1.966,1.4v1.038a2.037,2.037,0,0,1-4.073,0V41.071c0-.584-.893-1.16-1.967-1.416a19.912,19.912,0,0,1-5.75-2.384,2.691,2.691,0,0,1,1.371-5.014,2.838,2.838,0,0,1,1.527.51,17.241,17.241,0,0,0,3.1,1.618A1.382,1.382,0,0,0,25.7,32.96V30.731a2.923,2.923,0,0,0-1.913-2.582c-4.357-1.5-6.508-3.661-6.508-7.761,0-3.707,2.435-6.37,6.259-7.366a7.33,7.33,0,0,0,1.967-.586V12.2a2.037,2.037,0,1,1,4.073,0ZM25.7,20.858V19.57c0-1.105-.977-1.981-1.853-1.308A2.135,2.135,0,0,0,23,20.038a2.2,2.2,0,0,0,.923,1.921C24.794,22.634,25.7,21.963,25.7,20.858ZM29.38,31.713v1.444c0,1.1.97,1.976,1.865,1.329a2.184,2.184,0,0,0,.916-1.875,2.322,2.322,0,0,0-1-2.014C30.283,29.931,29.38,30.608,29.38,31.713Z" fill="#B8113C"/>
</svg>
