<svg xmlns="http://www.w3.org/2000/svg" xmlns:xlink="http://www.w3.org/1999/xlink" width="135.414" height="28" viewBox="0 0 135.414 28">
  <defs>
    <clipPath id="clip-path">
      <rect id="Rectangle_1" data-name="Rectangle 1" width="135.414" height="28" fill="#B8113C"/>
    </clipPath>
  </defs>
  <g id="fx-logo" clip-path="url(#clip-path)">
    <path id="Path_3" data-name="Path 3" d="M132.886,23.475h.383v.273H122.227v-.273h.355a1.179,1.179,0,0,0,1.093-1.121,1.2,1.2,0,0,0-.164-.574l-3.553-5.439-5.33,7.407q-3.062,4.236-6.833,4.236a7.516,7.516,0,0,1-1.421-.137v-.273a6.292,6.292,0,0,0,3.335-1.257,9.2,9.2,0,0,0,1.12-1.093q.438-.519,1.148-1.476l6.778-9.266-5.22-8.008a4.184,4.184,0,0,0-1.2-1.121,2.877,2.877,0,0,0-1.558-.465h-.382V4.616h10.987v.273h-.328a1.022,1.022,0,0,0-.929.574.982.982,0,0,0-.191.574.945.945,0,0,0,.191.547l3.088,4.728,4.428-6.7a12.911,12.911,0,0,1,3.171-3.28A6.508,6.508,0,0,1,134.717.024a4.141,4.141,0,0,1,.683.055V.352a4.1,4.1,0,0,0-2.951,1.5,23.9,23.9,0,0,0-2.16,2.761L124.5,13.28l5.63,8.609a3.712,3.712,0,0,0,1.668,1.367A2.923,2.923,0,0,0,132.886,23.475Z" fill="#B8113C"/>
    <path id="Path_4" data-name="Path 4" d="M14.911,5.193a3.267,3.267,0,0,1,.364.911,3.625,3.625,0,0,1,.182,1.154,2.341,2.341,0,0,1-.516,1.7,1.806,1.806,0,0,1-1.336.486H7.228v3.432h6.651a2.741,2.741,0,0,1,.395.881,3.628,3.628,0,0,1,.182,1.154,2.292,2.292,0,0,1-.516,1.67,1.805,1.805,0,0,1-1.336.486H7.289v6.408a8.461,8.461,0,0,1-1.063.182,10.8,10.8,0,0,1-1.4.091,5.767,5.767,0,0,1-1.245-.122,2.031,2.031,0,0,1-.881-.364,1.641,1.641,0,0,1-.547-.759,3.7,3.7,0,0,1-.182-1.275V8.017a2.79,2.79,0,0,1,.759-2.065A2.79,2.79,0,0,1,4.8,5.193Zm8.436,15.124a7.616,7.616,0,0,0,1.124-.091,3,3,0,0,0,.941-.3v-2.43l-2.187.182a3.362,3.362,0,0,0-1.4.364.981.981,0,0,0-.547.911,1.268,1.268,0,0,0,.456,1A2.736,2.736,0,0,0,23.347,20.317ZM23.1,8.382a12.281,12.281,0,0,1,2.976.334,6.363,6.363,0,0,1,2.308,1.033,4.4,4.4,0,0,1,1.488,1.731,5.444,5.444,0,0,1,.516,2.46v6.8a1.9,1.9,0,0,1-.456,1.306,4.288,4.288,0,0,1-1.032.85,10.851,10.851,0,0,1-5.558,1.184,12.893,12.893,0,0,1-2.915-.3,7.081,7.081,0,0,1-2.217-.911,4.356,4.356,0,0,1-1.427-1.549,4.7,4.7,0,0,1-.486-2.187,4.113,4.113,0,0,1,1.245-3.219,6.716,6.716,0,0,1,3.857-1.4l3.978-.425v-.213a1.27,1.27,0,0,0-.79-1.245,4.933,4.933,0,0,0-2.217-.395,10.327,10.327,0,0,0-2.247.243,11.941,11.941,0,0,0-1.974.607,2.121,2.121,0,0,1-.668-.82,2.737,2.737,0,0,1-.273-1.184,1.94,1.94,0,0,1,.365-1.245,2.992,2.992,0,0,1,1.184-.82,9.113,9.113,0,0,1,2.065-.486A18.423,18.423,0,0,1,23.1,8.382Zm19.8,5.861a1.624,1.624,0,0,0-.547-1.366,2.083,2.083,0,0,0-1.427-.456,4.99,4.99,0,0,0-1.215.152,3.038,3.038,0,0,0-1,.456V23.566a7.054,7.054,0,0,1-.972.182,9.448,9.448,0,0,1-1.336.091,7.428,7.428,0,0,1-1.215-.091,2.032,2.032,0,0,1-.881-.365,1.89,1.89,0,0,1-.577-.729,3.6,3.6,0,0,1-.182-1.245V12.3a2.422,2.422,0,0,1,.334-1.336,3.928,3.928,0,0,1,.972-.941,8.723,8.723,0,0,1,2.581-1.184,12.576,12.576,0,0,1,3.492-.456A8.135,8.135,0,0,1,46.213,9.9a5.036,5.036,0,0,1,1.853,4.16v9.505a7.057,7.057,0,0,1-.972.182,9.451,9.451,0,0,1-1.336.091,7.427,7.427,0,0,1-1.215-.091,2.032,2.032,0,0,1-.881-.365,1.89,1.89,0,0,1-.577-.729A3.6,3.6,0,0,1,42.9,21.41Zm20.8,4.95a4.274,4.274,0,0,1-1.731,3.614,8.391,8.391,0,0,1-5.1,1.306,14.427,14.427,0,0,1-2.369-.182,7.408,7.408,0,0,1-1.883-.547,3.683,3.683,0,0,1-1.215-.972,2.486,2.486,0,0,1-.122-2.581,3,3,0,0,1,.729-.85,13.254,13.254,0,0,0,2,.881,8.776,8.776,0,0,0,2.642.364,2.972,2.972,0,0,0,1.427-.273.819.819,0,0,0,.516-.729.762.762,0,0,0-.365-.668,3.376,3.376,0,0,0-1.215-.395l-.911-.182a8.759,8.759,0,0,1-3.948-1.61A4.025,4.025,0,0,1,50.89,13.18a4.191,4.191,0,0,1,1.853-3.553,6.873,6.873,0,0,1,2.1-.941,10.534,10.534,0,0,1,2.733-.334,11.374,11.374,0,0,1,2.1.182A6.492,6.492,0,0,1,61.4,9.02a3.022,3.022,0,0,1,1.154.881,1.894,1.894,0,0,1,.425,1.245,2.618,2.618,0,0,1-.911,2.035,3.278,3.278,0,0,0-.729-.3,7.319,7.319,0,0,0-1.063-.3,11.129,11.129,0,0,0-1.184-.243,6.854,6.854,0,0,0-1.063-.091,3.927,3.927,0,0,0-1.549.243.729.729,0,0,0-.547.7.643.643,0,0,0,.3.547,3.492,3.492,0,0,0,1.154.395l.941.213a8.738,8.738,0,0,1,4.13,1.852A3.909,3.909,0,0,1,63.706,19.193Zm15.828-14A3.261,3.261,0,0,1,79.9,6.1a3.625,3.625,0,0,1,.182,1.154,2.341,2.341,0,0,1-.516,1.7,1.806,1.806,0,0,1-1.336.486H71.851v3.432H78.5a2.743,2.743,0,0,1,.395.881,3.628,3.628,0,0,1,.182,1.154,2.292,2.292,0,0,1-.516,1.67,1.805,1.805,0,0,1-1.336.486H71.911v6.408a8.46,8.46,0,0,1-1.063.182,10.8,10.8,0,0,1-1.4.091,5.767,5.767,0,0,1-1.245-.122,2.031,2.031,0,0,1-.881-.364,1.64,1.64,0,0,1-.547-.759,3.705,3.705,0,0,1-.182-1.275V8.017a2.79,2.79,0,0,1,.759-2.065,2.79,2.79,0,0,1,2.065-.759ZM96.929,16.217a9.265,9.265,0,0,1-.577,3.371,6.8,6.8,0,0,1-4.13,3.978,9.686,9.686,0,0,1-3.25.516,9.2,9.2,0,0,1-3.249-.547A7.428,7.428,0,0,1,83.2,21.987a7.242,7.242,0,0,1-1.61-2.49,8.845,8.845,0,0,1-.577-3.28,8.758,8.758,0,0,1,.577-3.249,6.927,6.927,0,0,1,1.61-2.46,7.194,7.194,0,0,1,2.521-1.579,9.2,9.2,0,0,1,3.249-.547,8.761,8.761,0,0,1,3.25.577,6.892,6.892,0,0,1,2.49,1.579A6.733,6.733,0,0,1,96.352,13,8.671,8.671,0,0,1,96.929,16.217Zm-10.629,0a4.956,4.956,0,0,0,.7,2.855,2.368,2.368,0,0,0,2,.972,2.191,2.191,0,0,0,1.944-1,4.894,4.894,0,0,0,.7-2.824,4.745,4.745,0,0,0-.7-2.794,2.445,2.445,0,0,0-3.948,0A4.745,4.745,0,0,0,86.3,16.217Zm18.31,7.349a7.036,7.036,0,0,1-.972.182,9.444,9.444,0,0,1-1.336.091,7.437,7.437,0,0,1-1.215-.091,2.03,2.03,0,0,1-.88-.365,1.885,1.885,0,0,1-.577-.729,3.6,3.6,0,0,1-.182-1.245V12.3a2.624,2.624,0,0,1,.243-1.184,2.946,2.946,0,0,1,.759-.911,5.051,5.051,0,0,1,1.184-.7,11.657,11.657,0,0,1,1.549-.577,11.511,11.511,0,0,1,1.7-.364,10.345,10.345,0,0,1,1.761-.152,4.056,4.056,0,0,1,2.308.577,2,2,0,0,1,.85,1.822,3.081,3.081,0,0,1-.121.85,3.9,3.9,0,0,1-.3.729q-.637,0-1.306.061t-1.306.182q-.637.122-1.214.273a4.669,4.669,0,0,0-.942.3Z" fill="#B8113C"/>
  </g>
</svg>
