<?xml version="1.0" encoding="utf-8"?>
<!-- Generator: Adobe Illustrator 16.0.0, SVG Export Plug-In . SVG Version: 6.00 Build 0)  -->
<!DOCTYPE svg PUBLIC "-//W3C//DTD SVG 1.1//EN" "http://www.w3.org/Graphics/SVG/1.1/DTD/svg11.dtd">
<svg version="1.1" id="Layer_1" xmlns="http://www.w3.org/2000/svg" xmlns:xlink="http://www.w3.org/1999/xlink" x="0px" y="0px"
	 width="724.785px" height="852.743px" viewBox="0 0 724.785 852.743" enable-background="new 0 0 724.785 852.743"
	 xml:space="preserve">
<g>
	<defs>
		<rect id="SVGID_1_" width="724.785" height="865.882"/>
	</defs>
	<clipPath id="SVGID_2_">
		<use xlink:href="#SVGID_1_"  overflow="visible"/>
	</clipPath>
	<path clip-path="url(#SVGID_2_)" fill="#FFBBE2" d="M395.239,492.109l151.823,151.824c-38.702,38.613-92.119,62.49-151.11,62.49
		c-118.203,0-214.024-95.82-214.024-214.024c0-25.884,4.593-50.675,13.02-73.638c2.876-7.892,6.242-15.584,10.01-23.03
		c10.255-20.221,23.61-38.569,39.461-54.464l59.079,59.079l15.919,15.94l60.974,60.953L395.239,492.109z"/>
	<path clip-path="url(#SVGID_2_)" fill="#EA3D9F" d="M592.811,576.516c-10.857,25.37-26.485,48.244-45.748,67.418L395.239,492.109
		l-14.848-14.87l-60.975-60.952l-15.918-15.941l-59.102-59.102l55.713-57.407l114.28-117.691l6.51-6.688
		c2.119,4.681,4.036,9.497,5.73,14.401c6.242,17.925,9.631,37.187,9.631,57.252c0,17.3-2.519,34.021-7.245,49.805
		c-4.437,14.915-10.813,28.983-18.861,41.913l37.142-38.234l38.413-39.572c8.293,18.615,13.354,38.992,14.446,60.417
		c0.156,2.943,0.223,5.886,0.223,8.851c0,46.907-18.95,89.399-49.56,120.232l0.156,0.179L592.811,576.516z"/>
</g>
</svg>
