<svg xmlns="http://www.w3.org/2000/svg" width="516.17" height="464.02" viewBox="0 0 516.17 464.02">
  <g id="pending-approval" transform="translate(-0.001)">
    <path id="Path_1" data-name="Path 1" d="M605.943,488.406l-112.518,1.979a13.508,13.508,0,0,1-.475-27.012L605.468,461.4a6.326,6.326,0,0,1,6.436,6.214l.253,14.362a6.326,6.326,0,0,1-5.791,6.414Q606.155,488.4,605.943,488.406Z" transform="translate(-341.914 -217.99)" fill="#B8113C"/>
    <path id="Path_2" data-name="Path 2" d="M584.213,492.077,491.9,496.291a6.325,6.325,0,0,1-6.608-6.03l-.977-21.4a6.326,6.326,0,0,1,6.031-6.608l92.311-4.214a6.325,6.325,0,0,1,6.608,6.03l.977,21.4a6.334,6.334,0,0,1-5.792,6.593C584.373,492.068,584.293,492.073,584.213,492.077Z" transform="translate(-341.914 -217.99)" fill="#2f2e41"/>
    <path id="Path_3" data-name="Path 3" d="M428.108,675.684V555.967a6.333,6.333,0,0,1,6.326-6.326H448.8a6.333,6.333,0,0,1,6.326,6.326V675.684a6.333,6.333,0,0,1-6.326,6.326H434.433a6.333,6.333,0,0,1-6.325-6.326Z" transform="translate(-341.914 -217.99)" fill="#B8113C"/>
    <path id="Path_4" data-name="Path 4" d="M465.8,675.684V555.967a6.333,6.333,0,0,1,6.326-6.326H486.49a6.333,6.333,0,0,1,6.326,6.326V675.684a6.333,6.333,0,0,1-6.326,6.326H472.128a6.333,6.333,0,0,1-6.326-6.326Z" transform="translate(-341.914 -217.99)" fill="#B8113C"/>
    <circle id="Ellipse_1" data-name="Ellipse 1" cx="49.633" cy="49.633" r="49.633" transform="translate(78.006 107.447)" fill="#B8113C"/>
    <path id="Path_5" data-name="Path 5" d="M496.419,392.017a11.771,11.771,0,0,0,4.3-2.523,7.915,7.915,0,0,0,2.314-6.266,5.325,5.325,0,0,0-2.367-4.1c-1.775-1.139-4.149-1.142-6.566-.077l.091-19.376-1.946-.009-.108,22.779,1.5-.943c1.739-1.092,4.223-1.861,5.977-.735a3.42,3.42,0,0,1,1.481,2.646,5.982,5.982,0,0,1-1.72,4.672c-2.149,2.053-5.285,2.7-8.861,3.269l.308,1.922a32.076,32.076,0,0,0,5.6-1.259Z" transform="translate(-341.914 -217.99)" fill="#2f2e41"/>
    <rect id="Rectangle_1" data-name="Rectangle 1" width="10.483" height="1.946" transform="translate(161.947 142.077) rotate(-7.523)" fill="#2f2e41"/>
    <rect id="Rectangle_2" data-name="Rectangle 2" width="10.483" height="1.946" transform="translate(129.143 146.408) rotate(-7.523)" fill="#2f2e41"/>
    <path id="Path_6" data-name="Path 6" d="M364.254,371.152l71.261,87.1a13.507,13.507,0,1,1-20.908,17.107l-71.262-87.1a6.325,6.325,0,0,1,.89-8.9l11.117-9.1a6.326,6.326,0,0,1,8.9.89Z" transform="translate(-341.914 -217.99)" fill="#B8113C"/>
    <path id="Path_7" data-name="Path 7" d="M388.02,390.591l58.516,71.52a6.325,6.325,0,0,1-.89,8.9l-18.988,15.536a6.325,6.325,0,0,1-8.9-.89L359.24,414.139a6.333,6.333,0,0,1,.89-8.9L379.118,389.7a6.326,6.326,0,0,1,8.9.89Z" transform="translate(-341.914 -217.99)" fill="#2f2e41"/>
    <path id="Path_336" data-name="Path 336" d="M793.716,303.645a9.427,9.427,0,0,0-8.621-5.768H613.023A9.333,9.333,0,0,0,603.7,307.2V524.893a9.333,9.333,0,0,0,9.328,9.328H785.1a9.34,9.34,0,0,0,9.328-9.328V307.2a9.162,9.162,0,0,0-.707-3.56Zm-1.364,221.248a7.265,7.265,0,0,1-7.256,7.256H613.023a7.257,7.257,0,0,1-7.256-7.253V307.206a7.266,7.266,0,0,1,7.256-7.256H785.1a7.292,7.292,0,0,1,6.735,4.565,8.035,8.035,0,0,1,.273.819,7.192,7.192,0,0,1,.248,1.873Z" transform="translate(-341.914 -217.99)" fill="#3f3d56"/>
    <path id="Path_337" data-name="Path 337" d="M757.807,349.272H705.976a4.147,4.147,0,1,1,0-8.294h51.831a4.147,4.147,0,1,1,0,8.293Z" transform="translate(-341.914 -217.99)" fill="#3f3d56"/>
    <path id="Path_338" data-name="Path 338" d="M757.807,371.041H705.976a4.147,4.147,0,1,1,0-8.294h51.831a4.147,4.147,0,1,1,0,8.293Z" transform="translate(-341.914 -217.99)" fill="#3f3d56"/>
    <path id="Path_339" data-name="Path 339" d="M679.382,383.436H641.505a4.67,4.67,0,0,1-4.665-4.665v-44.7a4.67,4.67,0,0,1,4.665-4.665h37.878a4.67,4.67,0,0,1,4.665,4.665v44.7a4.67,4.67,0,0,1-4.666,4.665Z" transform="translate(-341.914 -217.99)" fill="#B8113C"/>
    <path id="Path_340" data-name="Path 340" d="M757.447,415.616H640.31a4.147,4.147,0,1,1,0-8.293H757.447a4.147,4.147,0,1,1,0,8.294Z" transform="translate(-341.914 -217.99)" fill="#ccc"/>
    <path id="Path_341" data-name="Path 341" d="M757.447,437.385H640.31a4.147,4.147,0,1,1,0-8.294H757.447a4.147,4.147,0,1,1,0,8.293Z" transform="translate(-341.914 -217.99)" fill="#ccc"/>
    <path id="Path_342" data-name="Path 342" d="M757.447,459.153H640.31a4.147,4.147,0,1,1,0-8.294H757.447a4.147,4.147,0,1,1,0,8.293Z" transform="translate(-341.914 -217.99)" fill="#ccc"/>
    <path id="Path_343" data-name="Path 343" d="M757.447,480.922H640.31a4.147,4.147,0,1,1,0-8.294H757.447a4.147,4.147,0,1,1,0,8.293Z" transform="translate(-341.914 -217.99)" fill="#ccc"/>
    <path id="Path_344" data-name="Path 344" d="M757.447,502.691H640.31a4.147,4.147,0,1,1,0-8.294H757.447a4.147,4.147,0,1,1,0,8.293Z" transform="translate(-341.914 -217.99)" fill="#ccc"/>
    <circle id="Ellipse_44" data-name="Ellipse 44" cx="59.362" cy="59.362" r="59.362" transform="translate(397.447 0)" fill="#B8113C"/>
    <circle id="Ellipse_2" data-name="Ellipse 2" cx="6.985" cy="6.985" r="6.985" transform="translate(448.675 86.252)" fill="#fff"/>
    <path id="Path_8" data-name="Path 8" d="M796.826,238.343a20.213,20.213,0,0,0-20.01,19.864v1.736a5.124,5.124,0,0,0,5.124,5.124h0a5.127,5.127,0,0,0,5.126-5.127h0v-1.094a9.718,9.718,0,1,1,14.96,8.181h0s-7.293,4.7-9.516,11.136h0a14.273,14.273,0,0,0-.588,4.065c0,.566.033,5.515.1,9.532a5.282,5.282,0,0,0,5.283,5.2h0a5.283,5.283,0,0,0,5.283-5.284v-.033c-.022-3.679-.034-7.963-.034-8.274,0-3.955,3.815-7.9,6.949-10.465a21.077,21.077,0,0,0,7.249-11.54,13.177,13.177,0,0,0,.38-2.86,20.157,20.157,0,0,0-20.159-20.158Z" transform="translate(-341.914 -217.99)" fill="#fff"/>
    <path id="Path_9" data-name="Path 9" d="M457.111,353.111c8.886-5.842,20.055-3.214,29.931-2.451,8.924.69,19.5.01,25.779-7.281,6.53-7.586,5.985-18.848.578-26.872-5.322-7.9-14.155-12.884-23.5-14.2a37.7,37.7,0,0,0-29.3,8.091l3.176,1.316c-1.851-17.7-14.861-33.691-32.317-38.03-17.661-4.39-37.412,3.1-46.835,18.85-9.289,15.524-8.189,37.187,5.182,50.088,6.421,6.2,15.156,9.352,24.02,7.668,8.175-1.553,15.439-7.513,16.969-15.929,1.418-7.8-1.68-16.663-9.268-20.07a15.13,15.13,0,0,0-13.224.211,12.854,12.854,0,0,0-6.518,10.283,11.363,11.363,0,0,0,1.209,5.936c1.053,2.15,4.264.267,3.213-1.878a8.628,8.628,0,0,1,1.783-9.47c2.758-2.882,7.113-3.36,10.778-2.182,6.707,2.156,9.668,9.85,8.4,16.377-1.416,7.311-7.657,12.009-14.764,13.212-7.728,1.308-15.265-1.955-20.63-7.444-11.235-11.494-12.208-30.008-4.629-43.726,7.689-13.917,24.089-21.39,39.711-19.056,15.448,2.308,28.17,14.459,32.134,29.44a37.7,37.7,0,0,1,1.06,5.721,1.889,1.889,0,0,0,3.176,1.316c13.2-10.963,35.155-9.787,45.978,4,5.308,6.763,6.872,17.266.674,24.06-5.9,6.469-15.7,6.476-23.764,5.767-10.312-.906-21.648-3.037-30.885,3.035-1.993,1.31-.131,4.534,1.878,3.213Z" transform="translate(-341.914 -217.99)" fill="#2f2e41"/>
    <path id="Path_10" data-name="Path 10" d="M497.133,597.715H422.71a5.588,5.588,0,0,1-5.582-5.582V567.325a5.588,5.588,0,0,1,5.582-5.582h74.423a5.588,5.588,0,0,1,5.582,5.582v24.808a5.588,5.588,0,0,1-5.582,5.582Z" transform="translate(-341.914 -217.99)" fill="#2f2e41"/>
    <path id="Path_11" data-name="Path 11" d="M499.676,475.407c-2.33-11.916-11.38-21.353-23.126-25.233,4.242-1.365,6.938-3.386,6.938-5.646,0-4.11-8.885-7.442-19.846-7.442s-19.846,3.332-19.846,7.442c0,2.293,2.77,4.343,7.119,5.708-18.008,5.369-31.078,21.041-31.078,39.5,0,0-5.543,35.535-9.9,63.941-2.784,18.173,12.43,34.416,32.229,34.416H511.8c4.561,0,8.272-3.44,8.272-7.669C520.077,580.419,507.246,514.116,499.676,475.407Z" transform="translate(-341.914 -217.99)" fill="#2f2e41"/>
  </g>
</svg>
