<svg xmlns="http://www.w3.org/2000/svg" width="448" height="448" viewBox="0 0 448 448">
  <g id="ppv_pending" transform="translate(-32 -32)">
    <path id="Path_1" data-name="Path 1" d="M208,32a176,176,0,1,0,0,352,169.71,169.71,0,0,0,48-6.72V376A120,120,0,0,1,376,256h1.28A169.712,169.712,0,0,0,384,208,176.112,176.112,0,0,0,208,32Zm0,160a47.888,47.888,0,0,1,16,93.056v8.272a16,16,0,0,1-32,0v-8.272A48,48,0,0,1,160,240a16,16,0,1,1,32,0,16,16,0,1,0,16-16,47.888,47.888,0,0,1-16-93.056v-8.272a16,16,0,0,1,32,0v8.272A48,48,0,0,1,256,176a16,16,0,1,1-32,0,16,16,0,1,0-16,16Z" fill="#e44499"/>
    <path id="Path_2" data-name="Path 2" d="M376,480A104,104,0,1,0,272,376,104,104,0,0,0,376,480Zm10.363-79.886,2.217-81.478H363.3l2.273,81.478ZM366.307,432.5a13.272,13.272,0,0,0,9.66,3.977,12.908,12.908,0,0,0,6.7-1.818,14.681,14.681,0,0,0,4.943-4.943,13.2,13.2,0,0,0,1.989-6.875,13.041,13.041,0,0,0-4.147-9.546,13.512,13.512,0,0,0-19.148,0,12.728,12.728,0,0,0-3.977,9.546,12.973,12.973,0,0,0,3.98,9.659Z" fill="#e44499" fill-rule="evenodd"/>
  </g>
</svg>
