<svg xmlns="http://www.w3.org/2000/svg" xmlns:xlink="http://www.w3.org/1999/xlink" width="20" height="20" viewBox="0 0 20 20">
  <defs>
    <clipPath id="clip-path">
      <rect id="Rectangle_1" data-name="Rectangle 1" width="20" height="20" fill="#B8113C"/>
    </clipPath>
  </defs>
  <g id="token-icon-new" clip-path="url(#clip-path)">
    <path id="Path_1" data-name="Path 1" d="M17.744,10.1,15.568,6.74a.908.908,0,0,0-.765-.416H5.2a.908.908,0,0,0-.764.415L2.256,10.1a.913.913,0,0,0,.084,1.1l6.979,7.835a.912.912,0,0,0,.68.305h0a.912.912,0,0,0,.68-.305l6.98-7.836a.914.914,0,0,0,.085-1.1ZM14.362,7.107l-1.83,2.83L10.7,7.107Zm-2.548,3.158H8.184L10,7.46ZM9.3,7.107,7.471,9.929,5.646,7.107Zm-4.374.322,1.835,2.837H3.081Zm-1.68,3.617H7.177l2.079,6.747ZM10,17.552,8,11.046h4Zm.743.242,2.079-6.748h3.932Zm2.508-7.529L15.084,7.43l1.836,2.835Z" fill="#B8113C"/>
    <path id="Path_2" data-name="Path 2" d="M1.185,10.265H.391a.391.391,0,0,0,0,.781h.794a.391.391,0,0,0,0-.781Z" fill="#B8113C"/>
    <path id="Path_3" data-name="Path 3" d="M19.611,10.265h-.794a.391.391,0,0,0,0,.781h.794a.391.391,0,0,0,0-.781Z" fill="#B8113C"/>
    <path id="Path_4" data-name="Path 4" d="M17.078,3.587a.391.391,0,0,0-.552,0l-1.3,1.3a.391.391,0,1,0,.552.552l1.3-1.3A.391.391,0,0,0,17.078,3.587Z" fill="#B8113C"/>
    <path id="Path_5" data-name="Path 5" d="M4.792,4.877l-1.3-1.3a.391.391,0,0,0-.552.552l1.3,1.3a.391.391,0,1,0,.552-.552Z" fill="#B8113C"/>
    <path id="Path_6" data-name="Path 6" d="M10.012.656a.391.391,0,0,0-.391.391V3.592a.391.391,0,1,0,.781,0V1.046a.391.391,0,0,0-.39-.39Z" fill="#B8113C"/>
    <path id="Path_7" data-name="Path 7" d="M10.284,4.637a.39.39,0,1,0,.115.276.39.39,0,0,0-.115-.276Z" fill="#B8113C"/>
  </g>
</svg>
