<svg xmlns="http://www.w3.org/2000/svg" xmlns:xlink="http://www.w3.org/1999/xlink" width="122.88" height="65.06" viewBox="0 0 122.88 65.06">
  <defs>
    <clipPath id="clip-path">
      <rect id="Rectangle_1" data-name="Rectangle 1" width="122.88" height="65.06" fill="#e44499"/>
    </clipPath>
  </defs>
  <g id="view-count" clip-path="url(#clip-path)">
    <path id="Path_1" data-name="Path 1" d="M.95,30.01a94.651,94.651,0,0,1,9.15-9.63C24.44,7.33,41.46.36,59.01.01c17.51-.35,35.47,5.9,51.7,19.29a108.5,108.5,0,0,1,11.24,10.74,3.564,3.564,0,0,1,.23,4.51,73.182,73.182,0,0,1-14.07,14.96A71.917,71.917,0,0,1,63.35,65.06a78.982,78.982,0,0,1-45.8-14.57A82.228,82.228,0,0,1,.77,34.64a3.55,3.55,0,0,1,.18-4.63Zm60.49-3.55a6.42,6.42,0,0,1,1.71.24,2.823,2.823,0,0,0,4.06,3.92,6,6,0,0,1,.3,1.9,6.07,6.07,0,1,1-6.07-6.06Zm0-15.64a21.714,21.714,0,1,1-15.35,6.36,21.715,21.715,0,0,1,15.35-6.36ZM71.89,22.08a14.775,14.775,0,1,0,4.33,10.45,14.775,14.775,0,0,0-4.33-10.45Zm-57,3.55a86.445,86.445,0,0,0-6.7,6.82A74.739,74.739,0,0,0,21.64,44.68,71.99,71.99,0,0,0,63.33,57.97,64.875,64.875,0,0,0,103.7,43.95,65.757,65.757,0,0,0,114.73,32.7a100.317,100.317,0,0,0-8.51-7.92C91.33,12.51,75,6.79,59.15,7.1c-15.81.32-31.22,6.66-44.26,18.53Z" fill="#e44499"/>
  </g>
</svg>
