<svg xmlns="http://www.w3.org/2000/svg" xmlns:xlink="http://www.w3.org/1999/xlink" width="397" height="511.92" viewBox="0 0 397 511.92">
  <defs>
    <clipPath id="clip-path">
      <rect id="Rectangle_1" data-name="Rectangle 1" width="397" height="511.92" fill="#B8113C"/>
    </clipPath>
  </defs>
  <g id="attach" clip-path="url(#clip-path)">
    <path id="Path_1" data-name="Path 1" d="M370.42,212.778a14.792,14.792,0,0,1,23.57,17.88L216.08,464.628a120.671,120.671,0,0,1-167.31,23.8,15.632,15.632,0,0,1-2.56-1.94,120.691,120.691,0,0,1-22.71-166.5,15.362,15.362,0,0,1,1.86-2.47L239.33,36.148c16.39-19.23,34.57-31.3,54.79-34.97,20.41-3.71,41.94,1.25,64.75,16.18l.97.69.26.2.03.02c10.88,8.4,19.01,17.76,24.58,27.84a73.584,73.584,0,0,1,9.17,34.68,89.3,89.3,0,0,1-9.87,42.56c-5.75,11.55-13.57,22.01-21.92,32.99l-198.2,260.67A50.191,50.191,0,0,1,94.98,427.6a14.615,14.615,0,0,1-2.69-2.05,50.167,50.167,0,0,1-8.27-69.24L255.26,131.1a14.8,14.8,0,1,1,23.57,17.89L107.59,374.2a20.707,20.707,0,0,0,3.91,28.82l.05.05a20.738,20.738,0,0,0,28.77-3.95l198.2-260.67c7.26-9.55,14.07-18.66,18.9-28.34a60.888,60.888,0,0,0,6.85-28.86A44.287,44.287,0,0,0,358.7,60.4c-3.56-6.45-8.94-12.61-16.3-18.34-16.01-10.43-30.3-14.04-43.06-11.73-13.02,2.37-25.5,11.03-37.5,25.07L48.04,336.588a91.239,91.239,0,0,0,16.22,126.46,13.688,13.688,0,0,1,2.14,1.62,91.248,91.248,0,0,0,125.45-17.06,16.133,16.133,0,0,1,1.65-2.17l176.92-232.66Z" fill="#B8113C"/>
  </g>
</svg>
