<svg xmlns="http://www.w3.org/2000/svg" width="122.9" height="90.801" viewBox="0 0 122.9 90.801">
  <path id="camera" d="M46.86.051H90.48l10,17.7H120.9a2,2,0,0,1,2,2V88.8a2,2,0,0,1-2,2H2a2,2,0,0,1-2-2V19.731a2,2,0,0,1,2-2h9.21l11.35.02H34.92l7.71-15.22C44.19-.569,43.34.051,46.86.051ZM66.64,31.7a19.55,19.55,0,0,1,13.83,33.38l-.23.21A19.55,19.55,0,1,1,66.64,31.7Zm8.76,10.79a12.38,12.38,0,1,0-.16,17.7L75.4,60a12.38,12.38,0,0,0,0-17.52Zm34.67-16a5.9,5.9,0,1,1-4.172,1.728A5.9,5.9,0,0,1,110.07,26.491Zm-43.42-4.77A29.53,29.53,0,1,1,45.769,30.37,29.53,29.53,0,0,1,66.65,21.721Z" fill="#e44499" fill-rule="evenodd"/>
</svg>
