<svg xmlns="http://www.w3.org/2000/svg" width="109.999" height="134.546" viewBox="0 0 109.999 134.546">
  <path id="mic-off" d="M79.36,23.853V59.888a30.424,30.424,0,0,1-.234,3.77L37.668,14.342C45.316-7.548,79.36-4.382,79.36,23.853ZM1.649,15.281A7.025,7.025,0,0,1,12.4,6.24L36.151,34.488V34.37L72.393,77.483l-.055.05,10.6,12.615L83,90.095l6.918,8.228-.055.053,18.493,22A7.026,7.026,0,1,1,97.6,129.416L78.242,106.39l-.853.407a46.6,46.6,0,0,1-14.271,4.014v18.372a5.362,5.362,0,0,1-10.724,0V110.811a46.466,46.466,0,0,1-14.263-4.019,47.255,47.255,0,0,1-13.549-9.467l-.092-.1A47.268,47.268,0,0,1,14.353,82.069,46.586,46.586,0,0,1,10.78,64.151a5.359,5.359,0,0,1,9.152-3.788l.108.118a5.327,5.327,0,0,1,1.465,3.67,35.88,35.88,0,0,0,2.754,13.814A36.639,36.639,0,0,0,43.94,97.65a36.034,36.034,0,0,0,27.127.2L58.636,83.069c-11.087.436-22.486-7.293-22.486-23.181V56.32ZM91.222,78.045l.031-.079a35.88,35.88,0,0,0,2.754-13.814,5.361,5.361,0,0,1,9.152-3.791l.107.118a5.344,5.344,0,0,1,1.465,3.673,46.645,46.645,0,0,1-5.972,22.861Z" transform="translate(-0.001)" fill="#e44499"/>
</svg>
