<svg xmlns="http://www.w3.org/2000/svg" xmlns:xlink="http://www.w3.org/1999/xlink" width="121.83" height="122.88" viewBox="0 0 121.83 122.88">
  <defs>
    <clipPath id="clip-path">
      <rect id="Rectangle_1" data-name="Rectangle 1" width="121.83" height="122.88" fill="#B8113C"/>
    </clipPath>
  </defs>
  <g id="comments" clip-path="url(#clip-path)">
    <path id="Path_1" data-name="Path 1" d="M55.05,97.68l-24.9,23.88a3.95,3.95,0,0,1-6.89-2.62V97.68H10.1A10.16,10.16,0,0,1,0,87.58V10.1A10.18,10.18,0,0,1,10.1,0H111.73a10.161,10.161,0,0,1,10.1,10.1V87.58a10.161,10.161,0,0,1-10.1,10.1ZM27.53,36.61a3.94,3.94,0,0,1,0-7.87H94.3a3.94,3.94,0,1,1,0,7.87Zm0,25.55a3.94,3.94,0,0,1,0-7.87H82a3.94,3.94,0,0,1,0,7.87Z" fill="#B8113C" fill-rule="evenodd"/>
  </g>
</svg>
