<svg xmlns="http://www.w3.org/2000/svg" width="23.994" height="24.001" viewBox="0 0 23.994 24.001">
  <path id="audio-post-1" d="M22.963.632A2.8,2.8,0,0,0,20.615.059L9.649,2.363A2.824,2.824,0,0,0,7.406,5.117V15.635a4.639,4.639,0,1,0,1.875,3.753s0-.008,0-.013V8.825L22.125,6.093v6.542a4.639,4.639,0,1,0-1.3,8.128.938.938,0,1,0-.593-1.779,2.766,2.766,0,1,1,1.89-2.625v.006a.938.938,0,0,0,1.875,0V2.813A2.8,2.8,0,0,0,22.963.632ZM4.641,22.125a2.766,2.766,0,1,1,2.766-2.766A2.766,2.766,0,0,1,4.641,22.125ZM22.125,4.176,9.281,6.908V5.117a.942.942,0,0,1,.75-.919L21,1.895a.935.935,0,0,1,1.127.918V4.176Z" transform="translate(-0.003 0.001)" fill="#B8113C"/>
</svg>
