<svg xmlns="http://www.w3.org/2000/svg" xmlns:xlink="http://www.w3.org/1999/xlink" width="100" height="91.984" viewBox="0 0 100 91.984">
  <defs>
    <clipPath id="clip-path">
      <rect id="Rectangle_1" data-name="Rectangle 1" width="100" height="91.984" fill="#B8113C"/>
    </clipPath>
  </defs>
  <g id="become-content-creator" clip-path="url(#clip-path)">
    <path id="Path_1" data-name="Path 1" d="M30.029,19.124H87.915A12.123,12.123,0,0,1,100,31.209V79.9A12.123,12.123,0,0,1,87.915,91.984H30.029A12.118,12.118,0,0,1,17.944,79.9V31.209A12.123,12.123,0,0,1,30.029,19.124ZM8.2,60.189a4.1,4.1,0,1,1-8.2,0v-44A16.227,16.227,0,0,1,16.187,0h53.2a4.1,4.1,0,0,1,0,8.2h-53.2A8,8,0,0,0,8.2,16.187v44Zm35.986.057a4.688,4.688,0,0,1,0-9.375H54.281v-10.1a4.688,4.688,0,0,1,9.375,0v10.1h10.1a4.688,4.688,0,0,1,0,9.375H63.664v10.1a4.688,4.688,0,0,1-9.375,0v-10.1Z" fill="#B8113C" fill-rule="evenodd"/>
  </g>
</svg>
