<svg xmlns="http://www.w3.org/2000/svg" width="512.001" height="407.199" viewBox="0 0 512.001 407.199">
  <g id="dashboard-theme-1" transform="translate(0.001 0.194)">
    <path id="Path_1" data-name="Path 1" d="M435.143,76.858a20,20,0,0,0-25.407-2.384c-29.926,20.4-180.03,122.969-196.162,139.1a60,60,0,1,0,84.854,84.854c16.131-16.132,118.7-166.236,139.1-196.162a20.006,20.006,0,0,0-2.385-25.408Zm-165,193.285a20,20,0,1,1-28.287-28.28c6.268-6.194,48.885-36.588,101.319-73.035-36.447,52.434-66.841,95.049-73.033,101.315Z" fill="#B8113C"/>
    <path id="Path_2" data-name="Path 2" d="M92.231,349.024l-24.69,12.044A214.992,214.992,0,0,1,54.06,179.317l28.291,13.57a20,20,0,0,0,17.3-36.066l-27.932-13.4A216.279,216.279,0,0,1,236,40.918V71a20,20,0,0,0,40,0V40.9a213.525,213.525,0,0,1,68.772,18.12,20,20,0,1,0,16.457-36.457A255.79,255.79,0,0,0,43.373,398.115a20,20,0,0,0,25.4,6.86l41-20a20,20,0,1,0-17.538-35.951Z" fill="#B8113C"/>
    <path id="Path_3" data-name="Path 3" d="M489.436,150.773a20,20,0,1,0-36.457,16.457,215.3,215.3,0,0,1-8.6,193.989L418.6,348.944a20,20,0,1,0-17.2,36.115l42,20a20,20,0,0,0,25.225-6.942,255.393,255.393,0,0,0,20.81-247.344Z" fill="#B8113C"/>
  </g>
</svg>
