<svg id="store-icon.svg" xmlns="http://www.w3.org/2000/svg" width="96" height="90.874" viewBox="0 0 96 90.874">
  <path id="Path_3" data-name="Path 3" d="M96,11.785H25.2L23.174,0H5.235A5.232,5.232,0,0,0,0,5.237v5.235H14.352l9.235,53.715a2.671,2.671,0,0,0,2.543,2.141H88.146a5.235,5.235,0,0,0,5.239-5.241V55.856H32.778L31.5,48.435H79.42a12.8,12.8,0,0,0,12.2-10.326Z" fill="#B8113C"/>
  <path id="Path_4" data-name="Path 4" d="M42.326,90.874a9.054,9.054,0,1,0-9.054-9.054A9.054,9.054,0,0,0,42.326,90.874Z" fill="#B8113C"/>
  <path id="Path_5" data-name="Path 5" d="M64.7,81.822a9.054,9.054,0,1,0,9.048-9.056A9.05,9.05,0,0,0,64.7,81.822Z" fill="#B8113C"/>
</svg>
