<svg xmlns="http://www.w3.org/2000/svg" width="528.064" height="528.037" viewBox="0 0 528.064 528.037">
  <g id="plus-circle" transform="translate(0.044 0.065)">
    <g id="Group_2" data-name="Group 2">
      <g id="Group_1" data-name="Group 1">
        <path id="Path_1" data-name="Path 1" d="M263.986,527.972A264,264,0,0,1,1.243,289.848c-13.315-135.113,78.041-258.3,211.213-284.8a264,264,0,1,1,51.531,522.925Zm0-475.174a211.184,211.184,0,1,0,149.335,61.855A211.183,211.183,0,0,0,263.986,52.8Zm0,316.783a26.4,26.4,0,0,1-26.4-26.4v-52.8h-52.8a26.4,26.4,0,1,1,0-52.8h52.8v-52.8a26.4,26.4,0,0,1,52.8,0v52.8h52.8a26.4,26.4,0,0,1,0,52.8h-52.8v52.8a26.4,26.4,0,0,1-26.4,26.4Z" fill="#B8113C"/>
      </g>
    </g>
  </g>
</svg>
