<svg id="date-icon" xmlns="http://www.w3.org/2000/svg" width="96" height="92.601" viewBox="0 0 96 92.601">
  <path id="Path_1" data-name="Path 1" d="M37.671,0A20.658,20.658,0,1,0,58.329,20.658,20.658,20.658,0,0,0,37.671,0ZM24.3,20.658A13.367,13.367,0,1,1,37.671,34.025,13.367,13.367,0,0,1,24.3,20.658Z" fill="#B8113C" fill-rule="evenodd"/>
  <path id="Path_2" data-name="Path 2" d="M7.291,66.837A10.937,10.937,0,0,1,18.228,55.9h1.657a1.225,1.225,0,0,1,.377.06l4.207,1.374A42.518,42.518,0,0,0,34.6,59.324a1.467,1.467,0,0,0,1.516-1.158,33.776,33.776,0,0,1,1.427-4.628,1.041,1.041,0,0,0-.933-1.41A35.248,35.248,0,0,1,26.732,50.4l-4.207-1.374a8.517,8.517,0,0,0-2.64-.42H18.228A18.228,18.228,0,0,0,0,66.837v5.776a7.471,7.471,0,0,0,6.267,7.373,194.862,194.862,0,0,0,31.68,2.547,1,1,0,0,0,.873-1.461,33.816,33.816,0,0,1-1.841-4.442,2.034,2.034,0,0,0-1.888-1.406A187.641,187.641,0,0,1,7.442,72.79a.179.179,0,0,1-.151-.177Z" fill="#B8113C"/>
  <path id="Path_3" data-name="Path 3" d="M72.911,58.575a3.646,3.646,0,0,0-7.291,0v8.617a3.645,3.645,0,0,0,1.5,2.948l4.861,3.535a3.645,3.645,0,1,0,4.288-5.9l-3.359-2.443Z" fill="#B8113C"/>
  <path id="Path_4" data-name="Path 4" d="M69.265,92.6A26.734,26.734,0,1,0,42.531,65.867,26.734,26.734,0,0,0,69.265,92.6Zm0-7.291A19.443,19.443,0,1,0,49.822,65.867,19.443,19.443,0,0,0,69.265,85.31Z" fill="#B8113C" fill-rule="evenodd"/>
</svg>
