<svg xmlns="http://www.w3.org/2000/svg" xmlns:xlink="http://www.w3.org/1999/xlink" width="123" height="66" viewBox="0 0 123 66">
  <defs>
    <clipPath id="clip-path">
      <rect id="Rectangle_1" data-name="Rectangle 1" width="123" height="66" fill="#B8113C"/>
    </clipPath>
  </defs>
  <g id="eye" clip-path="url(#clip-path)">
    <path id="Path_1" data-name="Path 1" d="M.95,30.01a94.65,94.65,0,0,1,9.15-9.63C24.44,7.33,41.46.36,59.01.01c17.51-.35,35.47,5.9,51.7,19.29a108.5,108.5,0,0,1,11.24,10.74,3.564,3.564,0,0,1,.23,4.51,73.182,73.182,0,0,1-14.07,14.96A71.917,71.917,0,0,1,63.35,65.06a78.982,78.982,0,0,1-45.8-14.57A82.228,82.228,0,0,1,.77,34.64,3.55,3.55,0,0,1,.95,30.01Zm60.49-3.55a6.42,6.42,0,0,1,1.71.24,2.823,2.823,0,0,0,4.06,3.92,6,6,0,0,1,.3,1.9,6.07,6.07,0,1,1-6.07-6.06Zm0-15.64a21.714,21.714,0,1,1-15.35,6.36A21.646,21.646,0,0,1,61.44,10.82ZM71.89,22.08a14.775,14.775,0,1,0,4.33,10.45A14.746,14.746,0,0,0,71.89,22.08Zm-57,3.55a86.446,86.446,0,0,0-6.7,6.82A74.738,74.738,0,0,0,21.64,44.68,71.99,71.99,0,0,0,63.33,57.97,64.875,64.875,0,0,0,103.7,43.95,65.757,65.757,0,0,0,114.73,32.7a100.315,100.315,0,0,0-8.51-7.92C91.33,12.51,75,6.79,59.15,7.1,43.34,7.42,27.93,13.76,14.89,25.63Z" fill="#B8113C"/>
  </g>
</svg>
