<svg xmlns="http://www.w3.org/2000/svg" width="83.528" height="96" viewBox="0 0 83.528 96">
  <path id="fashion" d="M65.865,39.32V30.371l8.949-2.983L77.8,12.472C72.555,8.192,65.572,2.993,56.713,0A14.917,14.917,0,0,1,42,12.472,14.917,14.917,0,0,1,27.288,0C18.428,2.993,11.446,8.192,6.2,12.472L9.186,27.388l8.949,2.983V39.32L.236,84.067S12.169,96,42,96,83.764,84.067,83.764,84.067ZM16.943,20.54l-.882-4.41a62.586,62.586,0,0,1,6.758-4.38,23.891,23.891,0,0,0,3.663,3.935A23.865,23.865,0,0,0,42,21.422a23.864,23.864,0,0,0,15.519-5.737,23.894,23.894,0,0,0,3.662-3.935,62.6,62.6,0,0,1,6.758,4.38l-.882,4.41L56.916,23.92V36.7a11.842,11.842,0,0,0-2.759-5.479c-3.364,0-6.27,1.823-8.4,3.74a5.608,5.608,0,0,0-7.293.207c-2.146-1.99-5.139-3.947-8.622-3.947a11.841,11.841,0,0,0-2.76,5.479V23.92ZM42,87.051c-13.2,0-22.189-2.585-27.409-4.754-1.284-.534-2.408-1.068-3.378-1.576L26.445,42.644l.525-1.313a11.954,11.954,0,0,0,2.874,6.093c3.484,0,6.477-1.957,8.622-3.947a5.608,5.608,0,0,0,7.293.206c2.127,1.917,5.034,3.74,8.4,3.74a11.954,11.954,0,0,0,2.874-6.093l.525,1.313L72.787,80.72c-.969.507-2.094,1.042-3.377,1.576C64.19,84.465,55.2,87.051,42,87.051Z" transform="translate(-0.236)" fill="#B8113C"/>
</svg>
