<svg xmlns="http://www.w3.org/2000/svg" width="96" height="96" viewBox="0 0 96 96">
  <path id="image-post" d="M89.272,13.43A14.482,14.482,0,0,1,96,25.674V72.558A23.442,23.442,0,0,1,72.558,96H25.674a14.5,14.5,0,0,1-12.252-6.731l.545.025.543.008H72.558A16.744,16.744,0,0,0,89.3,72.558V14.512Q89.3,13.967,89.272,13.43ZM44.347,49.778l.417.348L77.93,82.688a14.444,14.444,0,0,1-7.6,2.15H14.512a14.444,14.444,0,0,1-7.6-2.15L40.072,50.126l.373-.317a3.353,3.353,0,0,1,3.446-.3ZM70.326,0A14.512,14.512,0,0,1,84.837,14.512V70.326a14.444,14.444,0,0,1-2.166,7.632L49.456,45.347l-.574-.522a10.049,10.049,0,0,0-12.9-.026l-.6.548L2.166,77.957A14.444,14.444,0,0,1,0,70.326V14.512A14.512,14.512,0,0,1,14.512,0ZM60.276,18.977a5.578,5.578,0,1,0,5.578,5.578A5.578,5.578,0,0,0,60.276,18.977Z" fill="#B8113C"/>
</svg>
