<svg xmlns="http://www.w3.org/2000/svg" xmlns:xlink="http://www.w3.org/1999/xlink" width="96" height="96" viewBox="0 0 96 96">
  <defs>
    <clipPath id="clip-path">
      <rect id="Rectangle_1" data-name="Rectangle 1" width="96" height="96" fill="#B8113C"/>
    </clipPath>
  </defs>
  <g id="video-post" clip-path="url(#clip-path)">
    <path id="Path_1" data-name="Path 1" d="M86.267,0H9.733A9.732,9.732,0,0,0,0,9.733V86.267A9.732,9.732,0,0,0,9.733,96H86.267A9.732,9.732,0,0,0,96,86.267V9.753A9.736,9.736,0,0,0,86.267,0ZM58.989,9.38h8.34v8.34h-8.34Zm-15.15,0h8.34v8.34H43.84V9.38Zm-15.169,0h8.34v8.34H28.67ZM21.841,86.659H13.5v-8.34h8.34Zm0-68.939H13.5V9.38h8.34ZM37.011,86.659H28.67v-8.34h8.34Zm15.15,0H43.82v-8.34h8.34Zm15.169,0h-8.34v-8.34h8.34Zm1.845-36.284L37.168,68.86a2.723,2.723,0,0,1-4.082-2.355V29.534a2.723,2.723,0,0,1,4.082-2.355L69.174,45.665A2.71,2.71,0,0,1,69.174,50.375ZM82.5,86.659h-8.34v-8.34H82.5Zm0-68.939h-8.34V9.38H82.5Z" fill="#B8113C"/>
  </g>
</svg>
