<svg id="Group_3" data-name="Group 3" xmlns="http://www.w3.org/2000/svg" xmlns:xlink="http://www.w3.org/1999/xlink" width="20.642" height="24.661" viewBox="0 0 20.642 24.661">
  <defs>
    <clipPath id="clip-path">
      <rect id="Rectangle_2" data-name="Rectangle 2" width="20.642" height="24.661" fill="#fff"/>
    </clipPath>
  </defs>
  <g id="Group_2" data-name="Group 2" clip-path="url(#clip-path)">
    <path id="Path_2" data-name="Path 2" d="M254.319,171.336a6.1,6.1,0,0,1-1.3,1.92l-4.324-4.324-.423-.424-1.737-1.736-.453-.454-1.683-1.683L245.983,163l3.255-3.352.185-.19c.06.133.115.27.163.41a4.957,4.957,0,0,1-.469,4.243l1.058-1.089,1.094-1.127a4.824,4.824,0,0,1,.411,1.721c0,.084.006.168.006.252a4.846,4.846,0,0,1-1.411,3.424l0,.005Z" transform="translate(-237.435 -154.917)" fill="#fff"/>
  </g>
</svg>
