<svg width="48" height="48" viewBox="0 0 48 48" fill="none" xmlns="http://www.w3.org/2000/svg">
<path d="M43.3846 15.8181H4.61538C4.18696 15.8181 3.77608 15.9905 3.47314 16.2974C3.17019 16.6043 3 17.0205 3 17.4545V40.3636C3 40.7976 3.17019 41.2138 3.47314 41.5207C3.77608 41.8275 4.18696 41.9999 4.61538 41.9999H43.3846C43.813 41.9999 44.2239 41.8275 44.5269 41.5207C44.8298 41.2138 45 40.7976 45 40.3636V17.4545C45 17.0205 44.8298 16.6043 44.5269 16.2974C44.2239 15.9905 43.813 15.8181 43.3846 15.8181ZM10.6085 23.5254C10.2989 23.8244 9.88924 23.9939 9.46154 23.9999C9.25044 23.9973 9.0419 23.9529 8.84769 23.869C8.65193 23.7862 8.47163 23.6699 8.31462 23.5254C8.01943 23.2118 7.8521 22.7968 7.84615 22.3636C7.84871 22.1497 7.89261 21.9385 7.97538 21.7418C8.05227 21.5409 8.16755 21.3574 8.31462 21.2018C8.47163 21.0572 8.65193 20.941 8.84769 20.8581C9.24203 20.6953 9.68391 20.6967 10.0772 20.8622C10.4705 21.0277 10.7833 21.3438 10.9477 21.7418C11.0305 21.9385 11.0744 22.1497 11.0769 22.3636C11.071 22.7968 10.9036 23.2118 10.6085 23.5254ZM24 35.4545C22.722 35.4545 21.4728 35.0706 20.4102 34.3514C19.3476 33.6321 18.5194 32.6099 18.0303 31.4139C17.5413 30.2178 17.4133 28.9018 17.6626 27.6321C17.9119 26.3624 18.5273 25.1961 19.431 24.2807C20.3347 23.3653 21.486 22.7419 22.7394 22.4893C23.9928 22.2368 25.292 22.3664 26.4727 22.8618C27.6534 23.3572 28.6626 24.1962 29.3726 25.2726C30.0826 26.349 30.4615 27.6145 30.4615 28.909C30.4615 30.645 29.7808 32.3098 28.569 33.5374C27.3572 34.7649 25.7137 35.4545 24 35.4545ZM39.6854 36.6163C39.4223 36.885 39.0754 37.053 38.7037 37.0917C38.3321 37.1304 37.9587 37.0374 37.6471 36.8286C37.3355 36.6198 37.105 36.308 36.9949 35.9463C36.8848 35.5847 36.9018 35.1956 37.043 34.8452C37.1843 34.4948 37.4411 34.2049 37.7697 34.0248C38.0983 33.8447 38.4783 33.7855 38.8451 33.8573C39.212 33.9292 39.5429 34.1276 39.7815 34.4188C40.0201 34.71 40.1517 35.076 40.1538 35.4545C40.1479 35.8877 39.9806 36.3027 39.6854 36.6163Z" fill="#B8113C"/>
<path d="M41.7693 14.1818H6.23086C5.80244 14.1818 5.39156 14.0094 5.08861 13.7025C4.78567 13.3957 4.61548 12.9794 4.61548 12.5455C4.61548 12.1115 4.78567 11.6952 5.08861 11.3884C5.39156 11.0815 5.80244 10.9091 6.23086 10.9091H41.7693C42.1978 10.9091 42.6086 11.0815 42.9116 11.3884C43.2145 11.6952 43.3847 12.1115 43.3847 12.5455C43.3847 12.9794 43.2145 13.3957 42.9116 13.7025C42.6086 14.0094 42.1978 14.1818 41.7693 14.1818Z" fill="#B8113C"/>
<path d="M38.5386 9.27273H9.46163C9.03321 9.27273 8.62233 9.10032 8.31938 8.79345C8.01644 8.48657 7.84625 8.07035 7.84625 7.63636C7.84625 7.20237 8.01644 6.78616 8.31938 6.47928C8.62233 6.1724 9.03321 6 9.46163 6H38.5386C38.967 6 39.3779 6.1724 39.6808 6.47928C39.9837 6.78616 40.1539 7.20237 40.1539 7.63636C40.1539 8.07035 39.9837 8.48657 39.6808 8.79345C39.3779 9.10032 38.967 9.27273 38.5386 9.27273Z" fill="#B8113C"/>
</svg>
