<svg id="all-post" xmlns="http://www.w3.org/2000/svg" width="96" height="96" viewBox="0 0 96 96">
  <path id="Path_1" data-name="Path 1" d="M60.578,5.72c-1.607,1.607-1.607,4.193-1.607,9.365s0,7.758,1.607,9.365,4.193,1.607,9.365,1.607H80.914c5.172,0,7.758,0,9.365-1.607s1.607-4.193,1.607-9.365,0-7.758-1.607-9.365-4.193-1.607-9.365-1.607H69.943C64.771,4.113,62.185,4.113,60.578,5.72ZM5.721,71.549c-1.607,1.607-1.607,4.193-1.607,9.365s0,7.758,1.607,9.365,4.193,1.607,9.365,1.607H26.057c5.172,0,7.758,0,9.365-1.607s1.607-4.193,1.607-9.365,0-7.758-1.607-9.365-4.193-1.607-9.365-1.607H15.086C9.914,69.942,7.328,69.942,5.721,71.549ZM58.971,58.97c0-5.172,0-7.758,1.607-9.365S64.771,48,69.943,48H80.914c5.172,0,7.758,0,9.365,1.607s1.607,4.193,1.607,9.365V80.913c0,5.172,0,7.758-1.607,9.365s-4.193,1.607-9.365,1.607H69.943c-5.172,0-7.758,0-9.365-1.607s-1.607-4.193-1.607-9.365ZM5.721,5.72C4.114,7.327,4.114,9.913,4.114,15.085V37.028c0,5.172,0,7.758,1.607,9.365S9.914,48,15.086,48H26.057c5.172,0,7.758,0,9.365-1.607s1.607-4.193,1.607-9.365V15.085c0-5.172,0-7.758-1.607-9.365s-4.193-1.607-9.365-1.607H15.086C9.914,4.113,7.328,4.113,5.721,5.72Z" fill="#e44499" fill-rule="evenodd"/>
  <path id="Path_2" data-name="Path 2" d="M8.63,8.63l.013-.008c.011-.006.029-.014.056-.026a3.873,3.873,0,0,1,.914-.2,47.344,47.344,0,0,1,5.471-.164H26.057a47.346,47.346,0,0,1,5.471.164,3.873,3.873,0,0,1,.914.2c.028.011.046.02.056.026l.013.008.008.013c.006.011.014.029.026.056a3.879,3.879,0,0,1,.2.914,47.348,47.348,0,0,1,.164,5.471V37.029A47.344,47.344,0,0,1,32.75,42.5a3.868,3.868,0,0,1-.2.914c-.011.028-.02.046-.026.057l-.008.014-.013.007a.489.489,0,0,1-.056.026,3.863,3.863,0,0,1-.914.2,47.4,47.4,0,0,1-5.471.164H15.086a47.4,47.4,0,0,1-5.471-.164,3.863,3.863,0,0,1-.914-.2.482.482,0,0,1-.056-.026l-.013-.007-.008-.014a.609.609,0,0,1-.026-.057,3.864,3.864,0,0,1-.2-.914,47.341,47.341,0,0,1-.164-5.471V15.086a47.345,47.345,0,0,1,.164-5.471A3.875,3.875,0,0,1,8.6,8.7c.011-.028.02-.046.026-.056ZM14.84,0H26.3a50.943,50.943,0,0,1,6.322.238,9.505,9.505,0,0,1,5.706,2.574,9.5,9.5,0,0,1,2.574,5.706,50.878,50.878,0,0,1,.237,6.322V37.274a50.874,50.874,0,0,1-.237,6.322A9.5,9.5,0,0,1,38.331,49.3a9.5,9.5,0,0,1-5.706,2.574,50.9,50.9,0,0,1-6.322.238H14.84a50.9,50.9,0,0,1-6.322-.238A9.5,9.5,0,0,1,2.812,49.3,9.505,9.505,0,0,1,.238,43.6,50.929,50.929,0,0,1,0,37.274V14.84A50.933,50.933,0,0,1,.238,8.518,9.506,9.506,0,0,1,2.812,2.812,9.506,9.506,0,0,1,8.518.238,50.942,50.942,0,0,1,14.84,0ZM63.5,8.623l-.014.008-.007.013a.588.588,0,0,0-.026.056,3.862,3.862,0,0,0-.2.914,47.4,47.4,0,0,0-.164,5.471,47.4,47.4,0,0,0,.164,5.471,3.863,3.863,0,0,0,.2.914l.012.029c.006.012.014.028.014.028l.007.013.014.008a.6.6,0,0,0,.056.026,3.865,3.865,0,0,0,.914.2,47.338,47.338,0,0,0,5.471.164H80.914a47.336,47.336,0,0,0,5.471-.164,3.865,3.865,0,0,0,.914-.2.6.6,0,0,0,.057-.026l.014-.008.007-.013a.584.584,0,0,0,.026-.056,3.863,3.863,0,0,0,.2-.914,47.4,47.4,0,0,0,.164-5.471,47.4,47.4,0,0,0-.164-5.471,3.862,3.862,0,0,0-.2-.914.587.587,0,0,0-.026-.056L87.37,8.63l-.014-.008A.605.605,0,0,0,87.3,8.6a3.861,3.861,0,0,0-.914-.2,47.338,47.338,0,0,0-5.471-.164H69.943a47.341,47.341,0,0,0-5.471.164,3.861,3.861,0,0,0-.914.2A.605.605,0,0,0,63.5,8.623ZM69.7,0H81.16a50.941,50.941,0,0,1,6.322.238,9.505,9.505,0,0,1,5.706,2.574,9.5,9.5,0,0,1,2.574,5.706A50.876,50.876,0,0,1,96,14.84v.491a50.876,50.876,0,0,1-.238,6.322,9.5,9.5,0,0,1-2.574,5.706,9.506,9.506,0,0,1-5.706,2.574,50.931,50.931,0,0,1-6.322.238H69.7a50.934,50.934,0,0,1-6.322-.238,9.506,9.506,0,0,1-5.706-2.574,9.5,9.5,0,0,1-2.574-5.706,50.9,50.9,0,0,1-.238-6.322V14.84a50.9,50.9,0,0,1,.238-6.322,9.5,9.5,0,0,1,2.574-5.706A9.505,9.505,0,0,1,63.375.238,50.943,50.943,0,0,1,69.7,0Zm0,43.886H81.16a51.011,51.011,0,0,1,6.322.237A8.848,8.848,0,0,1,95.762,52.4,50.875,50.875,0,0,1,96,58.726V81.16a50.869,50.869,0,0,1-.238,6.322,8.848,8.848,0,0,1-8.281,8.281A50.873,50.873,0,0,1,81.16,96H69.7a50.876,50.876,0,0,1-6.322-.238,8.848,8.848,0,0,1-8.281-8.281,50.889,50.889,0,0,1-.238-6.322V58.726a50.9,50.9,0,0,1,.238-6.322,8.848,8.848,0,0,1,8.281-8.281A51.014,51.014,0,0,1,69.7,43.886Zm-6.2,8.623-.014.007-.007.014a.552.552,0,0,0-.026.056,3.861,3.861,0,0,0-.2.915,47.4,47.4,0,0,0-.164,5.471V80.914a47.4,47.4,0,0,0,.164,5.471,3.851,3.851,0,0,0,.2.914.532.532,0,0,0,.026.057l.007.014.014.007a.433.433,0,0,0,.056.026,3.849,3.849,0,0,0,.914.2,47.4,47.4,0,0,0,5.471.164H80.914a47.394,47.394,0,0,0,5.471-.164,3.849,3.849,0,0,0,.914-.2.433.433,0,0,0,.057-.026l.014-.007.007-.014A.531.531,0,0,0,87.4,87.3a3.851,3.851,0,0,0,.2-.914,47.4,47.4,0,0,0,.164-5.471V58.971a47.4,47.4,0,0,0-.164-5.471,3.861,3.861,0,0,0-.2-.915l-.017-.04-.009-.017-.007-.014-.014-.007a.531.531,0,0,0-.057-.026,3.846,3.846,0,0,0-.914-.2,47.372,47.372,0,0,0-5.471-.164H69.943a47.375,47.375,0,0,0-5.471.164,3.846,3.846,0,0,0-.914.2A.53.53,0,0,0,63.5,52.509ZM8.644,74.451l-.013.007-.008.014a.609.609,0,0,0-.026.057,3.87,3.87,0,0,0-.2.914,47.338,47.338,0,0,0-.164,5.471,47.339,47.339,0,0,0,.164,5.471,3.861,3.861,0,0,0,.2.914.608.608,0,0,0,.026.057l.008.014.013.007A.469.469,0,0,0,8.7,87.4a3.861,3.861,0,0,0,.914.2,47.4,47.4,0,0,0,5.471.164H26.057a47.4,47.4,0,0,0,5.471-.164,3.861,3.861,0,0,0,.914-.2l.035-.015.022-.011.013-.007.008-.014.008-.016c0-.01.011-.024.018-.041a3.868,3.868,0,0,0,.2-.914,47.342,47.342,0,0,0,.164-5.471,47.341,47.341,0,0,0-.164-5.471,3.877,3.877,0,0,0-.2-.914c-.011-.028-.02-.046-.026-.057l-.008-.014-.013-.007a.6.6,0,0,0-.056-.026,3.863,3.863,0,0,0-.914-.2,47.4,47.4,0,0,0-5.471-.164H15.086a47.4,47.4,0,0,0-5.471.164,3.863,3.863,0,0,0-.914.2A.587.587,0,0,0,8.644,74.451Zm6.2-8.623H26.3a50.994,50.994,0,0,1,6.322.238,9.5,9.5,0,0,1,5.706,2.574,9.5,9.5,0,0,1,2.574,5.706,50.878,50.878,0,0,1,.237,6.322v.491a50.871,50.871,0,0,1-.237,6.322,9.5,9.5,0,0,1-2.574,5.706,9.5,9.5,0,0,1-5.706,2.574A50.876,50.876,0,0,1,26.3,96H14.84a50.875,50.875,0,0,1-6.322-.238,9.5,9.5,0,0,1-5.706-2.574A9.505,9.505,0,0,1,.238,87.482,50.927,50.927,0,0,1,0,81.16v-.491a50.933,50.933,0,0,1,.238-6.322,9.505,9.505,0,0,1,2.574-5.706,9.5,9.5,0,0,1,5.706-2.574A50.993,50.993,0,0,1,14.84,65.828Z" fill="#e44499" fill-rule="evenodd"/>
</svg>
