<svg xmlns="http://www.w3.org/2000/svg" width="609.625" height="584.476" viewBox="0 0 609.625 584.476">
  <g id="verified-icon" transform="translate(0 -12.575)">
    <g id="Layer_2_87_">
      <path id="Path_5" data-name="Path 5" d="M567.469,245.053a103.005,103.005,0,0,1-21-18.732,96.215,96.215,0,0,1,5.953-29.221c6.561-22.213,14.733-49.858-1.016-71.49-15.863-21.8-44.842-22.536-68.123-23.131A99.826,99.826,0,0,1,454.2,99.353a98.82,98.82,0,0,1-11.82-26.43c-7.768-22.123-17.445-49.658-43.361-58.08C373.873,6.67,351.3,22.2,331.406,35.853A94.76,94.76,0,0,1,304.82,50.8a94.591,94.591,0,0,1-26.6-14.946c-19.9-13.667-42.474-29.146-67.615-21.01-25.909,8.422-35.583,35.943-43.36,58.071a100.753,100.753,0,0,1-11.7,26.343,97.574,97.574,0,0,1-29.2,3.213c-23.28.594-52.259,1.327-68.122,23.13-15.749,21.644-7.578,49.289-1.016,71.5a98.94,98.94,0,0,1,6.009,29.036,99.429,99.429,0,0,1-21.066,18.914C23.369,259.379,0,277.213,0,304.81s23.369,45.431,42.157,59.757a103,103,0,0,1,21,18.732,96.223,96.223,0,0,1-5.953,29.221c-6.561,22.213-14.733,49.86,1.016,71.49,15.863,21.8,44.842,22.536,68.123,23.132a99.826,99.826,0,0,1,29.078,3.126,98.833,98.833,0,0,1,11.82,26.43c7.777,22.127,17.451,49.659,43.366,58.083a45.638,45.638,0,0,0,14.225,2.27c19.5,0,37.314-12.242,53.389-23.28a94.739,94.739,0,0,1,26.587-14.95,94.63,94.63,0,0,1,26.6,14.946c19.9,13.667,42.467,29.134,67.614,21.01,25.909-8.422,35.583-35.943,43.36-58.071a100.752,100.752,0,0,1,11.7-26.343,97.575,97.575,0,0,1,29.2-3.213c23.28-.594,52.259-1.327,68.122-23.13,15.749-21.643,7.578-49.29,1.016-71.5a98.938,98.938,0,0,1-6.009-29.036,99.428,99.428,0,0,1,21.066-18.914c18.776-14.325,42.145-32.159,42.145-59.756s-23.368-45.431-42.156-59.757ZM418.027,259.267,291.021,386.272a25.4,25.4,0,0,1-35.914.006l-.006-.006-63.5-63.5a25.4,25.4,0,0,1,35.464-36.376q.231.225.456.456l45.543,45.544L382.107,223.346a25.4,25.4,0,1,1,36.375,35.465C418.332,258.966,418.18,259.117,418.027,259.267Z" fill="#B8113C"/>
    </g>
  </g>
</svg>
