<svg xmlns="http://www.w3.org/2000/svg" width="512.001" height="512.001" viewBox="0 0 512.001 512.001">
  <g id="check" transform="translate(0 -0.501)">
    <path id="Path_1" data-name="Path 1" d="M512,256.5a254.986,254.986,0,0,1-43.375,142.113,20,20,0,1,1-33.254-22.23,215.459,215.459,0,0,0,29.824-173.9,20,20,0,0,1,38.738-9.973A256.925,256.925,0,0,1,512,256.5ZM367.734,441.4A215.61,215.61,0,0,1,256,472.5c-119.1,0-216-96.9-216-216s96.9-216,216-216a214.72,214.72,0,0,1,122.629,38.16,20,20,0,0,0,22.738-32.91A256.012,256.012,0,0,0,74.98,437.521a256.095,256.095,0,0,0,313.481,38.086A20,20,0,1,0,367.735,441.4Zm-109.8-126.9a11.4,11.4,0,0,1-8.422-3.187L144.761,211.989a20,20,0,0,0-27.523,29.023l104.727,99.3A51.073,51.073,0,0,0,257.406,354.5c.711,0,1.422-.016,2.133-.043a51.117,51.117,0,0,0,36.316-17.117c.238-.262.465-.531.688-.809l211.043-262.5A20,20,0,0,0,476.41,48.97L265.781,310.958a11.434,11.434,0,0,1-7.852,3.535Zm0,0" fill="#e44499"/>
  </g>
</svg>
