<svg xmlns="http://www.w3.org/2000/svg" width="512" height="512" viewBox="0 0 512 512">
  <g id="edit" transform="translate(0)">
    <g id="Group_2" data-name="Group 2">
      <g id="Group_1" data-name="Group 1">
        <path id="Path_1" data-name="Path 1" d="M482,30.006a102.44,102.44,0,0,0-144.875,0L50.826,316.3A20,20,0,0,0,45.7,325.08L.733,486.637a20,20,0,0,0,24.732,24.6l161.557-45.891a20,20,0,0,0,8.7-33.359L93.869,329.827,331.184,92.511l88.258,88.258L237.768,361.948a20,20,0,0,0,28.246,28.323l215.98-215.392a102.439,102.439,0,0,0,0-144.873ZM143.4,436.158,48.827,463.02l26.485-95.152ZM453.73,146.575l-5.965,5.949-88.3-88.3,5.938-5.938a62.441,62.441,0,0,1,88.323,88.286Z" fill="#e44499"/>
      </g>
    </g>
  </g>
</svg>
