<svg xmlns="http://www.w3.org/2000/svg" width="35.191" height="48.007" viewBox="0 0 35.191 48.007">
  <g id="money-bag" transform="translate(-6.405 0.003)">
    <path id="Path_1" data-name="Path 1" d="M21.432,30.944c0,1.022,1.176,1.887,2.568,1.887,2.518,0,4.566,1.743,4.566,3.887A4.088,4.088,0,0,1,25,40.5v1.179a1,1,0,1,1-2,0V40.5a4.09,4.09,0,0,1-3.568-3.785,1,1,0,0,1,2,0c0,1.022,1.176,1.886,2.568,1.886s2.566-.863,2.566-1.886S25.392,34.831,24,34.831c-2.519,0-4.568-1.743-4.568-3.887A4.089,4.089,0,0,1,23,27.159V26.125a1,1,0,0,1,2,0v1.034a4.089,4.089,0,0,1,3.566,3.785,1,1,0,0,1-2,0c0-.978-1.077-1.8-2.387-1.872a.463.463,0,0,1-.358,0C22.51,29.144,21.432,29.967,21.432,30.944ZM41.6,38.217C41.642,43.3,37.79,47.87,33.352,48H14.54c-5.558,0-8.113-5.066-8.135-9.773-.044-9.367,7.39-20.7,12.921-24.416-2.923-2.447-6.385-7.363-6.339-9.846.044-.93.2-1.9,1.021-2.278.875-.4,1.673.224,2.376.773.462.361,1.155.9,1.514.827.206-.046.475-.366.72-.854a.993.993,0,0,1,.095-.152C19.97.612,20.942-.075,21.941,0c1.214.089,1.842,1.243,2.45,2.359a8.719,8.719,0,0,0,1.352,2.022,1.592,1.592,0,0,0,.138.123,6.273,6.273,0,0,0,.6-.667c.982-1.2,2.81-3.424,6.663-1.884a1,1,0,0,1,.629.929c0,2.275-1.361,5.471-3.04,8.054A18.472,18.472,0,0,1,35.658,10c3.28,0,3.635,1.966,3.635,2.812,0,1.292-.646,3.46-4.973,3.46a19.424,19.424,0,0,1-3.2-.307C36.114,20.875,41.521,30.245,41.6,38.217ZM35.658,12a18.048,18.048,0,0,0-6.232,1.56,21.185,21.185,0,0,0,4.895.712c2.973,0,2.973-1.1,2.973-1.46,0-.264,0-.812-1.636-.812Zm-14.122.968c.024.015.037.039.059.056s.042.007.061.018c1.38.771,2.761.742,4.651-.05a.769.769,0,0,1,.1-.02c2.058-1.583,4.9-6.364,5.313-9.39-1.993-.55-2.822.462-3.694,1.526a3.027,3.027,0,0,1-2.051,1.437A2.111,2.111,0,0,1,24.33,5.8a10.391,10.391,0,0,1-1.695-2.481,5.034,5.034,0,0,0-.877-1.329c.014.016-.4.123-1.394,1.43a3.174,3.174,0,0,1-2.025,1.824c-1.278.287-2.379-.573-3.185-1.2l-.16-.125c0,.038-.005.078-.007.12-.033,1.759,3.684,7.145,6.549,8.932ZM39.6,38.235c-.067-7.393-5.266-16.066-9.686-20.588a15.407,15.407,0,0,0,2.461,3.279,1,1,0,1,1-1.412,1.416,18.392,18.392,0,0,1-3.573-5.207,11.909,11.909,0,0,1-1.67,3.021,1,1,0,0,1-1.573-1.234,11.1,11.1,0,0,0,1.767-3.665,6.439,6.439,0,0,1-4.747-.225C16.582,17.52,8.361,28.924,8.4,38.221,8.423,41.97,10.35,46,14.54,46H33.306C36.946,45.884,39.628,41.808,39.6,38.235Z" fill="#e44499"/>
  </g>
</svg>
