<svg xmlns="http://www.w3.org/2000/svg" width="512" height="511.999" viewBox="0 0 512 511.999">
  <g id="phone-call_1_" data-name="phone-call (1)" transform="translate(0 -0.001)">
    <g id="Group_3" data-name="Group 3">
      <g id="Group_2" data-name="Group 2">
        <g id="Group_1" data-name="Group 1">
          <path id="Path_1" data-name="Path 1" d="M445.283,95l60.858-60.858A20,20,0,0,0,477.857,5.859L417,66.717,356.142,5.86a20,20,0,1,0-28.284,28.284L388.716,95,327.858,155.86a20,20,0,1,0,28.284,28.284L417,123.286l60.858,60.858a20,20,0,0,0,28.284-28.284Z" fill="#B8113C"/>
          <path id="Path_2" data-name="Path 2" d="M488.719,360.51c-27.931-26.933-51.332-42.481-73.646-48.929-30.749-8.887-59.227-.8-84.641,24.016l-.115.113-27.066,26.865c-16.811-9.444-49.491-30.227-85.234-65.971l-2.632-2.63c-35.507-35.507-56.423-68.373-65.939-85.253l26.84-27.041.113-.115c24.821-25.414,32.9-53.892,24.016-84.641-6.448-22.313-21.995-45.715-48.929-73.646A76.106,76.106,0,0,0,45.865,19.472l-.574.516q-.4.359-.78.739C15.151,50.085-.239,91.187,0,139.588c.41,82.22,45.6,176.249,120.88,251.528.063.064.128.127.192.19a487.826,487.826,0,0,0,47.757,41.563,20,20,0,0,0,24.339-31.743,447.22,447.22,0,0,1-44-38.3c-.062-.062-.124-.124-.187-.185C81.1,294.683,40.36,211.24,40,139.388,39.815,102.112,51.028,71,72.432,49.374l.153-.138a35.978,35.978,0,0,1,50.108,1.808c51.781,53.7,48.031,79.049,25.151,102.511l-37.075,37.353a20,20,0,0,0-4.075,22.226c.942,2.114,23.709,52.427,80.415,109.132l2.632,2.629c56.7,56.7,107.011,79.466,109.125,80.408a20,20,0,0,0,22.226-4.075l37.346-37.068c23.465-22.883,48.817-26.638,102.517,25.145a35.976,35.976,0,0,1,1.811,50.105l-.141.157C441.175,460.8,410.394,472,373.524,472c-.3,0-.608,0-.912,0-30.133-.151-64.606-8.229-99.689-23.362a20,20,0,1,0-15.843,36.729c39.983,17.246,79.865,26.456,115.332,26.633l1.122,0c47.914,0,88.608-15.379,117.739-44.511.254-.254.5-.513.739-.78l.519-.577a76.11,76.11,0,0,0-3.812-105.622Z" fill="#B8113C"/>
        </g>
      </g>
    </g>
  </g>
</svg>
