<svg xmlns="http://www.w3.org/2000/svg" width="26.029" height="26.013" viewBox="0 0 26.029 26.013">
  <g id="send" transform="translate(-2.986 -2.984)">
    <g id="Group_1" data-name="Group 1">
      <path id="Path_1" data-name="Path 1" d="M28.989,3.776a1.019,1.019,0,0,0-1.3-.739S3.657,11.518,3.642,11.525a1.029,1.029,0,0,0-.655.988,1.04,1.04,0,0,0,.569.858l10.276,4.8s4.782,10.246,4.813,10.3a1.014,1.014,0,0,0,1.833-.115S28.962,4.316,28.963,4.312a.976.976,0,0,0,.026-.536ZM19.405,25.381l-3.619-7.753,3.041-3.041a1,1,0,1,0-1.414-1.414l-3.041,3.041-7.754-3.62L26.38,5.619Z" fill="#B8113C"/>
    </g>
  </g>
</svg>
