<svg id="share" xmlns="http://www.w3.org/2000/svg" width="512" height="512" viewBox="0 0 512 512">
  <g id="Group_2" data-name="Group 2">
    <g id="Group_1" data-name="Group 1">
      <path id="Path_1" data-name="Path 1" d="M426,340a85.861,85.861,0,0,0-66.174,31.131l-66.919-33.283A20,20,0,0,0,275.1,373.662L342.117,407A86.005,86.005,0,1,0,426,340Zm0,132a46,46,0,0,1-42.435-63.754,20.209,20.209,0,0,0,2.424-4.922A46,46,0,1,1,426,472Z" fill="#e44499"/>
    </g>
  </g>
  <g id="Group_4" data-name="Group 4">
    <g id="Group_3" data-name="Group 3">
      <path id="Path_2" data-name="Path 2" d="M426,0a86.04,86.04,0,0,0-83.821,105.281L151.84,200.731a86,86,0,1,0-.2,110.781l32.293,16.435A20,20,0,0,0,202.071,292.3l-32.377-16.477a86.347,86.347,0,0,0,.073-39.332l190.241-95.4A85.985,85.985,0,1,0,426,0ZM86,302a46,46,0,1,1,46-46A46.053,46.053,0,0,1,86,302ZM426,132a46,46,0,1,1,46-46A46.053,46.053,0,0,1,426,132Z" fill="#e44499"/>
    </g>
  </g>
</svg>
