<svg xmlns="http://www.w3.org/2000/svg" width="72" height="72" viewBox="0 0 72 72">
  <g id="small-loader" transform="translate(-14 -14)">
    <g id="Group_2" data-name="Group 2" transform="translate(80 50)">
      <g id="Group_1" data-name="Group 1">
        <circle id="Ellipse_1" data-name="Ellipse 1" cx="6" cy="6" r="6" transform="translate(-6 -6)" fill="#e44499"/>
      </g>
    </g>
    <g id="Group_4" data-name="Group 4" transform="translate(71.213 71.213)">
      <g id="Group_3" data-name="Group 3" transform="rotate(45)">
        <circle id="Ellipse_2" data-name="Ellipse 2" cx="6" cy="6" r="6" transform="translate(-6 -6)" fill="rgba(228,68,153,0.87)"/>
      </g>
    </g>
    <g id="Group_6" data-name="Group 6" transform="translate(50 80)">
      <g id="Group_5" data-name="Group 5" transform="rotate(90)">
        <circle id="Ellipse_3" data-name="Ellipse 3" cx="6" cy="6" r="6" transform="translate(-6 -6)" fill="rgba(228,68,153,0.75)"/>
      </g>
    </g>
    <g id="Group_8" data-name="Group 8" transform="translate(28.787 71.213)">
      <g id="Group_7" data-name="Group 7" transform="rotate(135)">
        <circle id="Ellipse_4" data-name="Ellipse 4" cx="6" cy="6" r="6" transform="translate(-6 -6)" fill="rgba(228,68,153,0.62)"/>
      </g>
    </g>
    <g id="Group_10" data-name="Group 10" transform="translate(20 50)">
      <g id="Group_9" data-name="Group 9" transform="rotate(180)">
        <circle id="Ellipse_5" data-name="Ellipse 5" cx="6" cy="6" r="6" transform="translate(-6 -6)" fill="rgba(228,68,153,0.5)"/>
      </g>
    </g>
    <g id="Group_12" data-name="Group 12" transform="translate(28.787 28.787)">
      <g id="Group_11" data-name="Group 11" transform="rotate(-135)">
        <circle id="Ellipse_6" data-name="Ellipse 6" cx="6" cy="6" r="6" transform="translate(-6 -6)" fill="rgba(228,68,153,0.38)"/>
      </g>
    </g>
    <g id="Group_14" data-name="Group 14" transform="translate(50 20)">
      <g id="Group_13" data-name="Group 13" transform="rotate(-90)">
        <circle id="Ellipse_7" data-name="Ellipse 7" cx="6" cy="6" r="6" transform="translate(-6 -6)" fill="rgba(228,68,153,0.25)"/>
      </g>
    </g>
    <g id="Group_16" data-name="Group 16" transform="translate(71.213 28.787)">
      <g id="Group_15" data-name="Group 15" transform="rotate(-45)">
        <circle id="Ellipse_8" data-name="Ellipse 8" cx="6" cy="6" r="6" transform="translate(-6 -6)" fill="rgba(228,68,153,0.13)"/>
      </g>
    </g>
  </g>
</svg>
