<svg xmlns="http://www.w3.org/2000/svg" width="512" height="354" viewBox="0 0 512 354">
  <g id="video-camera_1_" data-name="video-camera (1)" transform="translate(0 -79)">
    <g id="Group_2" data-name="Group 2">
      <g id="Group_1" data-name="Group 1">
        <path id="Path_1" data-name="Path 1" d="M492,254a20,20,0,0,0,20-20V178.073a60,60,0,0,0-96.1-47.927l-.522.393L354,183.388V159a80.091,80.091,0,0,0-80-80H80A80.091,80.091,0,0,0,0,159V353a80.091,80.091,0,0,0,80,80H274a80.091,80.091,0,0,0,80-80V329.612l60.886,52.423,1.018.819A60,60,0,0,0,512,334.927a20,20,0,0,0-40,0,20,20,0,0,1-31.591,16.3L354,276.828V236.172l86.409-74.4A20,20,0,0,1,472,178.073V234A20,20,0,0,0,492,254ZM314,353a40.045,40.045,0,0,1-40,40H80a40.045,40.045,0,0,1-40-40V159a40.045,40.045,0,0,1,40-40H274a40.045,40.045,0,0,1,40,40Z" fill="#B8113C"/>
      </g>
    </g>
  </g>
</svg>
