<svg xmlns="http://www.w3.org/2000/svg" xmlns:xlink="http://www.w3.org/1999/xlink" width="122.88" height="122.88" viewBox="0 0 122.88 122.88">
  <defs>
    <clipPath id="clip-path">
      <rect id="Rectangle_1" data-name="Rectangle 1" width="122.88" height="122.88" fill="#e44499"/>
    </clipPath>
  </defs>
  <g id="add-img" clip-path="url(#clip-path)">
    <path id="Path_1" data-name="Path 1" d="M61.44,0A61.44,61.44,0,1,1,18,18,61.443,61.443,0,0,1,61.44,0ZM93.79,55.21V67.66a4.63,4.63,0,0,1-4.62,4.62H72.28V89.17a4.63,4.63,0,0,1-4.62,4.62H55.21a4.63,4.63,0,0,1-4.61-4.62V72.28H33.7a4.63,4.63,0,0,1-4.61-4.62V55.21A4.63,4.63,0,0,1,33.7,50.6H50.6V33.7a4.63,4.63,0,0,1,4.61-4.61H67.66a4.63,4.63,0,0,1,4.62,4.61V50.6H89.17A4.63,4.63,0,0,1,93.79,55.21Z" fill="#e44499" fill-rule="evenodd"/>
  </g>
</svg>
