<svg id="congratulation" xmlns="http://www.w3.org/2000/svg" width="769.15" height="500" viewBox="0 0 769.15 500">
  <path id="Path_1" data-name="Path 1" d="M824.505,697.75H809.746a6.507,6.507,0,0,1-6.5-6.5V568.235a6.507,6.507,0,0,1,6.5-6.5H824.5a6.507,6.507,0,0,1,6.5,6.5V691.25a6.507,6.507,0,0,1-6.5,6.5Z" transform="translate(-215.425 -200)" fill="#B8113C"/>
  <path id="Path_2" data-name="Path 2" d="M784.313,697.75h-14.76a6.507,6.507,0,0,1-6.5-6.5V568.235a6.507,6.507,0,0,1,6.5-6.5h14.76a6.507,6.507,0,0,1,6.5,6.5V691.25a6.507,6.507,0,0,1-6.5,6.5Z" transform="translate(-215.425 -200)" fill="#B8113C"/>
  <path id="Path_3" data-name="Path 3" d="M790.555,668.5h-29a4.5,4.5,0,0,1-4.5-4.5V563a4.505,4.505,0,0,1,4.5-4.5h29a4.5,4.5,0,0,1,4.5,4.5V664a4.505,4.505,0,0,1-4.5,4.5Z" transform="translate(-215.425 -200)" fill="#2f2e41"/>
  <path id="Path_4" data-name="Path 4" d="M831.555,668.5h-29a4.5,4.5,0,0,1-4.5-4.5V563a4.505,4.505,0,0,1,4.5-4.5h29a4.505,4.505,0,0,1,4.5,4.5V664a4.5,4.5,0,0,1-4.5,4.5Z" transform="translate(-215.425 -200)" fill="#2f2e41"/>
  <path id="Path_5" data-name="Path 5" d="M782.079,493.49a14.078,14.078,0,0,1-1.28.786L679.182,549.461a6.5,6.5,0,0,1-8.814-2.61l-7.044-12.97.439-.238-.439.238a6.507,6.507,0,0,1,2.61-8.814L767.55,469.881a13.881,13.881,0,0,1,14.528,23.608Z" transform="translate(-215.425 -200)" fill="#B8113C"/>
  <circle id="Ellipse_1" data-name="Ellipse 1" cx="51" cy="51" r="51" transform="translate(531.663 131.357)" fill="#B8113C"/>
  <path id="Path_6" data-name="Path 6" d="M804.051,403.766c-3.306-.092-7.42-.207-10.59-2.522a8.133,8.133,0,0,1-3.2-6.073,5.471,5.471,0,0,1,1.86-4.493c1.656-1.4,4.073-1.727,6.678-.961l-2.7-19.726,1.981-.271,3.173,23.19-1.655-.759c-1.918-.88-4.552-1.328-6.188.055a3.515,3.515,0,0,0-1.153,2.9,6.147,6.147,0,0,0,2.381,4.528c2.467,1.8,5.746,2.034,9.466,2.138Z" transform="translate(-215.425 -200)" fill="#2f2e41"/>
  <rect id="Rectangle_1" data-name="Rectangle 1" width="10.772" height="2" transform="translate(560.104 171.692)" fill="#2f2e41"/>
  <rect id="Rectangle_2" data-name="Rectangle 2" width="10.772" height="2" transform="translate(594.104 171.692)" fill="#2f2e41"/>
  <path id="Path_7" data-name="Path 7" d="M801.656,331.206a42.161,42.161,0,0,1,16.487-30.886,41.064,41.064,0,0,1,35.015-6.678,40.441,40.441,0,0,1,26.883,22.939,42.111,42.111,0,0,1,3.61,17.693,47.832,47.832,0,0,1-4.831,19.067c-3.007,6.552-6.8,12.7-10.094,19.1A152.461,152.461,0,0,0,860.348,392a154.181,154.181,0,0,0-8.321,42.373c-1.224,22.771.954,56.014,26.66,64.753,6.537,2.222,13.589,2.636,20.442,2.618a83.951,83.951,0,0,0,21.42-2.509c12.135-3.241,23.656-10.85,28.826-22.672A31.556,31.556,0,0,0,951.749,468c.108-.81-.767-1.492-1.5-1.5a1.537,1.537,0,0,0-1.5,1.5c-1.674,12.6-12.172,22.259-23.569,26.6a67.7,67.7,0,0,1-20.736,4.011c-7.046.356-14.362.3-21.262-1.321a30.792,30.792,0,0,1-16.014-9.1,41.4,41.4,0,0,1-8.359-15.122c-4.057-12.385-4.483-26-3.77-38.911a151.261,151.261,0,0,1,8.5-42.193,147.94,147.94,0,0,1,8.8-19.958c3.342-6.286,7.054-12.395,9.87-18.947a49.444,49.444,0,0,0,4.445-19.153,45.246,45.246,0,0,0-3.576-17.793,43.371,43.371,0,0,0-25.81-24.361,44.641,44.641,0,0,0-36.016,2.95A45.385,45.385,0,0,0,800,322.43a43.422,43.422,0,0,0-1.342,8.775c-.1,1.93,2.9,1.924,3,0Z" transform="translate(-215.425 -200)" fill="#2f2e41"/>
  <path id="Path_8" data-name="Path 8" d="M811.63,332.259a23.487,23.487,0,0,1,7.857-14.333,23.169,23.169,0,0,1,16.2-5.376c1.93.1,1.925-2.9,0-3a26.1,26.1,0,0,0-26.945,21.911c-.288,1.889,2.6,2.7,2.893.8Z" transform="translate(-215.425 -200)" fill="#2f2e41"/>
  <path id="Path_9" data-name="Path 9" d="M812.706,336.208a5.475,5.475,0,0,1-1.72-.278l-14.244-4.7a5.5,5.5,0,1,1,3.449-10.445l14.244,4.7a5.5,5.5,0,0,1-1.729,10.723Z" transform="translate(-215.425 -200)" fill="#2f2e41"/>
  <path id="Path_10" data-name="Path 10" d="M814.965,453h-2.457a4.072,4.072,0,0,0,.047-.5c0-4.142-6.268-7.5-14-7.5s-14,3.358-14,7.5a4.085,4.085,0,0,0,.047.5h-2.456c-19.1,0-34.591,17.739-34.591,39.622V575a4,4,0,0,0,4,4h94a4,4,0,0,0,4-4V492.622C849.555,470.739,834.069,453,814.965,453Z" transform="translate(-215.425 -200)" fill="#2f2e41"/>
  <path id="Path_395" data-name="Path 395" d="M394.164,381.114a13.123,13.123,0,0,1-7.895-2.624l-.141-.106-29.735-22.746a13.214,13.214,0,1,1,16.079-20.974l19.26,14.769,45.512-59.375a13.208,13.208,0,0,1,18.519-2.446h0l-.282.392.29-.392a13.224,13.224,0,0,1,2.443,18.522l-53.532,69.807a13.216,13.216,0,0,1-10.51,5.153Z" transform="translate(-215.425 -200)" fill="#B8113C"/>
  <path id="Path_11" data-name="Path 11" d="M561.055,466H216.425a1,1,0,0,1-1-1V201a1,1,0,0,1,1-1H388.74a1,1,0,0,1,0,2H217.425V464h342.63V333a1,1,0,0,1,2,0V465A1,1,0,0,1,561.055,466Z" transform="translate(-215.425 -200)" fill="#3f3d56"/>
  <path id="Path_12" data-name="Path 12" d="M703.993,543.358a4.507,4.507,0,0,1-3.9-2.255l-16-27.713a4.5,4.5,0,0,1,1.647-6.147l69.282-40a20.5,20.5,0,1,1,20.5,35.507l-69.282,40a4.473,4.473,0,0,1-2.243.608Z" transform="translate(-215.425 -200)" fill="#2f2e41"/>
  <path id="Path_13" data-name="Path 13" d="M983.575,700h-381a1,1,0,0,1,0-2h381a1,1,0,0,1,0,2Z" transform="translate(-215.425 -200)" fill="#3f3d56"/>
  <path id="Path_14" data-name="Path 14" d="M843.687,602.4a6.517,6.517,0,0,1-6.072,3.62l-14.749-.542a6.507,6.507,0,0,1-6.256-6.734l4.248-115.557a13.88,13.88,0,1,1,27.741,1.02l-4.248,115.556a6.477,6.477,0,0,1-.662,2.638Z" transform="translate(-215.425 -200)" fill="#B8113C"/>
  <path id="Path_15" data-name="Path 15" d="M848.555,565.5h-32a4.5,4.5,0,0,1-4.5-4.5V481a20.5,20.5,0,1,1,41,0v80A4.5,4.5,0,0,1,848.555,565.5Z" transform="translate(-215.425 -200)" fill="#2f2e41"/>
</svg>
