<svg xmlns="http://www.w3.org/2000/svg" width="923.224" height="462.144" viewBox="0 0 923.224 462.144">
  <g id="content-upload" transform="translate(-0.004 0)">
    <path id="Path_1" data-name="Path 1" d="M382.737,439.412h-1.722V392.234a27.305,27.305,0,0,0-27.306-27.306H253.756a27.306,27.306,0,0,0-27.305,27.3V651.057a27.3,27.3,0,0,0,27.3,27.3h99.953a27.306,27.306,0,0,0,27.306-27.3V472.994h1.722Z" transform="translate(-138.389 -218.928)" fill="#e5e5e5"/>
    <path id="Path_2" data-name="Path 2" d="M354.811,372.032H341.764a9.688,9.688,0,0,1-8.97,13.347H275.532a9.688,9.688,0,0,1-8.97-13.347H254.376a20.391,20.391,0,0,0-20.391,20.391V650.867a20.391,20.391,0,0,0,20.392,20.392H354.811a20.391,20.391,0,0,0,20.389-20.39V392.423a20.391,20.391,0,0,0-20.391-20.391Z" transform="translate(-138.389 -218.928)" fill="#fff"/>
    <rect id="Rectangle_1" data-name="Rectangle 1" width="90.396" height="60.985" transform="translate(123.23 261.812)" fill="#fff"/>
    <path id="Path_3" data-name="Path 3" d="M352.327,542.037h-91.02V480.428h91.019Zm-90.4-.623H351.7V481.052H261.931Z" transform="translate(-138.389 -218.928)" fill="#3f3d56"/>
    <path id="Path_4" data-name="Path 4" d="M269.258,528.357h75.118V485.578H269.258Z" transform="translate(-138.389 -218.928)" fill="#e6e6e6"/>
    <circle id="Ellipse_1" data-name="Ellipse 1" cx="7.529" cy="7.529" r="7.529" transform="translate(145.438 278.19)" fill="#B8113C"/>
    <path id="Path_5" data-name="Path 5" d="M314.965,527.848H278.031a.752.752,0,0,1-.138-.011l17.468-30.257a1.223,1.223,0,0,1,2.129,0l11.723,20.3.562.972Z" transform="translate(-138.389 -218.928)" fill="#3f3d56"/>
    <path id="Path_6" data-name="Path 6" d="M176.576,308.92h-12.61l6.19-8.992.446-.648.223-.324.561.972Z" opacity="0.2"/>
    <path id="Path_7" data-name="Path 7" d="M335.53,527.848H303.585l6.19-8.992.445-.648,8.066-11.718a1.632,1.632,0,0,1,2.423-.145,1.452,1.452,0,0,1,.116.145Z" transform="translate(-138.389 -218.928)" fill="#3f3d56"/>
    <path id="Path_8" data-name="Path 8" d="M571.28,678.6H329a21.684,21.684,0,0,1-21.66-21.66V305.571A21.684,21.684,0,0,1,329,283.911H571.28a21.684,21.684,0,0,1,21.66,21.66V656.936A21.684,21.684,0,0,1,571.28,678.6Z" transform="translate(-138.389 -218.928)" fill="#e5e5e5"/>
    <path id="Path_9" data-name="Path 9" d="M571.707,664.777H328.571a6.685,6.685,0,0,1-6.677-6.677V304.408a6.685,6.685,0,0,1,6.677-6.677H571.707a6.684,6.684,0,0,1,6.677,6.677V658.1a6.684,6.684,0,0,1-6.677,6.677Z" transform="translate(-138.389 -218.928)" fill="#fff"/>
    <circle id="Ellipse_2" data-name="Ellipse 2" cx="1.843" cy="1.843" r="1.843" transform="translate(308.985 69.774)" fill="#fff"/>
    <rect id="Rectangle_2" data-name="Rectangle 2" width="191.302" height="129.061" transform="translate(221.777 179.774)" fill="#fff"/>
    <path id="Path_10" data-name="Path 10" d="M552.128,528.423H359.506V398.042H552.128Zm-191.3-1.319h189.98V399.361H360.826Z" transform="translate(-138.389 -218.928)" fill="#3f3d56"/>
    <path id="Path_11" data-name="Path 11" d="M376.332,499.472H535.3V408.94H376.332Z" transform="translate(-138.389 -218.928)" fill="#e6e6e6"/>
    <circle id="Ellipse_3" data-name="Ellipse 3" cx="15.933" cy="15.933" r="15.933" transform="translate(268.775 214.434)" fill="#B8113C"/>
    <path id="Path_12" data-name="Path 12" d="M473.061,498.394H394.9a1.59,1.59,0,0,1-.292-.023l36.967-64.032a2.588,2.588,0,0,1,4.506,0l24.809,42.97,1.189,2.056Z" transform="translate(-138.389 -218.928)" fill="#3f3d56"/>
    <path id="Path_13" data-name="Path 13" d="M334.672,279.466H307.986l13.1-19.028.943-1.371.471-.685,1.188,2.056Z" opacity="0.2"/>
    <path id="Path_14" data-name="Path 14" d="M516.581,498.394h-67.6l13.1-19.029.943-1.371,17.071-24.8a3.454,3.454,0,0,1,5.127-.307,3.077,3.077,0,0,1,.246.306Z" transform="translate(-138.389 -218.928)" fill="#3f3d56"/>
    <path id="Path_15" data-name="Path 15" d="M811.824,674.424,799.56,669.26l-8.413-61.479H679.113l-9.119,61.228L659.022,674.5a2.605,2.605,0,0,0,1.165,4.936H810.813a2.6,2.6,0,0,0,1.011-5.007Z" transform="translate(-138.389 -218.928)" fill="#e6e6e6"/>
    <path id="Path_16" data-name="Path 16" d="M1010.92,615.96H460.574a10.9,10.9,0,0,1-10.879-10.9V527.451h572.1v77.606a10.9,10.9,0,0,1-10.876,10.9Z" transform="translate(-138.389 -218.928)" fill="#ccc"/>
    <path id="Path_17" data-name="Path 17" d="M1022.37,564.13H449.192V232.072a13.159,13.159,0,0,1,13.144-13.144h546.89a13.159,13.159,0,0,1,13.144,13.144Z" transform="translate(-138.389 -218.928)" fill="#e5e5e5"/>
    <path id="Path_18" data-name="Path 18" d="M988.137,540.029H483.426A10.144,10.144,0,0,1,473.293,529.9V253.162a10.145,10.145,0,0,1,10.133-10.133H988.137a10.145,10.145,0,0,1,10.133,10.133V529.9a10.144,10.144,0,0,1-10.133,10.133Z" transform="translate(-138.389 -218.928)" fill="#fff"/>
    <path id="Path_19" data-name="Path 19" d="M1060.33,681.072H139.73a1.317,1.317,0,0,1-1.294-.953,1.285,1.285,0,0,1,1.242-1.613h920.551a1.358,1.358,0,0,1,1.358,1,1.284,1.284,0,0,1-1.253,1.562Z" transform="translate(-138.389 -218.928)" fill="#ccc"/>
    <path id="Path_20" data-name="Path 20" d="M855.678,341.031c2.591-8.257,8.482-15.83,16.63-18.621s22.363-.182,26.206,7.566c5.538,11.167,3.05,24.841.113,36.965-1.531-.081-3.077-.145-4.626-.2l-2.192-7.307v7.235c-12.1-.374-24.69-.14-37.291.1C853.388,358.185,853.087,349.287,855.678,341.031Z" transform="translate(-138.389 -218.928)" fill="#2f2e41"/>
    <path id="Path_21" data-name="Path 21" d="M828.442,436.728l-10.176,4.264-21.291-37.22,15.019-6.294Z" fill="#9f616a"/>
    <path id="Path_22" data-name="Path 22" d="M973.561,664.432,940.75,678.183l-.174-.415a13.848,13.848,0,0,1,7.418-18.123h0l20.04-8.4Z" transform="translate(-138.389 -218.928)" fill="#2f2e41"/>
    <path id="Path_23" data-name="Path 23" d="M817.6,479.836a7.634,7.634,0,0,1,3.1-11.288l21.871-66,14.648,7.812-26.1,62.417a7.675,7.675,0,0,1-13.511,7.056Z" transform="translate(-138.389 -218.928)" fill="#9f616a"/>
    <path id="Path_24" data-name="Path 24" d="M706.181,448.559H695.148L689.9,406h16.284Z" fill="#9f616a"/>
    <path id="Path_25" data-name="Path 25" d="M847.384,678.183H811.808v-.45a13.848,13.848,0,0,1,13.845-13.847h21.731Z" transform="translate(-138.389 -218.928)" fill="#2f2e41"/>
    <path id="Path_26" data-name="Path 26" d="M750.419,206.5l2.5,6.5-.5,6.5-48-6,1.5-5.5,5.5-6.5Z" fill="#9f616a"/>
    <circle id="Ellipse_4" data-name="Ellipse 4" cx="17.475" cy="17.475" r="17.475" transform="translate(717.474 113.06)" fill="#9f616a"/>
    <path id="Path_27" data-name="Path 27" d="M854.808,379.431l10-6,20-2,17.677,4-.177,32.5-11,24-47-5-2-6.539s-13-17.461,1-27.461Z" transform="translate(-138.389 -218.928)" fill="#B8113C"/>
    <path id="Path_28" data-name="Path 28" d="M857.308,380.931l-2.5-1.5s-13.5,2.5-16.5,10.5-6,44-6,44l12.5,1.484,4.5-29.484Z" transform="translate(-138.389 -218.928)" fill="#B8113C"/>
    <path id="Path_29" data-name="Path 29" d="M891.308,435.931v11.106s13,16.894,6,29.894c0,0,15,28,16,38l14,46s35,35,32,60l2,8-23,10-5-7-39-67-33-61-6,72s4,56-7,62l-1,9H823.966v-8.555s-8.657-30.445-3.657-53.445l-2-97s9-41,20-48l4-10Z" transform="translate(-138.389 -218.928)" fill="#2f2e41"/>
    <path id="Path_30" data-name="Path 30" d="M861.331,326.707A21.949,21.949,0,0,1,894.7,345.863c-9.768.449-20.029.566-30.434.586l-2.459-6.018-1.45,6.023q-4.756,0-9.529-.013A22.412,22.412,0,0,1,861.331,326.707Z" transform="translate(-138.389 -218.928)" fill="#2f2e41"/>
    <rect id="Rectangle_3" data-name="Rectangle 3" width="242.749" height="163.77" transform="translate(459.326 169.735) rotate(-14.268)" fill="#fff"/>
    <path id="Path_31" data-name="Path 31" d="M874.358,488.161,637.474,548.4,596.7,388.06l236.884-60.241ZM638.684,546.366l233.639-59.415-39.951-157.1L598.734,389.27Z" transform="translate(-138.389 -218.928)" fill="#3f3d56"/>
    <path id="Path_32" data-name="Path 32" d="M649.112,507.536l195.5-49.716L816.3,346.485,620.8,396.2Z" transform="translate(-138.389 -218.928)" fill="#e6e6e6"/>
    <circle id="Ellipse_5" data-name="Ellipse 5" cx="20.218" cy="20.218" r="20.218" transform="translate(532.324 192.057)" fill="#B8113C"/>
    <path id="Path_33" data-name="Path 33" d="M767.732,475.959,671.609,500.4a2.021,2.021,0,0,1-.367.063l25.436-90.307a3.284,3.284,0,0,1,5.541-1.409l43.949,45.086,2.1,2.157Z" transform="translate(-138.389 -218.928)" fill="#3f3d56"/>
    <path id="Path_34" data-name="Path 34" d="M629.342,257.031l-32.818,8.346,10.159-27.5.731-1.98.366-.991,2.1,2.157Z" opacity="0.2"/>
    <path id="Path_35" data-name="Path 35" d="M821.252,462.349l-83.138,21.142,10.159-27.5L749,454.01l13.238-35.835a4.383,4.383,0,0,1,6.21-1.98,3.9,3.9,0,0,1,.4.3Z" transform="translate(-138.389 -218.928)" fill="#3f3d56"/>
    <path id="Path_36" data-name="Path 36" d="M874.685,458.894a7.862,7.862,0,0,1,1.183.366l30.507-21-.7-8.97,13.4-2.823,2.779,15.76a5.974,5.974,0,0,1-3.241,6.4L880.826,467.26a7.839,7.839,0,1,1-6.14-8.366Z" transform="translate(-138.389 -218.928)" fill="#9f616a"/>
    <path id="Path_37" data-name="Path 37" d="M895.308,376.931l7.177-1.5s15.823-5.5,16.823,14.5l2,47-14.854,2-6.146-41Z" transform="translate(-138.389 -218.928)" fill="#B8113C"/>
  </g>
</svg>
