<svg xmlns="http://www.w3.org/2000/svg" xmlns:xlink="http://www.w3.org/1999/xlink" width="115.34" height="122.88" viewBox="0 0 115.34 122.88">
  <defs>
    <clipPath id="clip-path">
      <rect id="Rectangle_1" data-name="Rectangle 1" width="115.34" height="122.88" fill="#B8113C"/>
    </clipPath>
  </defs>
  <g id="create-post" clip-path="url(#clip-path)">
    <path id="Path_1" data-name="Path 1" d="M57.34,116.35a3.27,3.27,0,0,1,0,6.53H7.6a7.61,7.61,0,0,1-7.6-7.6V7.6A7.61,7.61,0,0,1,7.6,0H98.36A7.61,7.61,0,0,1,106,7.6v54a10.686,10.686,0,0,1-.09,1.43H99.43V7.6a1.09,1.09,0,0,0-1.07-1.07H7.6a1.11,1.11,0,0,0-.76.31,1.13,1.13,0,0,0-.31.76V115.27a1,1,0,0,0,.32.75,1.121,1.121,0,0,0,.76.32Zm35.05.13L76,122.08l.13-18.25,16.29,12.65ZM80.73,97.72l17.68-24a1.6,1.6,0,0,1,1.91-.56L114.8,84a1.384,1.384,0,0,1,.15,2.064L97,110.38ZM29.13,62.84a6.51,6.51,0,0,1-.2-3.36c.46-3.55,1.38-4.21,4.66-5.12,3.68-1,7.84-1.09,11-3.27a10.9,10.9,0,0,0,.74-1.43c.37-.85.71-1.77.92-2.4a30.518,30.518,0,0,1-2.42-3.45l-2.45-3.9A7.17,7.17,0,0,1,40,36.35a2.851,2.851,0,0,1,.25-1.28,2.31,2.31,0,0,1,.84-1,1.93,1.93,0,0,1,.59-.3,62.612,62.612,0,0,1-.12-7,9.885,9.885,0,0,1,.3-1.59A9.43,9.43,0,0,1,46,19.93a13,13,0,0,1,3.47-1.54c.78-.22-.67-2.71.14-2.79,3.89-.4,10.18,3.15,12.9,6.09a9.47,9.47,0,0,1,2.39,6l-.15,6.36A1.74,1.74,0,0,1,66,35.38a5.44,5.44,0,0,1-.67,3.34h0v.09l-2.8,4.59a23.762,23.762,0,0,1-3.42,4.72l.38.54A16.815,16.815,0,0,0,61.27,51a.16.16,0,0,1,.06.08c2.36,1.66,7.2,2.4,10.79,3.34,3,.79,4.1,1,4.77,4.28.34,1.62.35,3.4-.09,4.13ZM26.67,97.89a3.31,3.31,0,0,1,0-6.61H71l-.06.09v2.75h-.43l-.07.05h-.12l-.06.06h-.11l-.06.05h-.06l-.06.06h-.05l-.06.06-.06.06-.06.06v.23l-.06.06v.06h-.05v.12l-.05.06v.32l-.05.06v.48Zm1.27-18.16a3.27,3.27,0,1,1,0-6.53H75.78a3.27,3.27,0,1,1,0,6.53Z" fill="#B8113C"/>
  </g>
</svg>
