<svg xmlns="http://www.w3.org/2000/svg" width="749.518" height="551.451" viewBox="0 0 749.518 551.451">
  <g id="go-live-img" transform="translate(0.026)">
    <path id="Path_1" data-name="Path 1" d="M689.138,617.637H248.87a18.307,18.307,0,0,1-18.286-18.286V283.484A18.307,18.307,0,0,1,248.87,265.2H689.138a18.307,18.307,0,0,1,18.286,18.286V599.351a18.307,18.307,0,0,1-18.286,18.286ZM248.87,274.822a8.672,8.672,0,0,0-8.662,8.662V599.351a8.672,8.672,0,0,0,8.662,8.662H689.138a8.671,8.671,0,0,0,8.662-8.662V283.484a8.672,8.672,0,0,0-8.662-8.662Z" transform="translate(-225.266 -174.274)" fill="#e6e6e6"/>
    <circle id="Ellipse_1" data-name="Ellipse 1" cx="35.423" cy="35.423" r="35.423" transform="translate(198.958 480.605)" fill="#e6e6e6"/>
    <circle id="Ellipse_2" data-name="Ellipse 2" cx="27.158" cy="27.158" r="27.158" transform="translate(207.223 488.87)" fill="#fff"/>
    <path id="Path_2" data-name="Path 2" d="M473.252,705.135a1.231,1.231,0,0,1-.874-.363l-27.214-27.213a1.237,1.237,0,1,1,1.749-1.749l27.214,27.214a1.237,1.237,0,0,1-.874,2.111Z" transform="translate(-225.266 -174.274)" fill="#B8113C"/>
    <path id="Path_3" data-name="Path 3" d="M475.006,692.92a2.489,2.489,0,0,0-.008-2.687,26.2,26.2,0,0,0-7.675-7.772,19.448,19.448,0,0,0-10.51-3.252,17.517,17.517,0,0,0-5.552.912.309.309,0,0,0-.121.513l3.652,3.652a.313.313,0,0,0,.3.081,7.422,7.422,0,0,1,8.966,5.454l.009.036a16.307,16.307,0,0,0,4.162,7.865l1.164,1.164a.31.31,0,0,0,.418.018,26.581,26.581,0,0,0,5.2-5.983Z" transform="translate(-225.266 -174.274)" fill="#B8113C"/>
    <path id="Path_4" data-name="Path 4" d="M462.336,696.036a7.422,7.422,0,0,1-7.422-7.422c0-.006,0-.012,0-.019a4.905,4.905,0,0,0-1.369-3.522l-3.671-3.672a.31.31,0,0,0-.42-.016,30.91,30.91,0,0,0-5.229,5.852,2.468,2.468,0,0,0-.049,2.748,25.822,25.822,0,0,0,7.6,7.781,19.158,19.158,0,0,0,10.538,3.218,18.417,18.417,0,0,0,5.616-.893.309.309,0,0,0,.124-.513l-3.67-3.669a.311.311,0,0,0-.3-.081,7.411,7.411,0,0,1-1.75.209Z" transform="translate(-225.266 -174.274)" fill="#B8113C"/>
    <circle id="Ellipse_3" data-name="Ellipse 3" cx="35.423" cy="35.423" r="35.423" transform="translate(64.559 480.605)" fill="#e6e6e6"/>
    <circle id="Ellipse_4" data-name="Ellipse 4" cx="27.158" cy="27.158" r="27.158" transform="translate(72.824 488.87)" fill="#fff"/>
    <path id="Path_5" data-name="Path 5" d="M335.681,707.62c-1.509,0-3.629-.546-6.8-2.319a44.235,44.235,0,0,1-10.685-7.992,40.549,40.549,0,0,1-8.024-10.682c-2.848-5.18-2.363-7.895-1.82-9.055a7.228,7.228,0,0,1,2.833-3.04,13.636,13.636,0,0,1,2.214-1.175l.213-.094a2.069,2.069,0,0,1,1.7-.155,4.97,4.97,0,0,1,1.613,1.237,26.8,26.8,0,0,1,4.033,5.986,5.964,5.964,0,0,1,.791,2.452,3.874,3.874,0,0,1-.986,2.3q-.15.207-.3.4c-.588.773-.717,1-.632,1.4.172.8,2.785,1.5,4.9,3.607s3.1,5,3.909,5.174c.416.089.644-.046,1.442-.655.114-.087.232-.178.355-.268a3.9,3.9,0,0,1,2.339-1.047h0a5.6,5.6,0,0,1,2.463.864,29.534,29.534,0,0,1,5.964,4,4.969,4.969,0,0,1,1.241,1.609,2.085,2.085,0,0,1-.155,1.7c-.029.064-.06.135-.094.213a13.639,13.639,0,0,1-1.182,2.21,7.23,7.23,0,0,1-3.045,2.828,5.213,5.213,0,0,1-2.285.5Z" transform="translate(-225.266 -174.274)" fill="#B8113C"/>
    <circle id="Ellipse_5" data-name="Ellipse 5" cx="35.423" cy="35.423" r="35.423" transform="translate(334.399 480.605)" fill="#e6e6e6"/>
    <circle id="Ellipse_6" data-name="Ellipse 6" cx="27.158" cy="27.158" r="27.158" transform="translate(342.664 488.87)" fill="#fff"/>
    <path id="Path_6" data-name="Path 6" d="M604.984,685.231a1.237,1.237,0,0,0-1.237,1.237v2.474c0,4.782-3.877,6.185-8.659,6.185s-8.659-1.4-8.659-6.185v-2.474a1.237,1.237,0,0,0-2.474,0v2.474a11.144,11.144,0,0,0,9.9,11.059v5.022a1.237,1.237,0,0,0,1.237,1.237h0a1.237,1.237,0,0,0,1.237-1.237V700a11.144,11.144,0,0,0,9.9-11.059v-2.474a1.237,1.237,0,0,0-1.245-1.236Z" transform="translate(-225.266 -174.274)" fill="#B8113C"/>
    <path id="Path_7" data-name="Path 7" d="M595.088,691.627a9.276,9.276,0,0,1-4.372-1,2.909,2.909,0,0,1-1.813-2.36v-4.6c-.013-1.825,2.734-3.311,6.137-3.318h.048c3.379-.02,6.148,1.434,6.185,3.247v4.671C601.29,690.11,598.523,691.613,595.088,691.627Z" transform="translate(-225.266 -174.274)" fill="#B8113C"/>
    <path id="Path_8" data-name="Path 8" d="M689.138,613.306H248.87a13.971,13.971,0,0,1-13.955-13.955V283.484a13.971,13.971,0,0,1,13.955-13.955H689.138a13.971,13.971,0,0,1,13.955,13.955V599.351a13.971,13.971,0,0,1-13.955,13.955Z" transform="translate(-225.266 -174.274)" fill="#fff"/>
    <circle id="ab6171fa-7d69-4734-b81c-8dff60f9761b" cx="46.601" cy="46.601" r="46.601" transform="translate(194.981 197.805)" fill="#ffb8b8"/>
    <path id="bf427902-b9bf-4946-b5d7-5c1c7e04535e" d="M414.864,373.849c.352-5.352,3.891-10.828,15.135-13.689,0,0,19.3-24.676,45.519-11.735,0,0,12.712-2.187,22.139,11,0,0,9.346-5.512,13.289,4.258,0,0,10.961,19.929,6.926,40.256s-6.1,22.864-6.1,22.864,5.144-42.046-24.483-39.131-53.479-7.5-60.188,15.308c-5.571,18.942-4.869,28.779-4.869,28.779s-18.63-18.9-12.3-33.775C413.175,390.376,414.32,382.1,414.864,373.849Z" transform="translate(-225.266 -174.274)" fill="#2f2e41"/>
    <path id="Path_9" data-name="Path 9" d="M340.121,612.824H597.886c-1.723-19.662-2.849-34.291-2.849-39.238,0-21.818-17.853-45.628-17.853-45.628l-6.391-3.532-53.366-16.65-13.811-17.94a15.357,15.357,0,0,0-12.3-6.005l-43.627.327a15.4,15.4,0,0,0-10.346,4.1L410.33,513.32l-39.623,18.921-.067-.067-.414.308-5.88,4.235-3.782,2.733s-9.923,11.905-17.853,47.611C341.517,592.43,340.68,601.419,340.121,612.824Z" transform="translate(-225.266 -174.274)" fill="#B8113C"/>
    <path id="Path_10" data-name="Path 10" d="M973.649,214.191h-747.3a1.109,1.109,0,0,1,0-2.218h747.3a1.109,1.109,0,1,1,0,2.218Z" transform="translate(-225.266 -174.274)" fill="#cacaca"/>
    <ellipse id="Ellipse_7" data-name="Ellipse 7" cx="11.931" cy="12.197" rx="11.931" ry="12.197" transform="translate(13.566 0)" fill="#3f3d56"/>
    <ellipse id="Ellipse_8" data-name="Ellipse 8" cx="11.931" cy="12.197" rx="11.931" ry="12.197" transform="translate(54.781 0)" fill="#3f3d56"/>
    <ellipse id="Ellipse_9" data-name="Ellipse 9" cx="11.931" cy="12.197" rx="11.931" ry="12.197" transform="translate(95.996 0)" fill="#3f3d56"/>
    <path id="Path_11" data-name="Path 11" d="M948.955,181.735H919.67a2.218,2.218,0,1,1,0-4.436h29.284a2.218,2.218,0,1,1,0,4.436Z" transform="translate(-225.266 -174.274)" fill="#3f3d56"/>
    <path id="Path_12" data-name="Path 12" d="M948.955,190.051H919.67a2.218,2.218,0,1,1,0-4.436h29.284a2.218,2.218,0,1,1,0,4.436Z" transform="translate(-225.266 -174.274)" fill="#3f3d56"/>
    <path id="Path_13" data-name="Path 13" d="M948.955,198.366H919.67a2.218,2.218,0,1,1,0-4.436h29.284a2.218,2.218,0,1,1,0,4.436Z" transform="translate(-225.266 -174.274)" fill="#3f3d56"/>
    <path id="Path_14" data-name="Path 14" d="M928.538,633.289H781.618A18.307,18.307,0,0,1,763.332,615V514.376a18.307,18.307,0,0,1,18.286-18.286h146.92a18.307,18.307,0,0,1,18.286,18.286V615a18.307,18.307,0,0,1-18.286,18.289ZM781.618,505.714a8.672,8.672,0,0,0-8.662,8.662V615a8.672,8.672,0,0,0,8.662,8.662h146.92A8.672,8.672,0,0,0,937.2,615V514.376a8.672,8.672,0,0,0-8.662-8.662Z" transform="translate(-225.266 -174.274)" fill="#e6e6e6"/>
    <path id="Path_15" data-name="Path 15" d="M928.538,628.958H781.618A13.971,13.971,0,0,1,767.663,615V514.375a13.971,13.971,0,0,1,13.955-13.955h146.92a13.971,13.971,0,0,1,13.955,13.955V615a13.971,13.971,0,0,1-13.955,13.958Z" transform="translate(-225.266 -174.274)" fill="#fff"/>
    <path id="Path_16" data-name="Path 16" d="M868.855,533.177c.85-5.3-1.554-9.2-7.926-11.4-6.338-5.5-15.706-6.819-21.329,1.99a8.823,8.823,0,0,0-9.3,7.9c-5.165,6,.57,28.036,2.269,36.431l9.066-.089,18.1-.179,9.122-.089,3.477-19.686C874.444,542.332,873.583,537.313,868.855,533.177Z" transform="translate(-225.266 -174.274)" fill="#e6e6e6"/>
    <path id="Path_17" data-name="Path 17" d="M901.776,616.054a43.675,43.675,0,0,1,7.49-3.823l-25.778-30.607-17.036-4.36q-.209-.118-.415-.241l-28.739,1.1-.123-.123-18.12,8.865-25.778,29.8a43.374,43.374,0,0,1,7.3,3.689l-2.66,10.117H816.36l4.907-7.132h.246c0-.123.011-.246.011-.369l3.443-5.008c.078,4.047-.034,8.216-.313,12.509h57.369c-.089-3.566-.112-7.11-.112-10.631l6.417,9.312c.481-.7.995-1.364,1.509-2.035l1.263,3.354h14.688l-3.521-13.392a3.133,3.133,0,0,0-.492-1.029Z" transform="translate(-225.266 -174.274)" fill="#e6e6e6"/>
    <path id="Path_18" data-name="Path 18" d="M928.538,401.384H781.618A18.307,18.307,0,0,1,763.332,383.1V282.471a18.307,18.307,0,0,1,18.286-18.286h146.92a18.307,18.307,0,0,1,18.286,18.286V383.1a18.307,18.307,0,0,1-18.286,18.284ZM781.618,273.81a8.672,8.672,0,0,0-8.662,8.662V383.1a8.672,8.672,0,0,0,8.662,8.662h146.92A8.672,8.672,0,0,0,937.2,383.1V282.471a8.672,8.672,0,0,0-8.662-8.662Z" transform="translate(-225.266 -174.274)" fill="#e6e6e6"/>
    <path id="Path_19" data-name="Path 19" d="M928.538,397.053H781.618A13.971,13.971,0,0,1,767.663,383.1V282.471a13.971,13.971,0,0,1,13.955-13.955h146.92a13.971,13.971,0,0,1,13.955,13.955V383.1a13.971,13.971,0,0,1-13.955,13.953Z" transform="translate(-225.266 -174.274)" fill="#fff"/>
    <path id="Path_20" data-name="Path 20" d="M836.521,318.131a19.334,19.334,0,0,0,37.813,3.476c.626-.652,7.565-8.067,5.053-13.966a30.526,30.526,0,0,1-2.045-10.018c-.146-2.221-1.615-4.494-6.282-5.682,0,0-8.009-10.241-18.892-4.871,0,0-5.276-.908-9.188,4.566,0,0-3.879-2.288-5.515,1.767,0,0-4.549,8.271-2.874,16.708a72.667,72.667,0,0,0,1.93,8.02Z" transform="translate(-225.266 -174.274)" fill="#e6e6e6"/>
    <path id="Path_21" data-name="Path 21" d="M907.288,388.114c-3.291-14.819-7.41-19.76-7.41-19.76l-1.57-1.134-2.441-1.758-.172-.128-.028.028-16.445-7.853-11.212-10.4a6.393,6.393,0,0,0-4.294-1.7l-18.106-.136a6.374,6.374,0,0,0-5.1,2.493l-5.732,7.446-22.149,6.91-2.652,1.466s-7.41,9.882-7.41,18.938c0,2.053-.467,8.125-1.182,16.285H908.363A72.97,72.97,0,0,0,907.288,388.114Z" transform="translate(-225.266 -174.274)" fill="#e6e6e6"/>
    <path id="Path_22" data-name="Path 22" d="M836.83,537.277H644.747A23.934,23.934,0,0,1,620.84,513.37V381.81a23.934,23.934,0,0,1,23.907-23.91H836.83a23.934,23.934,0,0,1,23.907,23.907V513.37a23.934,23.934,0,0,1-23.907,23.907ZM644.747,370.486a11.338,11.338,0,0,0-11.324,11.324V513.37a11.337,11.337,0,0,0,11.324,11.324H836.83a11.338,11.338,0,0,0,11.324-11.324V381.81a11.337,11.337,0,0,0-11.324-11.324Z" transform="translate(-225.266 -174.274)" fill="#e6e6e6"/>
    <path id="Path_23" data-name="Path 23" d="M836.828,363.564H644.748a18.275,18.275,0,0,0-18.25,18.25v131.56a18.266,18.266,0,0,0,18.25,18.24h192.08a18.266,18.266,0,0,0,18.25-18.24V381.814A18.275,18.275,0,0,0,836.828,363.564Z" transform="translate(-225.266 -174.274)" fill="#fff"/>
    <circle id="Ellipse_10" data-name="Ellipse 10" cx="15" cy="15" r="15" transform="translate(534.313 214.288)" fill="#2f2e41"/>
    <circle id="Ellipse_11" data-name="Ellipse 11" cx="38" cy="38" r="38" transform="translate(480.498 219.26)" fill="#2f2e41"/>
    <circle id="Ellipse_12" data-name="Ellipse 12" cx="30.879" cy="30.879" r="30.879" transform="translate(481.017 235.813)" fill="#9e616a"/>
    <path id="Path_24" data-name="Path 24" d="M725.521,402.511A35.371,35.371,0,0,1,771.3,444.329c-16.217.437-33.009-.2-48.078-9.736l-1.76-10.328-4.39,8.966c-5.442.928-10.827,1.54-14.985-3.357a36.116,36.116,0,0,1,23.434-27.363Z" transform="translate(-225.266 -174.274)" fill="#2f2e41"/>
    <path id="Path_25" data-name="Path 25" d="M797.06,366.851c11.158-2.388,23.377,2.618,30.186,11.775s8.18,21.9,4.1,32.552c-4.163,10.871-13.151,19.029-21.556,27.084s-16.865,17.047-19.388,28.411a31.667,31.667,0,0,0,23.971,37.759c-10.526,2-21.49,3.981-31.826,1.165s-19.791-11.969-19.2-22.666c.427-7.708,5.689-14.145,10.265-20.361A156.367,156.367,0,0,0,792.1,429.83c2.3-5.544,4.313-11.464,3.667-17.432a20.916,20.916,0,0,0-17.3-17.913l-2.76-3.874C776.628,379.238,785.9,369.239,797.06,366.851Z" transform="translate(-225.266 -174.274)" fill="#2f2e41"/>
    <path id="Path_26" data-name="Path 26" d="M808.008,530.764c-2-20.38-13.3-19.58-13.3-19.58l-29.84-5.83-13.07-21.7-32.81-1.28-11.68,20.48-24,3-.02.34c-2.38.18-10.96,2.06-12.68,19.57-.16,1.61-.38,3.58-.66,5.85H808.1C808.068,531.314,808.038,531.034,808.008,530.764Z" transform="translate(-225.266 -174.274)" fill="#2f2e41"/>
  </g>
</svg>
