<svg xmlns="http://www.w3.org/2000/svg" xmlns:xlink="http://www.w3.org/1999/xlink" width="800.122" height="541.445" viewBox="0 0 800.122 541.445">
  <defs>
    <clipPath id="clip-path">
      <rect id="Rectangle_1" data-name="Rectangle 1" width="800.122" height="541.445" fill="#fff"/>
    </clipPath>
  </defs>
  <g id="no-data-found-2" clip-path="url(#clip-path)">
    <path id="Path_1" data-name="Path 1" d="M731.892,189.445c-.84.69-1.68,1.35-2.54,2H517.212q-2.37-.975-4.72-2a249.807,249.807,0,0,1-61.87-38.52c-12.37-10.48-23.75-21.3-32-31.44-11.509-14.15-22.11-29.57-27.04-47.14s-3.45-37.71,7.54-52.28a46.813,46.813,0,0,1,12.35-11.31c.79-.5,1.59-.98,2.41-1.43,13.18-7.4,29.81-9.2,44.651-5.37,21.25,5.49,38.909,20.82,51.509,38.8s20.781,38.61,28.84,59.02c8.18-36.43,32.95-69.06,66.41-85.65S680.3-2.265,713.042,15.7a108.3,108.3,0,0,1,27.551,21.7c.789.85,1.56,1.72,2.319,2.6,15.97,18.49,25.96,42.17,26.78,66.59C770.742,138.055,756.162,169.655,731.892,189.445Z" fill="#f2f2f2"/>
    <path id="Path_2" data-name="Path 2" d="M525.691,191.446h-3c-.039-.67-.089-1.33-.149-2a224.134,224.134,0,0,0-6.561-38.74,238.786,238.786,0,0,0-38.31-80.46,228.593,228.593,0,0,0-65.5-60.46,1.418,1.418,0,0,1-.468-.434,1.4,1.4,0,0,1-.231-.6,1.5,1.5,0,0,1,2.21-1.56,2.337,2.337,0,0,1,.2.13A226.472,226.472,0,0,1,454,38.445a240.914,240.914,0,0,1,51.71,74.13,233.6,233.6,0,0,1,19.82,76.87C525.592,190.116,525.642,190.786,525.691,191.446Z" fill="#fff"/>
    <path id="Path_3" data-name="Path 3" d="M742.914,40.005a.189.189,0,0,1-.07.02c-2.19.4-4.39.82-6.571,1.27a296.865,296.865,0,0,0-52.33,15.89,308.861,308.861,0,0,0-48.5,25,313.78,313.78,0,0,0-43.449,33.08A307.536,307.536,0,0,0,555,155.385a297.568,297.568,0,0,0-22.609,34.06c-.38.66-.75,1.33-1.121,2h-3.429c.36-.67.73-1.34,1.11-2a299.933,299.933,0,0,1,27.98-41.33,310.811,310.811,0,0,1,38.31-39.75,317.816,317.816,0,0,1,44.38-32.28,311.8,311.8,0,0,1,49.52-24.16,297.077,297.077,0,0,1,51.45-14.52l1.46-.27C743.923,36.8,744.724,39.615,742.914,40.005Z" fill="#fff"/>
    <path id="Path_4" data-name="Path 4" d="M197.68,197.39c5.335-10.071,6.216-23.187-.418-32.454-3.948-5.516-10.114-9.137-16.583-11.18s-13.293-2.643-20.059-3.139c-6.7-.491-13.514-.884-20.056.63s-12.879,5.216-16.067,11.126c-5.384,9.986-.479,22.79-4.433,33.423-3.629,9.758-13.958,15.462-24.111,17.764S75.2,215.618,65.045,217.9s-20.5,7.932-24.2,17.666c-2.671,7.038-1.344,15.146,2.175,21.8s9.031,12.043,14.881,16.781c8.728,7.069,18.939,13.122,30.153,13.735,11.816.646,23.37-4.979,31.875-13.208s14.294-18.862,18.92-29.755c2.935-6.91,5.708-14.346,11.589-19.012,4.321-3.429,9.817-4.931,15.148-6.352l6.036-1.609a41.441,41.441,0,0,0,25.894-20.253C197.574,197.591,197.627,197.491,197.68,197.39Z" fill="#2f2e41"/>
    <path id="Path_5" data-name="Path 5" d="M150.08,528.665H137.821l-5.833-47.288h18.1Z" fill="#ffb8b8"/>
    <path id="Path_6" data-name="Path 6" d="M129.063,525.162h23.644v14.887H114.176a14.886,14.886,0,0,1,14.888-14.887Z" fill="#2f2e41"/>
    <path id="Path_7" data-name="Path 7" d="M252.08,528.665H239.821l-5.833-47.288h18.1Z" fill="#ffb8b8"/>
    <path id="Path_8" data-name="Path 8" d="M231.063,525.162h23.644v14.887H216.176a14.886,14.886,0,0,1,14.888-14.887Z" fill="#2f2e41"/>
    <path id="Path_9" data-name="Path 9" d="M173.647,491.08a4.863,4.863,0,0,1-.512-.027l-49.878-5.344a4.691,4.691,0,0,1-4.063-5.752l44.163-167.97a4.717,4.717,0,0,1,3.545-3.492l40.968-11.42a4.721,4.721,0,0,1,4.549,1.482c26.34,29.71,46.19,95.571,61.227,178.585a4.694,4.694,0,0,1-4.022,5.49l-40.868,5.217a4.678,4.678,0,0,1-5.171-3.626L203.7,395.574a3.648,3.648,0,0,0-7.138.083l-18.33,91.651a4.666,4.666,0,0,1-4.587,3.772Z" fill="#2f2e41"/>
    <path id="Path_10" data-name="Path 10" d="M166.057,220.455A24.561,24.561,0,1,0,141.5,195.9a24.562,24.562,0,0,0,24.557,24.56Z" fill="#ffb8b8"/>
    <path id="Path_11" data-name="Path 11" d="M165.374,312.459a4.68,4.68,0,0,1-4.521-3.485l-14.776-55.51a16.779,16.779,0,0,1,10.11-19.964c11.894-4.643,23.226-6.365,33.681-5.122,9.292,1.108,20.754,56.119,20,57.292l3.667,11a4.691,4.691,0,0,1-3.442,6.065l-43.7,9.612a4.728,4.728,0,0,1-1.02.112Z" fill="#ccc"/>
    <path id="Path_12" data-name="Path 12" d="M178.617,369.226a7.611,7.611,0,0,0-7.368-9.049l-8.513-25.67-8.7,11.037,9.418,22.684a7.652,7.652,0,0,0,15.164,1Z" fill="#ffb8b8"/>
    <path id="Path_13" data-name="Path 13" d="M288.063,307.534a7.609,7.609,0,0,0-11.385-2.562L254.122,290.05,254.1,304.1l21.422,12.016a7.652,7.652,0,0,0,12.539-8.586Z" fill="#ffb8b8"/>
    <path id="Path_14" data-name="Path 14" d="M160.767,357.366a4.688,4.688,0,0,1-4.454-3.218l-19.957-42.216a24.372,24.372,0,0,1-1.235-7.669l6-54.871a12.059,12.059,0,0,1,24.03-1.456l-9.18,62.631,14.649,38.44a4.682,4.682,0,0,1-2.478,5.225l-5.278,2.639A4.683,4.683,0,0,1,160.767,357.366Z" fill="#ccc"/>
    <path id="Path_15" data-name="Path 15" d="M267.351,313.077a4.691,4.691,0,0,1-2.115-.5L225.548,292.53a24.356,24.356,0,0,1-6.289-4.561L180.522,249.1a12.059,12.059,0,0,1,15.992-17.994l41.963,46.6,33.263,21.12a4.68,4.68,0,0,1,1.933,5.45l-1.875,5.6a4.69,4.69,0,0,1-4.447,3.2Z" fill="#ccc"/>
    <path id="Path_16" data-name="Path 16" d="M138.121,183.2a28.6,28.6,0,0,0,16.9,10.631,29.869,29.869,0,0,0,20.06-2.874c4.947-2.673,8.9-6.684,12.782-10.634,1.618-1.648,3.342-3.549,3.26-5.8-.126-3.484-4.314-5.388-7.908-6.148a56.434,56.434,0,0,0-35.033,3.94c-4.88,2.267-9.964,6.368-9.232,11.466" fill="#2f2e41"/>
    <path id="Path_17" data-name="Path 17" d="M783.121,189.445h-482a17.025,17.025,0,0,0-17,17v186a17.023,17.023,0,0,0,17,17h482a17.023,17.023,0,0,0,17-17v-186a17.025,17.025,0,0,0-17-17Zm15,203a15.017,15.017,0,0,1-15,15h-482a15.017,15.017,0,0,1-15-15v-186a15.019,15.019,0,0,1,15-15h482a15.019,15.019,0,0,1,15,15Z" fill="#3f3d56"/>
    <path id="Path_18" data-name="Path 18" d="M388.637,357.445a58.066,58.066,0,1,1,40.993-17.007A58.066,58.066,0,0,1,388.637,357.445Zm0-114a56.065,56.065,0,1,0,39.579,16.421,56.065,56.065,0,0,0-39.579-16.421Z" fill="rgba(220,97,231,0)"/>
    <path id="Path_19" data-name="Path 19" d="M740.11,311.445h-231a12.5,12.5,0,0,0-12.48,12.01,4.237,4.237,0,0,0-.02.49,12.518,12.518,0,0,0,12.5,12.5h231a12.5,12.5,0,0,0,0-25Z" fill="#e44499"/>
    <path id="Path_20" data-name="Path 20" d="M382,541.445H1a1,1,0,0,1,0-2H382a1,1,0,0,1,0,2Z" fill="#3f3d56"/>
    <path id="Path_21" data-name="Path 21" d="M683.258,144.4a198.207,198.207,0,0,0-62.845,1.417A202.326,202.326,0,0,0,561.24,166.5a195.275,195.275,0,0,0-29.529,19.509c-1.508,1.2.627,3.316,2.121,2.122A193.845,193.845,0,0,1,587.619,157.9a199.641,199.641,0,0,1,60.065-12.185,191.1,191.1,0,0,1,34.776,1.578,1.554,1.554,0,0,0,1.846-1.048,1.509,1.509,0,0,0-1.048-1.845Z" fill="#fff"/>
    <path id="Path_22" data-name="Path 22" d="M395.665,265.667H369a6.666,6.666,0,0,0-6.667,6.667v53.332A6.666,6.666,0,0,0,369,332.333h40a6.665,6.665,0,0,0,6.666-6.668v-40Z" fill="none" stroke="#e44499" stroke-linecap="round" stroke-linejoin="round" stroke-width="2"/>
    <path id="Path_23" data-name="Path 23" d="M395.668,265.667v20h20" fill="none" stroke="#e44499" stroke-linecap="round" stroke-linejoin="round" stroke-width="2"/>
    <path id="Path_24" data-name="Path 24" d="M402.335,302.333H375.668" fill="rgba(220,97,231,0)" stroke="#e44499" stroke-linecap="round" stroke-linejoin="round" stroke-width="2"/>
    <path id="Path_25" data-name="Path 25" d="M402.335,315.667H375.668" fill="rgba(220,97,231,0)" stroke="#e44499" stroke-linecap="round" stroke-linejoin="round" stroke-width="2"/>
    <path id="Path_26" data-name="Path 26" d="M382.335,289h-6.667" fill="rgba(220,97,231,0)" stroke="#e44499" stroke-linecap="round" stroke-linejoin="round" stroke-width="2"/>
    <path id="Path_27" data-name="Path 27" d="M550.248,290h-4.394L537.3,275.967V290h-4.4V268.672h4.4l8.569,14.062V268.672h4.38Zm2.9-8.071a9.388,9.388,0,0,1,.909-4.2,6.656,6.656,0,0,1,2.607-2.857,7.668,7.668,0,0,1,3.97-1.011,7.193,7.193,0,0,1,5.229,1.963,7.858,7.858,0,0,1,2.271,5.332l.029,1.084a8.315,8.315,0,0,1-2.036,5.86,7.911,7.911,0,0,1-10.942,0,8.447,8.447,0,0,1-2.037-5.977Zm4.234.307a5.945,5.945,0,0,0,.849,3.457,3.066,3.066,0,0,0,4.834.015,6.5,6.5,0,0,0,.865-3.779,5.844,5.844,0,0,0-.865-3.428,2.808,2.808,0,0,0-2.431-1.216,2.761,2.761,0,0,0-2.4,1.216A6.54,6.54,0,0,0,557.382,282.236Zm20.2-.278a9.584,9.584,0,0,1,1.655-5.9,5.416,5.416,0,0,1,4.556-2.2,4.856,4.856,0,0,1,3.823,1.729V267.5h4.248V290h-3.823l-.205-1.685a4.981,4.981,0,0,1-4.072,1.978,5.4,5.4,0,0,1-4.5-2.2,9.925,9.925,0,0,1-1.682-6.135Zm4.233.308a6.237,6.237,0,0,0,.777,3.413,2.529,2.529,0,0,0,2.256,1.186,2.833,2.833,0,0,0,2.768-1.655v-6.255a2.792,2.792,0,0,0-2.739-1.655Q581.815,277.3,581.815,282.266ZM604.33,290a4.708,4.708,0,0,1-.425-1.421,5.12,5.12,0,0,1-4,1.714,5.653,5.653,0,0,1-3.867-1.348,4.34,4.34,0,0,1-1.523-3.4,4.484,4.484,0,0,1,1.86-3.867,9.249,9.249,0,0,1,5.4-1.363h1.948v-.908a2.591,2.591,0,0,0-.571-1.758,2.2,2.2,0,0,0-1.772-.659,2.552,2.552,0,0,0-1.685.513,1.751,1.751,0,0,0-.6,1.406h-4.234a4.251,4.251,0,0,1,.85-2.549,5.57,5.57,0,0,1,2.4-1.831,8.673,8.673,0,0,1,3.486-.674,6.868,6.868,0,0,1,4.644,1.48,5.118,5.118,0,0,1,1.729,4.131v6.87a7.57,7.57,0,0,0,.629,3.413V290Zm-3.5-2.944a3.708,3.708,0,0,0,1.729-.41,2.79,2.79,0,0,0,1.171-1.128v-2.725h-1.582q-3.178,0-3.383,2.2l-.015.249a1.7,1.7,0,0,0,.557,1.3,2.161,2.161,0,0,0,1.522.514Zm15.469-16.8v3.9h2.71v3.106H616.3v7.91a1.887,1.887,0,0,0,.337,1.26,1.69,1.69,0,0,0,1.289.381,6.776,6.776,0,0,0,1.245-.1v3.208a8.715,8.715,0,0,1-2.564.381q-4.452,0-4.541-4.5v-8.54H609.75V274.15h2.314v-3.9ZM630.551,290a4.68,4.68,0,0,1-.425-1.421,5.12,5.12,0,0,1-4,1.714,5.651,5.651,0,0,1-3.867-1.348,4.341,4.341,0,0,1-1.524-3.4,4.483,4.483,0,0,1,1.861-3.867,9.247,9.247,0,0,1,5.4-1.361h1.948v-.908a2.591,2.591,0,0,0-.571-1.758,2.2,2.2,0,0,0-1.773-.659,2.551,2.551,0,0,0-1.684.513,1.749,1.749,0,0,0-.6,1.406h-4.233a4.251,4.251,0,0,1,.85-2.549,5.569,5.569,0,0,1,2.4-1.831,8.673,8.673,0,0,1,3.486-.674,6.87,6.87,0,0,1,4.644,1.48,5.117,5.117,0,0,1,1.728,4.131v6.87a7.584,7.584,0,0,0,.63,3.413V290Zm-3.5-2.944a3.7,3.7,0,0,0,1.728-.41,2.792,2.792,0,0,0,1.172-1.128v-2.725h-1.582q-3.178,0-3.384,2.2l-.014.249a1.7,1.7,0,0,0,.556,1.3,2.162,2.162,0,0,0,1.523.514ZM646.078,290V277.256H643.72V274.15h2.358V272.8a5.459,5.459,0,0,1,1.524-4.131,5.938,5.938,0,0,1,4.292-1.48,9.927,9.927,0,0,1,2.153.293L654,270.767a5.39,5.39,0,0,0-1.289-.132q-2.388,0-2.388,2.241v1.274h3.15v3.106h-3.15V290Zm8.936-8.071a9.389,9.389,0,0,1,.908-4.2,6.656,6.656,0,0,1,2.607-2.857,7.668,7.668,0,0,1,3.97-1.011,7.2,7.2,0,0,1,5.23,1.963,7.862,7.862,0,0,1,2.27,5.332l.029,1.084a8.31,8.31,0,0,1-2.036,5.86,7.911,7.911,0,0,1-10.942,0,8.446,8.446,0,0,1-2.036-5.977Zm4.233.307a5.938,5.938,0,0,0,.85,3.457,3.066,3.066,0,0,0,4.834.015,6.5,6.5,0,0,0,.864-3.779,5.852,5.852,0,0,0-.864-3.428,2.811,2.811,0,0,0-2.432-1.216,2.758,2.758,0,0,0-2.4,1.216,6.533,6.533,0,0,0-.852,3.735Zm22.881,6.153a5.31,5.31,0,0,1-4.336,1.9,5.028,5.028,0,0,1-3.9-1.465,6.275,6.275,0,0,1-1.363-4.292V274.15h4.234v10.24q0,2.475,2.255,2.475a3.057,3.057,0,0,0,2.959-1.494V274.15h4.248V290h-3.984Zm11.191-14.239.132,1.831a5.535,5.535,0,0,1,4.556-2.124,4.6,4.6,0,0,1,3.75,1.48,6.907,6.907,0,0,1,1.26,4.424V290h-4.234V279.863a2.716,2.716,0,0,0-.586-1.948,2.6,2.6,0,0,0-1.948-.615,2.914,2.914,0,0,0-2.681,1.523V290h-4.233V274.15Zm12.261,7.808a9.584,9.584,0,0,1,1.655-5.9,5.416,5.416,0,0,1,4.556-2.2,4.856,4.856,0,0,1,3.823,1.729V267.5h4.248V290h-3.823l-.205-1.685a4.981,4.981,0,0,1-4.072,1.978,5.4,5.4,0,0,1-4.5-2.2,9.926,9.926,0,0,1-1.682-6.135Zm4.233.308a6.237,6.237,0,0,0,.777,3.413,2.528,2.528,0,0,0,2.256,1.186,2.833,2.833,0,0,0,2.768-1.655v-6.255a2.792,2.792,0,0,0-2.739-1.655q-3.062,0-3.062,4.966Z" fill="#e44499"/>
  </g>
</svg>
