<svg xmlns="http://www.w3.org/2000/svg" xmlns:xlink="http://www.w3.org/1999/xlink" width="728.252" height="598.943" viewBox="0 0 728.252 598.943">
  <defs>
    <clipPath id="clip-path">
      <rect id="Rectangle_5" data-name="Rectangle 5" width="728.252" height="598.943" fill="#fff"/>
    </clipPath>
    <clipPath id="clip-path-2">
      <rect id="Rectangle_1" data-name="Rectangle 1" width="50" height="50" transform="translate(97 301)" fill="#fff"/>
    </clipPath>
    <clipPath id="clip-path-3">
      <rect id="Rectangle_2" data-name="Rectangle 2" width="35" height="35" transform="translate(535 93)" fill="#fff"/>
    </clipPath>
    <clipPath id="clip-path-4">
      <rect id="Rectangle_3" data-name="Rectangle 3" width="35" height="35" transform="translate(584.692 312.442) rotate(31.416)" fill="#fff"/>
    </clipPath>
    <clipPath id="clip-path-5">
      <rect id="Rectangle_4" data-name="Rectangle 4" width="30" height="30" transform="translate(327.804 86.971) rotate(-19.809)" fill="#fff"/>
    </clipPath>
  </defs>
  <g id="no-data-found" clip-path="url(#clip-path)">
    <path id="Path_1" data-name="Path 1" d="M592.675,60.2c4.653-18.979.229-41.112-14.8-53.6a90.034,90.034,0,0,1-22.02,57.757c-5.393,6.171-12.035,12.472-12.3,20.663-.163,5.1,2.325,9.992,5.754,13.767s7.753,6.6,12.027,9.382l.628,1.107C575.721,95.4,588.022,79.175,592.675,60.2Z" fill="#f0f0f0"/>
    <path id="Path_2" data-name="Path 2" d="M577.569,6.878a76.952,76.952,0,0,1,2.45,47.282,33.1,33.1,0,0,1-4.048,9.561,19,19,0,0,1-7.557,6.554c-2.824,1.428-5.879,2.563-8.307,4.653a11.636,11.636,0,0,0-3.915,8.675c-.118,4.087,1.241,7.972,2.7,11.725,1.621,4.167,3.371,8.469,3,13.032-.045.553.815.591.86.039.652-7.938-4.739-14.643-5.594-22.342-.4-3.593.283-7.327,2.939-9.947,2.323-2.29,5.472-3.463,8.344-4.884a20.285,20.285,0,0,0,7.628-6.133,30.638,30.638,0,0,0,4.4-9.371,74.653,74.653,0,0,0,2.985-23.142,78.291,78.291,0,0,0-5.12-26.1c-.2-.516-.959-.112-.763.4Z" fill="#fff"/>
    <path id="Path_3" data-name="Path 3" d="M581.659,49.208a11.546,11.546,0,0,0,12.52-8.171c.155-.532-.664-.8-.82-.266A10.69,10.69,0,0,1,581.7,48.348c-.549-.072-.585.788-.039.86Z" fill="#fff"/>
    <path id="Path_4" data-name="Path 4" d="M569.942,69.74a22.252,22.252,0,0,1-4.721-15.515c.044-.553-.817-.591-.86-.039a23.145,23.145,0,0,0,4.945,16.135C569.651,70.756,570.285,70.173,569.942,69.74Z" fill="#fff"/>
    <path id="Path_5" data-name="Path 5" d="M582.209,24.129a6.535,6.535,0,0,1-5.675-2.5c-.339-.439-.973.145-.636.581a7.325,7.325,0,0,0,6.272,2.779.446.446,0,0,0,.45-.411.433.433,0,0,0-.411-.45Z" fill="#fff"/>
    <path id="Path_6" data-name="Path 6" d="M512.861,18.887c.2.28.408.56.61.847a85.972,85.972,0,0,1,7.223,11.947c.166.32.329.647.486.971a90.722,90.722,0,0,1,8.8,32.223,88.094,88.094,0,0,1,.063,13.388c-.441,6.156-1.409,12.8.164,18.568a15.029,15.029,0,0,0,.583,1.778l29.769,11.347c.08-.008.159-.01.24-.018l1.167.508c.033-.229.062-.467.094-.7.02-.132.032-.267.052-.4.011-.089.021-.179.036-.258,0-.03.007-.06.008-.083.015-.08.021-.156.033-.229q.246-1.993.466-4v-.016a129.524,129.524,0,0,0,.007-30.63c-.04-.3-.077-.613-.131-.921a84.045,84.045,0,0,0-2.977-13.394,74.339,74.339,0,0,0-2.609-7.054,61.807,61.807,0,0,0-10.326-16.335c-8.528-9.707-20.066-16.579-32.789-17.485C513.508,18.924,513.189,18.9,512.861,18.887Z" fill="#f0f0f0"/>
    <path id="Path_7" data-name="Path 7" d="M512.784,19.291a76.952,76.952,0,0,1,30.424,36.277,33.15,33.15,0,0,1,2.524,10.071,19.006,19.006,0,0,1-2.088,9.783c-1.4,2.841-3.151,5.586-3.832,8.717a11.647,11.647,0,0,0,2.1,9.284c2.367,3.334,5.791,5.618,9.216,7.736,3.8,2.351,7.791,4.733,10.239,8.6.3.469,1.006-.019.71-.487-4.258-6.73-12.6-8.838-17.918-14.471-2.481-2.628-4.186-6.02-3.642-9.711.476-3.227,2.284-6.059,3.722-8.924a20.286,20.286,0,0,0,2.4-9.489,30.644,30.644,0,0,0-2.128-10.131,74.694,74.694,0,0,0-11.549-20.275,78.323,78.323,0,0,0-19.8-17.759c-.469-.294-.833.487-.368.779Z" fill="#fff"/>
    <path id="Path_8" data-name="Path 8" d="M541.535,50.626a11.546,11.546,0,0,0,5.076-14.062c-.2-.518-1.01-.238-.814.281a10.691,10.691,0,0,1-4.749,13.071C540.566,50.189,541.055,50.9,541.535,50.626Z" fill="#fff"/>
    <path id="Path_9" data-name="Path 9" d="M544.541,74.074a22.253,22.253,0,0,1-13.11-9.546c-.3-.468-1.008.02-.711.487a23.151,23.151,0,0,0,13.663,9.9c.538.139.693-.708.158-.847Z" fill="#fff"/>
    <path id="Path_10" data-name="Path 10" d="M526.876,30.271a6.536,6.536,0,0,1-6.037,1.421c-.535-.146-.69.7-.158.847a7.323,7.323,0,0,0,6.681-1.557.444.444,0,0,0,.175-.277.449.449,0,0,0-.063-.321.432.432,0,0,0-.6-.112Z" fill="#fff"/>
    <path id="Path_11" data-name="Path 11" d="M473.5,447.587c-99.8,0-181-81.2-181-181s81.2-181,181-181A182.79,182.79,0,0,1,505,88.318a1,1,0,0,1,.628.407,1.016,1.016,0,0,1,.158.357,1,1,0,0,1-.133.755.987.987,0,0,1-.27.282,1,1,0,0,1-.748.165,180.77,180.77,0,0,0-31.132-2.7c-98.7,0-179,80.3-179,179s80.3,179,179,179,179-80.3,179-179a178.548,178.548,0,0,0-46.7-120.569,1,1,0,1,1,1.478-1.348A180.544,180.544,0,0,1,654.5,266.587C654.5,366.39,573.3,447.587,473.5,447.587Z" fill="#e4e4e4"/>
    <path id="Path_12" data-name="Path 12" d="M468.843,238.5,413.62,84.867l1.4-.5-10.156-28.26-1.4.5L386.507,9.441A14.255,14.255,0,0,0,368.27.848L268.437,36.733a14.256,14.256,0,0,0-8.593,18.237l11.822,32.89-2.213.852,7.547,19.6,1.771-.682,1.567,4.359-1.885.726,7.547,19.6,1.444-.556L342.18,284.027a14.229,14.229,0,0,0,18.237,8.594l99.832-35.885a14.273,14.273,0,0,0,8.594-18.238Z" fill="#3f3d56"/>
    <path id="Path_13" data-name="Path 13" d="M355.167,287.557a6.843,6.843,0,0,1-6.424-4.524l-83.2-231.474a6.831,6.831,0,0,1,4.118-8.739L290.9,35.185l-.032.743A7.874,7.874,0,0,0,301.4,43.67l47.141-16.945a7.98,7.98,0,0,0,4.488-5.636,7.81,7.81,0,0,0-1.861-6.835l-.5-.553,21.941-7.887a6.84,6.84,0,0,1,8.739,4.118L460.73,230.778a18.147,18.147,0,0,1-10.93,23.188l-92.321,33.185a6.843,6.843,0,0,1-2.315.406Z" fill="#fff"/>
    <path id="Path_14" data-name="Path 14" d="M413.939,135.641l-93.5,33.61a2.362,2.362,0,0,1-1.6-4.445l93.5-33.609a2.362,2.362,0,0,1,1.6,4.444Z" fill="#e6e6e6"/>
    <path id="Path_15" data-name="Path 15" d="M386.172,156.952l-30.755,11.055a2.362,2.362,0,1,1-1.6-4.445l30.755-11.056a2.363,2.363,0,1,1,1.6,4.446Z" fill="#e6e6e6"/>
    <path id="Path_16" data-name="Path 16" d="M393.487,177.3l-30.755,11.055a2.362,2.362,0,1,1-1.6-4.445l30.755-11.056a2.362,2.362,0,0,1,1.6,4.445Z" fill="#e6e6e6"/>
    <path id="Path_17" data-name="Path 17" d="M397.234,187.726l-30.756,11.055a2.362,2.362,0,1,1-1.6-4.445l30.755-11.055a2.362,2.362,0,1,1,1.6,4.445Z" fill="#e6e6e6"/>
    <path id="Path_18" data-name="Path 18" d="M407.027,160.784,341.774,184.24a2.362,2.362,0,1,1-1.6-4.445l65.253-23.456a2.362,2.362,0,0,1,1.6,4.445Z" fill="#e6e6e6"/>
    <path id="Path_19" data-name="Path 19" d="M393.883,213.029l-11.167,4.014A4.016,4.016,0,1,1,380,209.485l11.167-4.014a4.016,4.016,0,1,1,2.717,7.558Z" fill="#6661e7"/>
    <path id="Path_20" data-name="Path 20" d="M305.883,35.933a1.553,1.553,0,1,0-1.553-1.553A1.553,1.553,0,0,0,305.883,35.933Z" fill="#fff"/>
    <path id="Path_21" data-name="Path 21" d="M127.283,121.724c17.406-20.489,45.647-33.4,71.684-26.706a123.864,123.864,0,0,0-46.635,71.113c-2.531,10.987-4.2,23.471-13.122,30.366-5.55,4.291-13.014,5.464-19.986,4.685s-13.608-3.323-20.155-5.844l-1.741.193C101.707,169.006,109.878,142.212,127.283,121.724Z" fill="#f0f0f0"/>
    <path id="Path_22" data-name="Path 22" d="M198.9,95.578a105.865,105.865,0,0,0-54.686,35.389,45.557,45.557,0,0,0-7.4,12.221A26.158,26.158,0,0,0,135.6,156.9c.685,4.3,1.884,8.62,1.511,13.013a16.013,16.013,0,0,1-6.514,11.358c-4.462,3.426-9.888,5.044-15.249,6.442-5.952,1.552-12.16,3.07-16.944,7.166-.58.5-1.316-.432-.737-.927,8.324-7.127,20.145-6.522,29.417-11.777,4.327-2.451,7.941-6.222,8.719-11.295.681-4.436-.551-8.891-1.282-13.24a27.912,27.912,0,0,1,.687-13.448,42.156,42.156,0,0,1,6.9-12.46A102.708,102.708,0,0,1,165.5,109.742,107.744,107.744,0,0,1,198.733,94.4c.734-.2.9.978.168,1.173Z" fill="#fff"/>
    <path id="Path_23" data-name="Path 23" d="M148.415,125.145a15.883,15.883,0,0,1-.985-20.544c.467-.6,1.425.1.957.7a14.708,14.708,0,0,0,.955,19.108c.524.555-.407,1.289-.927.737Z" fill="#fff"/>
    <path id="Path_24" data-name="Path 24" d="M134.972,154.761a30.613,30.613,0,0,0,21.1-7.246c.581-.494,1.318.435.737.928a31.843,31.843,0,0,1-21.974,7.5c-.763-.034-.624-1.211.135-1.177Z" fill="#fff"/>
    <path id="Path_25" data-name="Path 25" d="M175.929,104.313a8.99,8.99,0,0,0,7.361,4.312c.764.024.624,1.2-.134,1.177A10.073,10.073,0,0,1,175,105.05a.612.612,0,0,1,.095-.832.6.6,0,0,1,.833.1Z" fill="#fff"/>
    <path id="Path_26" data-name="Path 26" d="M237.683,177.4h-1.437a118.4,118.4,0,0,0-19.143,1.581c-.49.073-.986.154-1.473.241a124.832,124.832,0,0,0-43.022,16.163,121.349,121.349,0,0,0-14.975,10.724c-6.507,5.454-13.129,11.886-20.832,14.787a21,21,0,0,1-2.452.784L97.7,197.639c-.056-.1-.118-.184-.174-.281l-1.507-.893c.229-.221.471-.445.7-.665.132-.129.273-.252.4-.381.091-.084.182-.167.259-.248.03-.028.061-.056.085-.076.077-.081.157-.148.229-.221q2.024-1.882,4.082-3.744c0-.008,0-.008.019-.011,10.477-9.429,21.834-18.065,34.14-24.7.371-.2.746-.408,1.133-.6a115.593,115.593,0,0,1,17.332-7.48,102.053,102.053,0,0,1,9.966-2.779A85.034,85.034,0,0,1,190.9,153.9c17.7,1.682,34.659,9,45.927,22.458C237.12,176.7,237.4,177.043,237.683,177.4Z" fill="#f0f0f0"/>
    <path id="Path_27" data-name="Path 27" d="M237.295,177.807a105.874,105.874,0,0,0-64.97-4.669,45.593,45.593,0,0,0-13.263,5.306,26.146,26.146,0,0,0-9.222,10.214c-2.042,3.846-3.686,8.017-6.628,11.3a16.017,16.017,0,0,1-12.04,5.147c-5.624.049-10.931-1.926-16.053-4.037-5.688-2.345-11.558-4.87-17.844-4.48-.762.047-.791-1.137-.03-1.184,10.936-.679,20.011,6.92,30.578,8.308,4.931.647,10.086-.187,13.762-3.769,3.215-3.132,4.914-7.431,6.948-11.344a27.91,27.91,0,0,1,8.645-10.323,42.156,42.156,0,0,1,13.01-5.8,102.694,102.694,0,0,1,31.914-3.471,107.745,107.745,0,0,1,35.765,7.76c.7.286.128,1.322-.572,1.038Z" fill="#fff"/>
    <path id="Path_28" data-name="Path 28" d="M179.183,171.019a15.883,15.883,0,0,1,11.582-17c.736-.2,1.081.935.344,1.135a14.707,14.707,0,0,0-10.742,15.832c.084.758-1.1.783-1.184.03Z" fill="#fff"/>
    <path id="Path_29" data-name="Path 29" d="M150.619,186.572a30.614,30.614,0,0,0,21.211,6.919c.762-.044.791,1.14.03,1.185a31.847,31.847,0,0,1-22.06-7.246c-.589-.487.231-1.343.816-.858Z" fill="#fff"/>
    <path id="Path_30" data-name="Path 30" d="M213.693,170.95a8.991,8.991,0,0,0,3.283,7.875c.594.479-.226,1.335-.817.859a10.077,10.077,0,0,1-3.65-8.7.612.612,0,0,1,.577-.607.6.6,0,0,1,.607.577Z" fill="#fff"/>
    <path id="Path_31" data-name="Path 31" d="M649.649,515.514c18.979,4.653,41.112.229,53.6-14.8a90.031,90.031,0,0,1-57.757-22.02c-6.171-5.394-12.473-12.035-20.664-12.3-5.1-.163-9.992,2.325-13.766,5.753s-6.6,7.754-9.382,12.028l-1.107.627C614.446,498.56,630.671,510.861,649.649,515.514Z" fill="#f0f0f0"/>
    <path id="Path_32" data-name="Path 32" d="M702.968,500.407a76.954,76.954,0,0,1-47.283,2.451,33.151,33.151,0,0,1-9.561-4.048,19.013,19.013,0,0,1-6.554-7.557c-1.428-2.825-2.563-5.88-4.653-8.308a11.636,11.636,0,0,0-8.675-3.915c-4.087-.117-7.972,1.241-11.725,2.7-4.167,1.621-8.47,3.371-13.032,3-.553-.045-.591.815-.039.861,7.938.652,14.643-4.739,22.342-5.594,3.593-.4,7.327.282,9.947,2.938,2.29,2.323,3.462,5.472,4.884,8.345a20.279,20.279,0,0,0,6.133,7.627,30.638,30.638,0,0,0,9.37,4.4,74.655,74.655,0,0,0,23.142,2.986,78.317,78.317,0,0,0,26.1-5.121c.517-.2.113-.959-.4-.763Z" fill="#fff"/>
    <path id="Path_33" data-name="Path 33" d="M660.638,504.5a11.545,11.545,0,0,0,8.171,12.52c.532.156.8-.663.266-.819a10.694,10.694,0,0,1-7.577-11.662c.073-.549-.788-.585-.86-.039Z" fill="#fff"/>
    <path id="Path_34" data-name="Path 34" d="M640.106,492.78a22.252,22.252,0,0,1,15.515-4.72c.553.043.591-.817.039-.861a23.147,23.147,0,0,0-16.135,4.945C639.09,492.49,639.673,493.124,640.106,492.78Z" fill="#fff"/>
    <path id="Path_35" data-name="Path 35" d="M685.716,505.048a6.535,6.535,0,0,1,2.5-5.675c.439-.34-.145-.974-.581-.636a7.324,7.324,0,0,0-2.779,6.272.443.443,0,0,0,.411.449.432.432,0,0,0,.449-.41Z" fill="#fff"/>
    <path id="Path_36" data-name="Path 36" d="M690.959,435.7c-.28.2-.56.408-.847.61a86.091,86.091,0,0,1-11.948,7.223c-.32.166-.647.329-.971.486a90.716,90.716,0,0,1-32.223,8.8,88.1,88.1,0,0,1-13.387.062c-6.157-.44-12.8-1.408-18.569.165a15.206,15.206,0,0,0-1.778.582L599.889,483.4c.009.08.01.159.018.239l-.508,1.168c.229.033.467.062.7.094.132.02.268.032.4.052.089.011.179.021.259.036.029,0,.059.007.082.008.08.015.156.02.229.033q2,.246,4,.466h.016a129.577,129.577,0,0,0,30.63.007c.3-.04.613-.078.922-.131a84.206,84.206,0,0,0,13.394-2.977,74.465,74.465,0,0,0,7.054-2.609A61.821,61.821,0,0,0,673.42,469.46c9.707-8.528,16.579-20.066,17.484-32.79C690.922,436.347,690.943,436.028,690.959,435.7Z" fill="#f0f0f0"/>
    <path id="Path_37" data-name="Path 37" d="M690.555,435.623a76.95,76.95,0,0,1-36.277,30.424,33.142,33.142,0,0,1-10.071,2.524,19.006,19.006,0,0,1-9.783-2.088c-2.841-1.395-5.586-3.151-8.717-3.832a11.635,11.635,0,0,0-9.283,2.1c-3.334,2.367-5.618,5.791-7.736,9.216-2.351,3.8-4.733,7.791-8.6,10.239-.469.3.019,1.006.487.71,6.73-4.258,8.838-12.6,14.47-17.918,2.629-2.481,6.021-4.186,9.711-3.642,3.228.475,6.06,2.284,8.924,3.722a20.287,20.287,0,0,0,9.49,2.4A30.649,30.649,0,0,0,653.3,467.35a74.664,74.664,0,0,0,20.275-11.55A78.3,78.3,0,0,0,691.335,436c.294-.469-.487-.833-.779-.368Z" fill="#fff"/>
    <path id="Path_38" data-name="Path 38" d="M659.22,464.374a11.546,11.546,0,0,0,14.062,5.076c.518-.2.238-1.01-.281-.814a10.692,10.692,0,0,1-13.071-4.749C659.657,463.4,658.949,463.894,659.22,464.374Z" fill="#fff"/>
    <path id="Path_39" data-name="Path 39" d="M635.772,467.38a22.255,22.255,0,0,1,9.546-13.11c.467-.3-.02-1.009-.487-.711a23.144,23.144,0,0,0-9.9,13.663C634.786,467.759,635.634,467.915,635.772,467.38Z" fill="#fff"/>
    <path id="Path_40" data-name="Path 40" d="M679.575,449.714a6.536,6.536,0,0,1-1.421-6.036c.146-.536-.7-.69-.846-.158a7.325,7.325,0,0,0,1.557,6.681.446.446,0,0,0,.6.112.432.432,0,0,0,.111-.6Z" fill="#fff"/>
    <path id="Path_41" data-name="Path 41" d="M725.7,333.1l-28.94,48.7,1.1.58-9.8,18.58-2.04-1.08-6.44,10.83,1.6.92-10.5,18.18-1.82-1.05L574.43,587.68a18.274,18.274,0,0,1-25.02,6.37L373.86,489.74a18.271,18.271,0,0,1-6.37-25.02L518.76,210.14a18.275,18.275,0,0,1,25.02-6.37L719.33,308.08a18.281,18.281,0,0,1,6.37,25.02Z" fill="#3f3d56"/>
    <path id="Path_42" data-name="Path 42" d="M555.663,584.224,379.495,479.548a5.634,5.634,0,0,1-1.964-7.713L529.8,215.562a5.634,5.634,0,0,1,7.713-1.964L713.686,318.275a5.634,5.634,0,0,1,1.963,7.712L563.376,582.261a5.635,5.635,0,0,1-7.713,1.963Z" fill="#fff"/>
    <path id="Path_43" data-name="Path 43" d="M628.028,261.886a1.553,1.553,0,1,0-1.553-1.553A1.553,1.553,0,0,0,628.028,261.886Z" fill="#fff"/>
    <path id="Path_44" data-name="Path 44" d="M618.417,445.465,471.361,358.086a4.066,4.066,0,1,1,4.153-6.991l147.057,87.379a4.066,4.066,0,0,1-4.154,6.991Z" fill="#e6e6e6"/>
    <path id="Path_45" data-name="Path 45" d="M559.7,431.925l-48.371-28.741a4.066,4.066,0,1,1,4.154-6.992l48.371,28.742a4.066,4.066,0,0,1-4.154,6.991Z" fill="#e6e6e6"/>
    <path id="Path_46" data-name="Path 46" d="M540.68,463.932l-48.371-28.741a4.066,4.066,0,0,1,4.154-6.991l48.371,28.741a4.066,4.066,0,0,1-4.154,6.991Z" fill="#e6e6e6"/>
    <path id="Path_47" data-name="Path 47" d="M530.94,480.326l-48.371-28.742a4.066,4.066,0,1,1,4.154-6.99l48.371,28.741a4.066,4.066,0,0,1-4.154,6.991Z" fill="#e6e6e6"/>
    <path id="Path_48" data-name="Path 48" d="M577.451,463.824l-102.627-60.98a4.066,4.066,0,0,1,4.154-6.991L581.6,456.833a4.066,4.066,0,1,1-4.153,6.991Z" fill="#e6e6e6"/>
    <path id="Path_49" data-name="Path 49" d="M557.89,541.755l-17.563-10.436a6.914,6.914,0,1,1,7.063-11.888l17.564,10.436a6.914,6.914,0,0,1-7.064,11.888Z" fill="#B8113C"/>
    <path id="Path_50" data-name="Path 50" d="M.424,482.606H487.605V200.557a7.981,7.981,0,0,0-7.971-7.97H8.4a7.98,7.98,0,0,0-7.971,7.97Z" fill="#cacaca"/>
    <path id="Path_51" data-name="Path 51" d="M472.553,203.611H15.476V463.1H472.553Z" fill="#fff"/>
    <path id="Path_52" data-name="Path 52" d="M0,474.974v34.8a10.986,10.986,0,0,0,10.988,10.987H190.8V589.45h-2.389a1.425,1.425,0,0,0-1.427,1.427v4.778a1.428,1.428,0,0,0,1.427,1.427H300.04a1.423,1.423,0,0,0,.546-.109,1.446,1.446,0,0,0,.463-.309,1.431,1.431,0,0,0,.418-1.009v-4.778a1.422,1.422,0,0,0-.109-.546,1.4,1.4,0,0,0-.309-.463,1.42,1.42,0,0,0-1.009-.418h-2.389V520.766H477.466a10.987,10.987,0,0,0,10.987-10.987v-34.8Z" fill="#3f3d56"/>
    <path id="Path_53" data-name="Path 53" d="M333.785,360.731h-71.2a5.145,5.145,0,1,1,0-10.291h71.2a5.146,5.146,0,0,1,0,10.291Z" fill="#e6e6e6"/>
    <path id="Path_54" data-name="Path 54" d="M333.785,384.861h-71.2a5.145,5.145,0,1,1,0-10.29h71.2a5.145,5.145,0,0,1,0,10.29Z" fill="#e6e6e6"/>
    <path id="Path_55" data-name="Path 55" d="M402.81,434.266H376.958a8.75,8.75,0,0,1,0-17.5H402.81a8.75,8.75,0,0,1,0,17.5Z" fill="#B8113C"/>
    <path id="Path_56" data-name="Path 56" d="M648.485,598.943H1.191a1.19,1.19,0,1,1,0-2.381H648.485a1.19,1.19,0,0,1,0,2.381Z" fill="#cacaca"/>
    <path id="Path_57" data-name="Path 57" d="M243.8,198.1a1.7,1.7,0,1,0-1.7-1.7A1.7,1.7,0,0,0,243.8,198.1Z" fill="#fff"/>
    <path id="Path_58" data-name="Path 58" d="M208.272,318V296.656h4.416l9.44,12.7v-12.7H226.9V318H223l-9.952-13.024V318Zm30.292.48q-8.223,0-8.192-8.64,0-4.576,2.08-6.56,2.081-2.016,6.112-2.016,4.065,0,6.176,2.08,2.112,2.048,2.112,6.5,0,4.256-2.144,6.464a8.24,8.24,0,0,1-6.144,2.172Zm0-3.808a3.087,3.087,0,0,0,2.656-1.216,6.149,6.149,0,0,0,.9-3.616,5.743,5.743,0,0,0-.928-3.744,3.249,3.249,0,0,0-2.624-1.056,3.132,3.132,0,0,0-2.656,1.088,6.272,6.272,0,0,0-.832,3.712,6.5,6.5,0,0,0,.832,3.648,3.071,3.071,0,0,0,2.652,1.184Zm28.167,3.808a12.17,12.17,0,0,1-4.48-.768,6.1,6.1,0,0,1-3.072-2.656,10.651,10.651,0,0,1-1.088-5.28,9.316,9.316,0,0,1,1.92-6.208q1.92-2.272,5.824-2.272a14.638,14.638,0,0,1,1.632.128,5.63,5.63,0,0,1,2.048.672v-6.944h4.736v18.624a3.51,3.51,0,0,1-1.088,2.624,7.178,7.178,0,0,1-2.816,1.568,12.671,12.671,0,0,1-3.616.512Zm.192-4a4.979,4.979,0,0,0,1.856-.288,1.015,1.015,0,0,0,.736-.928v-7.456a5.1,5.1,0,0,0-2.5-.672,4.208,4.208,0,0,0-3.1,1.056,5.289,5.289,0,0,0-1.024,3.712,5.718,5.718,0,0,0,.864,3.36,3.688,3.688,0,0,0,3.168,1.216Zm17.8,4a12.454,12.454,0,0,1-3.584-.48,5.346,5.346,0,0,1-2.112-8.64,6.071,6.071,0,0,1,4.384-1.376,8.941,8.941,0,0,1,2.4.32,9.475,9.475,0,0,1,2.016.768v-1.024a2.35,2.35,0,0,0-.96-2.112,4.417,4.417,0,0,0-2.624-.672,8.555,8.555,0,0,0-2.88.512,6.865,6.865,0,0,0-2.272,1.184v-4.224a8.7,8.7,0,0,1,2.528-.96,16.2,16.2,0,0,1,3.936-.448,11.52,11.52,0,0,1,2.112.224,7.24,7.24,0,0,1,2.336.8,4.628,4.628,0,0,1,1.824,1.7,5.278,5.278,0,0,1,.736,2.944l-.032,7.648a3.117,3.117,0,0,1-2.08,2.976,15.175,15.175,0,0,1-5.724.86Zm-2.368-5.44a1.825,1.825,0,0,0,.768,1.536,3.06,3.06,0,0,0,1.76.544,7.83,7.83,0,0,0,2.272-.224.878.878,0,0,0,.672-.9v-2.5a7.742,7.742,0,0,0-2.464-.384q-3,.008-3,1.928Zm21.065,5.6a5.875,5.875,0,0,1-4.192-1.312,5.034,5.034,0,0,1-1.376-3.776v-8.1h-2.368V301.8h2.368V297.36h4.992v4.448H306.4v3.648h-3.552v7.488a1.89,1.89,0,0,0,.352,1.248,1.546,1.546,0,0,0,1.184.384,3.279,3.279,0,0,0,2.016-.672v4.064a4.652,4.652,0,0,1-1.472.512,7.344,7.344,0,0,1-1.5.16Zm12.834-.16a12.46,12.46,0,0,1-3.584-.48,5.346,5.346,0,0,1-2.112-8.64,6.071,6.071,0,0,1,4.384-1.376,8.941,8.941,0,0,1,2.4.32,9.431,9.431,0,0,1,2.016.768v-1.024a2.35,2.35,0,0,0-.96-2.112,4.415,4.415,0,0,0-2.624-.672,8.556,8.556,0,0,0-2.88.512,6.865,6.865,0,0,0-2.272,1.184v-4.224a8.7,8.7,0,0,1,2.528-.96,16.2,16.2,0,0,1,3.936-.448,11.52,11.52,0,0,1,2.112.224,7.231,7.231,0,0,1,2.336.8,4.628,4.628,0,0,1,1.824,1.7,5.278,5.278,0,0,1,.736,2.944l-.032,7.648a3.116,3.116,0,0,1-2.08,2.976,15.172,15.172,0,0,1-5.724.86Zm-2.368-5.44a1.825,1.825,0,0,0,.768,1.536,3.063,3.063,0,0,0,1.76.544,7.825,7.825,0,0,0,2.272-.224.878.878,0,0,0,.672-.9v-2.5a7.742,7.742,0,0,0-2.464-.384q-3,.008-3,1.928Zm24.5,4.96V305.456h-2.368v-3.648h2.4v-.384a8,8,0,0,1,.832-4.032,4.395,4.395,0,0,1,2.272-1.92,8.441,8.441,0,0,1,3.072-.544,7.228,7.228,0,0,1,1.12.1,6.41,6.41,0,0,1,.992.224v4.192a3.58,3.58,0,0,0-.672-.48,1.616,1.616,0,0,0-.928-.224,2.089,2.089,0,0,0-1.376.448,2.015,2.015,0,0,0-.544,1.664v.96h3.52v3.648h-3.552V318Zm18.142.48q-8.225,0-8.192-8.64,0-4.576,2.08-6.56,2.081-2.016,6.112-2.016,4.064,0,6.176,2.08,2.112,2.048,2.112,6.5,0,4.256-2.144,6.464a8.24,8.24,0,0,1-6.139,2.172Zm0-3.808a3.088,3.088,0,0,0,2.656-1.216,6.156,6.156,0,0,0,.9-3.616,5.743,5.743,0,0,0-.928-3.744,3.249,3.249,0,0,0-2.624-1.056,3.132,3.132,0,0,0-2.656,1.088,6.265,6.265,0,0,0-.832,3.712,6.5,6.5,0,0,0,.832,3.648,3.07,3.07,0,0,0,2.657,1.184Zm19.2,3.808a8.872,8.872,0,0,1-5.5-1.6,5.935,5.935,0,0,1-2.112-5.056V301.808h4.768v9.632a3.415,3.415,0,0,0,.672,2.3,2.931,2.931,0,0,0,2.208.736,2.82,2.82,0,0,0,2.176-.736,3.31,3.31,0,0,0,.7-2.3v-9.632h4.48v10.016q0,3.456-1.984,5.056a8.375,8.375,0,0,1-5.408,1.6Zm11.6-15.3a10.9,10.9,0,0,1,2.24-.864,26.649,26.649,0,0,1,3.1-.672,17.941,17.941,0,0,1,3.04-.288,8.6,8.6,0,0,1,5.056,1.28q1.824,1.279,1.824,4.48V318H397.82v-9.92a2.868,2.868,0,0,0-.7-2.016,3.2,3.2,0,0,0-2.432-.768,5.8,5.8,0,0,0-1.472.192,5,5,0,0,0-1.12.352V318h-4.768Zm27.244,15.3a12.168,12.168,0,0,1-4.48-.768,6.092,6.092,0,0,1-3.072-2.656,10.64,10.64,0,0,1-1.088-5.28,9.316,9.316,0,0,1,1.92-6.208q1.92-2.272,5.824-2.272a14.631,14.631,0,0,1,1.632.128,5.636,5.636,0,0,1,2.048.672v-6.944H422.1v18.624a3.51,3.51,0,0,1-1.088,2.624,7.186,7.186,0,0,1-2.816,1.568,12.677,12.677,0,0,1-3.621.512Zm.192-4a4.984,4.984,0,0,0,1.856-.288,1.016,1.016,0,0,0,.736-.928v-7.456a5.1,5.1,0,0,0-2.5-.672,4.207,4.207,0,0,0-3.1,1.056,5.289,5.289,0,0,0-1.024,3.712,5.718,5.718,0,0,0,.864,3.36,3.688,3.688,0,0,0,3.171,1.216Z" fill="#B8113C"/>
    <path id="Path_59" data-name="Path 59" d="M121.895,370.766a45,45,0,1,0-45-45A45,45,0,0,0,121.895,370.766Z" fill="#B8113C"/>
    <g id="Group_1" data-name="Group 1" clip-path="url(#clip-path-2)">
      <path id="Path_60" data-name="Path 60" d="M115.756,344.75a6.25,6.25,0,1,1,1.831,4.42,6.25,6.25,0,0,1-1.831-4.42Zm.61-37.531a5.656,5.656,0,1,1,11.256,0l-2.191,21.922a3.453,3.453,0,0,1-6.875,0l-2.187-21.922Z" fill="#fff"/>
    </g>
    <path id="Path_61" data-name="Path 61" d="M552.811,146.622A35.811,35.811,0,1,0,517,110.811,35.811,35.811,0,0,0,552.811,146.622Z" fill="#B8113C"/>
    <g id="Group_2" data-name="Group 2" clip-path="url(#clip-path-3)">
      <path id="Path_62" data-name="Path 62" d="M548.129,123.625a4.375,4.375,0,1,1,1.282,3.094,4.375,4.375,0,0,1-1.282-3.094Zm.427-26.272a3.959,3.959,0,1,1,7.879,0L554.9,112.7a2.418,2.418,0,0,1-4.813,0l-1.531-15.346Z" fill="#fff"/>
    </g>
    <path id="Path_63" data-name="Path 63" d="M590.659,372.314a36,36,0,1,0-36-36A36,36,0,0,0,590.659,372.314Z" fill="#B8113C"/>
    <g id="Group_3" data-name="Group 3" clip-path="url(#clip-path-4)">
      <path id="Path_64" data-name="Path 64" d="M579.927,345.421a4.374,4.374,0,1,1-.52,3.307A4.374,4.374,0,0,1,579.927,345.421Zm14.062-22.2a3.959,3.959,0,1,1,6.724,4.108l-9.31,12.3a2.417,2.417,0,0,1-4.106-2.509l6.694-13.893Z" fill="#fff"/>
    </g>
    <path id="Path_65" data-name="Path 65" d="M347.033,123.377a27,27,0,1,0-27-27A27,27,0,0,0,347.033,123.377Z" fill="#B8113C"/>
    <g id="Group_4" data-name="Group 4" clip-path="url(#clip-path-5)">
      <path id="Path_66" data-name="Path 66" d="M347.287,107.854a3.751,3.751,0,1,1,1.932,2.122,3.751,3.751,0,0,1-1.932-2.122ZM340,86.544a3.394,3.394,0,1,1,6.354-2.289l3.221,12.82a2.072,2.072,0,0,1-3.881,1.4L340,86.543Z" fill="#fff"/>
    </g>
  </g>
</svg>
