<svg xmlns="http://www.w3.org/2000/svg" xmlns:xlink="http://www.w3.org/1999/xlink" width="122.88" height="99.41" viewBox="0 0 122.88 99.41">
  <defs>
    <clipPath id="clip-path">
      <rect id="Rectangle_1" data-name="Rectangle 1" width="122.88" height="99.41" fill="#B8113C"/>
    </clipPath>
  </defs>
  <g id="preview" clip-path="url(#clip-path)">
    <path id="Path_1" data-name="Path 1" d="M61.38,31.76a18.24,18.24,0,1,1-7,1.39,18.24,18.24,0,0,1,7-1.39Zm52.9,45a4.3,4.3,0,1,1,8.6,0V95.1a4.31,4.31,0,0,1-4.3,4.31H92.86a4.29,4.29,0,0,1,0-8.57h21.42Zm8.6-54a4.3,4.3,0,0,1-8.6,0V8.59H92.86a4.29,4.29,0,0,1,0-8.57h25.72a4.309,4.309,0,0,1,4.3,4.3V22.76ZM8.6,22.69a4.3,4.3,0,1,1-8.6,0V4.3A4.31,4.31,0,0,1,4.3,0H30a4.29,4.29,0,0,1,0,8.57H8.6ZM0,76.72a4.3,4.3,0,1,1,8.6,0v14.1H30a4.29,4.29,0,0,1,0,8.57H4.3A4.31,4.31,0,0,1,0,95.1ZM6.92,47.43a97.178,97.178,0,0,1,9.3-9.8c13-11.81,27.73-18.12,43-18.44S90,24.54,104.67,36.64A109.7,109.7,0,0,1,116,47.46a3.7,3.7,0,0,1,.25,4.66A72.477,72.477,0,0,1,102.34,67a62.8,62.8,0,0,1-39.1,13.93,68.67,68.67,0,0,1-40-13A81.151,81.151,0,0,1,6.73,52.23a3.67,3.67,0,0,1,.19-4.8Zm14.26-4.36A86.752,86.752,0,0,0,14.41,50,73.112,73.112,0,0,0,27.5,61.91,61.4,61.4,0,0,0,63.21,73.55,55.49,55.49,0,0,0,97.76,61.2a64.021,64.021,0,0,0,10.73-11A99.349,99.349,0,0,0,100,42.31c-13.27-10.94-27.2-16-40.66-15.77S32.82,32.47,21.18,43.07Zm35.05-7.78a7.1,7.1,0,1,1-5.01,2.079,7.1,7.1,0,0,1,5.01-2.079Z" fill="#B8113C" fill-rule="evenodd"/>
  </g>
</svg>
